Crimson-Semibold-Italic.ufo
<glyph name="exclam" format="1">
  <advance width="245"/>
  <unicode hex="0021"/>
  <outline>
    <contour>
      <point x="21" y="48" type="curve"/>
      <point x="25" y="85"/>
      <point x="56" y="115"/>
      <point x="92" y="115" type="curve" smooth="yes"/>
      <point x="121" y="115"/>
      <point x="143" y="88"/>
      <point x="139" y="58" type="curve"/>
      <point x="135" y="20"/>
      <point x="105" y="-12"/>
      <point x="69" y="-12" type="curve" smooth="yes"/>
      <point x="38" y="-12"/>
      <point x="17" y="16"/>
    </contour>
    <contour>
      <point x="198" y="636" type="curve"/>
      <point x="223" y="636"/>
      <point x="240" y="613"/>
      <point x="236" y="581" type="curve"/>
      <point x="234" y="553"/>
      <point x="165" y="331"/>
      <point x="128" y="196" type="curve" smooth="yes"/>
      <point x="123" y="179"/>
      <point x="104" y="169"/>
      <point x="95" y="169" type="curve"/>
      <point x="90" y="169"/>
      <point x="89" y="179"/>
      <point x="89" y="189" type="curve"/>
      <point x="91" y="225"/>
      <point x="117" y="476"/>
      <point x="132" y="576" type="curve" smooth="yes"/>
      <point x="138" y="606"/>
      <point x="166" y="636"/>
    </contour>
  </outline>
</glyph>
<glyph name="parenright" format="1">
  <advance width="267"/>
  <unicode hex="0029"/>
  <outline>
    <contour>
      <point x="-14" y="-121" type="curve"/>
      <point x="-20" y="-119"/>
      <point x="-23" y="-112"/>
      <point x="-22" y="-108" type="curve"/>
      <point x="46" y="-37"/>
      <point x="199" y="209"/>
      <point x="177" y="463" type="curve" smooth="yes"/>
      <point x="165" y="604"/>
      <point x="131" y="681"/>
      <point x="75" y="736" type="curve"/>
      <point x="75" y="739"/>
      <point x="75" y="746"/>
      <point x="81" y="748" type="curve"/>
      <point x="146" y="726"/>
      <point x="227" y="623"/>
      <point x="242" y="450" type="curve" smooth="yes"/>
      <point x="268" y="153"/>
      <point x="74" y="-49"/>
    </contour>
  </outline>
</glyph>
<glyph name="plus" format="1">
  <advance width="462"/>
  <unicode hex="002B"/>
  <outline>
    <contour>
      <point x="26" y="215" type="line" smooth="yes"/>
      <point x="23" y="215"/>
      <point x="21" y="218"/>
      <point x="21" y="223" type="curve" smooth="yes"/>
      <point x="21" y="236"/>
      <point x="25" y="249"/>
      <point x="35" y="262" type="curve"/>
      <point x="204" y="262" type="line"/>
      <point x="238" y="435" type="line" smooth="yes"/>
      <point x="240" y="448"/>
      <point x="278" y="451"/>
      <point x="282" y="451" type="curve" smooth="yes"/>
      <point x="290" y="451"/>
      <point x="293" y="447"/>
      <point x="292" y="443" type="curve" smooth="yes"/>
      <point x="256" y="262" type="line"/>
      <point x="426" y="262" type="line" smooth="yes"/>
      <point x="428" y="262"/>
      <point x="429" y="259"/>
      <point x="429" y="254" type="curve" smooth="yes"/>
      <point x="429" y="241"/>
      <point x="427" y="227"/>
      <point x="416" y="215" type="curve"/>
      <point x="248" y="215" type="line"/>
      <point x="214" y="39" type="line" smooth="yes"/>
      <point x="212" y="29"/>
      <point x="190" y="23"/>
      <point x="174" y="23" type="curve" smooth="yes"/>
      <point x="164" y="23"/>
      <point x="160" y="27"/>
      <point x="160" y="31" type="curve" smooth="yes"/>
      <point x="196" y="215" type="line"/>
    </contour>
  </outline>
</glyph>
<glyph name="comma" format="1">
  <advance width="208"/>
  <unicode hex="002C"/>
  <outline>
    <contour>
      <point x="-32" y="-112" type="curve"/>
      <point x="-23" y="-106"/>
      <point x="38" y="-54"/>
      <point x="38" y="-9" type="curve" smooth="yes"/>
      <point x="38" y="20"/>
      <point x="12" y="23"/>
      <point x="12" y="62" type="curve" smooth="yes"/>
      <point x="12" y="110"/>
      <point x="51" y="132"/>
      <point x="84" y="132" type="curve" smooth="yes"/>
      <point x="94" y="132"/>
      <point x="112" y="125"/>
      <point x="116" y="119" type="curve"/>
      <point x="118" y="114"/>
      <point x="118" y="105"/>
      <point x="118" y="98" type="curve" smooth="yes"/>
      <point x="118" y="60"/>
      <point x="109" y="12"/>
      <point x="88" y="-24" type="curve" smooth="yes"/>
      <point x="60" y="-72"/>
      <point x="27" y="-101"/>
      <point x="-18" y="-131" type="curve"/>
      <point x="-24" y="-130"/>
      <point x="-32" y="-121"/>
    </contour>
  </outline>
</glyph>
<glyph name="one" format="1">
  <advance width="468"/>
  <unicode hex="0031"/>
  <outline>
    <contour>
      <point x="214.266" y="506" type="curve"/>
      <point x="207.266" y="510"/>
      <point x="205.266" y="521"/>
      <point x="205.266" y="528" type="curve" smooth="yes"/>
      <point x="205.266" y="530"/>
      <point x="205.266" y="533"/>
      <point x="208.266" y="535" type="curve"/>
      <point x="306.266" y="585"/>
      <point x="386.266" y="626"/>
      <point x="413.266" y="642" type="curve"/>
      <point x="415.266" y="642" type="line" smooth="yes"/>
      <point x="421.266" y="642"/>
      <point x="424.266" y="623"/>
      <point x="423.266" y="614" type="curve"/>
      <point x="423.266" y="614"/>
      <point x="401.266" y="570"/>
      <point x="385.266" y="484" type="curve" smooth="yes"/>
      <point x="319.266" y="135" type="line" smooth="yes"/>
      <point x="313.266" y="102"/>
      <point x="308.266" y="73"/>
      <point x="309.266" y="46" type="curve" smooth="yes"/>
      <point x="310.266" y="35"/>
      <point x="360.266" y="26"/>
      <point x="367.266" y="26" type="curve" smooth="yes"/>
      <point x="370.266" y="26"/>
      <point x="368.266" y="15"/>
      <point x="367.266" y="8" type="curve" smooth="yes"/>
      <point x="366.266" y="3"/>
      <point x="365.266" y="-1"/>
      <point x="364.266" y="-3" type="curve"/>
      <point x="327.266" y="-1"/>
      <point x="267.266" y="2"/>
      <point x="230.266" y="2" type="curve" smooth="yes"/>
      <point x="193.266" y="2"/>
      <point x="162.266" y="-1"/>
      <point x="124.266" y="-3" type="curve"/>
      <point x="120.266" y="2"/>
      <point x="125.266" y="26"/>
      <point x="130.266" y="26" type="curve" smooth="yes"/>
      <point x="141.266" y="26"/>
      <point x="192.266" y="35"/>
      <point x="197.266" y="46" type="curve" smooth="yes"/>
      <point x="206.266" y="66"/>
      <point x="209.266" y="84"/>
      <point x="213.266" y="103" type="curve" smooth="yes"/>
      <point x="278.266" y="439" type="line" smooth="yes"/>
      <point x="290.266" y="499"/>
      <point x="296.266" y="530"/>
      <point x="277.266" y="530" type="curve" smooth="yes"/>
      <point x="270.266" y="530"/>
      <point x="232.266" y="515"/>
    </contour>
  </outline>
</glyph>
<glyph name="four" format="1">
  <advance width="468"/>
  <unicode hex="0034"/>
  <outline>
    <contour>
      <point x="489.566" y="643" type="curve" smooth="yes"/>
      <point x="498.566" y="643"/>
      <point x="508.566" y="629"/>
      <point x="506.566" y="621" type="curve" smooth="yes"/>
      <point x="431.566" y="236" type="line"/>
      <point x="486.566" y="236" type="line" smooth="yes"/>
      <point x="492.566" y="236"/>
      <point x="494.566" y="222"/>
      <point x="492.566" y="208" type="curve" smooth="yes"/>
      <point x="491.566" y="194"/>
      <point x="484.566" y="180"/>
      <point x="480.566" y="174" type="curve"/>
      <point x="419.566" y="174" type="line"/>
      <point x="385.566" y="0" type="line"/>
      <point x="385.566" y="0"/>
      <point x="364.566" y="-6"/>
      <point x="328.566" y="-6" type="curve" smooth="yes"/>
      <point x="306.566" y="-6"/>
      <point x="284.566" y="-3"/>
      <point x="285.566" y="4" type="curve" smooth="yes"/>
      <point x="318.566" y="174" type="line"/>
      <point x="60.5664" y="174" type="line"/>
      <point x="54.5664" y="178"/>
      <point x="52.5664" y="190"/>
      <point x="53.5664" y="196" type="curve"/>
      <point x="458.566" y="622" type="line" smooth="yes"/>
      <point x="466.566" y="631"/>
      <point x="482.566" y="643"/>
    </contour>
    <contour>
      <point x="380.566" y="494" type="line"/>
      <point x="138.566" y="236" type="line"/>
      <point x="330.566" y="236" type="line"/>
    </contour>
  </outline>
</glyph>
<glyph name="five" format="1">
  <advance width="468"/>
  <unicode hex="0035"/>
  <outline>
    <contour>
      <point x="462.139" y="247" type="curve" smooth="yes"/>
      <point x="462.139" y="93"/>
      <point x="292.139" y="-5"/>
      <point x="191.139" y="-5" type="curve" smooth="yes"/>
      <point x="133.139" y="-5"/>
      <point x="94.1387" y="8"/>
      <point x="71.1387" y="24" type="curve"/>
      <point x="67.1387" y="29"/>
      <point x="62.1387" y="43"/>
      <point x="62.1387" y="54" type="curve" smooth="yes"/>
      <point x="62.1387" y="96"/>
      <point x="90.1387" y="116"/>
      <point x="112.139" y="116" type="curve" smooth="yes"/>
      <point x="146.139" y="116"/>
      <point x="152.139" y="86"/>
      <point x="164.139" y="68" type="curve" smooth="yes"/>
      <point x="178.139" y="46"/>
      <point x="203.139" y="34"/>
      <point x="228.139" y="34" type="curve" smooth="yes"/>
      <point x="285.139" y="34"/>
      <point x="356.139" y="105"/>
      <point x="356.139" y="218" type="curve" smooth="yes"/>
      <point x="356.139" y="273"/>
      <point x="330.139" y="332"/>
      <point x="242.139" y="332" type="curve" smooth="yes"/>
      <point x="222.139" y="332"/>
      <point x="187.139" y="325"/>
      <point x="168.139" y="319" type="curve"/>
      <point x="165.139" y="321"/>
      <point x="158.139" y="328"/>
      <point x="154.139" y="333" type="curve"/>
      <point x="194.139" y="467"/>
      <point x="222.139" y="589"/>
      <point x="234.139" y="632" type="curve"/>
      <point x="312.139" y="633"/>
      <point x="436.139" y="635"/>
      <point x="478.139" y="645" type="curve"/>
      <point x="484.139" y="641"/>
      <point x="488.139" y="635"/>
      <point x="488.139" y="631" type="curve"/>
      <point x="488.139" y="613"/>
      <point x="458.139" y="564"/>
      <point x="448.139" y="550" type="curve"/>
      <point x="403.139" y="540"/>
      <point x="268.139" y="542"/>
      <point x="252.139" y="540" type="curve"/>
      <point x="248.139" y="530"/>
      <point x="224.139" y="434"/>
      <point x="210.139" y="384" type="curve"/>
      <point x="234.139" y="397"/>
      <point x="287.139" y="406"/>
      <point x="305.139" y="406" type="curve" smooth="yes"/>
      <point x="393.139" y="406"/>
      <point x="462.139" y="336"/>
    </contour>
  </outline>
</glyph>
<glyph name="six" format="1">
  <advance width="468"/>
  <unicode hex="0036"/>
  <outline>
    <contour>
      <point x="342.906" y="378" type="curve" smooth="yes"/>
      <point x="419.906" y="378"/>
      <point x="469.906" y="313"/>
      <point x="469.906" y="229" type="curve" smooth="yes"/>
      <point x="469.906" y="106"/>
      <point x="354.906" y="-6"/>
      <point x="236.906" y="-6" type="curve" smooth="yes"/>
      <point x="152.906" y="-6"/>
      <point x="78.9062" y="63"/>
      <point x="78.9062" y="176" type="curve" smooth="yes"/>
      <point x="78.9062" y="261"/>
      <point x="116.906" y="369"/>
      <point x="204.906" y="466" type="curve" smooth="yes"/>
      <point x="266.906" y="536"/>
      <point x="379.906" y="613"/>
      <point x="501.906" y="642" type="curve"/>
      <point x="507.906" y="640"/>
      <point x="508.906" y="624"/>
      <point x="507.906" y="618" type="curve"/>
      <point x="388.906" y="568"/>
      <point x="289.906" y="491"/>
      <point x="233.906" y="363" type="curve" smooth="yes"/>
      <point x="195.906" y="279"/>
      <point x="184.906" y="208"/>
      <point x="184.906" y="146" type="curve" smooth="yes"/>
      <point x="184.906" y="81"/>
      <point x="204.906" y="28"/>
      <point x="246.906" y="28" type="curve" smooth="yes"/>
      <point x="301.906" y="28"/>
      <point x="363.906" y="128"/>
      <point x="363.906" y="226" type="curve" smooth="yes"/>
      <point x="363.906" y="282"/>
      <point x="344.906" y="328"/>
      <point x="289.906" y="328" type="curve" smooth="yes"/>
      <point x="273.906" y="328"/>
      <point x="262.906" y="323"/>
      <point x="254.906" y="319" type="curve"/>
      <point x="251.906" y="321"/>
      <point x="248.906" y="326"/>
      <point x="248.906" y="332" type="curve" smooth="yes"/>
      <point x="248.906" y="344"/>
      <point x="306.906" y="378"/>
    </contour>
  </outline>
</glyph>
<glyph name="nine" format="1">
  <advance width="468"/>
  <unicode hex="0039"/>
  <outline>
    <contour>
      <point x="248.357" y="260" type="curve" smooth="yes"/>
      <point x="171.357" y="260"/>
      <point x="122.357" y="324"/>
      <point x="122.357" y="408" type="curve" smooth="yes"/>
      <point x="122.357" y="531"/>
      <point x="236.357" y="642"/>
      <point x="354.357" y="642" type="curve" smooth="yes"/>
      <point x="438.357" y="642"/>
      <point x="512.357" y="574"/>
      <point x="512.357" y="461" type="curve" smooth="yes"/>
      <point x="512.357" y="376"/>
      <point x="475.357" y="268"/>
      <point x="387.357" y="171" type="curve" smooth="yes"/>
      <point x="325.357" y="101"/>
      <point x="211.357" y="23"/>
      <point x="89.3574" y="-6" type="curve"/>
      <point x="83.3574" y="-4"/>
      <point x="82.3574" y="12"/>
      <point x="83.3574" y="18" type="curve"/>
      <point x="202.357" y="68"/>
      <point x="301.357" y="146"/>
      <point x="357.357" y="274" type="curve" smooth="yes"/>
      <point x="395.357" y="358"/>
      <point x="406.357" y="428"/>
      <point x="406.357" y="490" type="curve" smooth="yes"/>
      <point x="406.357" y="555"/>
      <point x="386.357" y="608"/>
      <point x="344.357" y="608" type="curve" smooth="yes"/>
      <point x="289.357" y="608"/>
      <point x="227.357" y="508"/>
      <point x="227.357" y="410" type="curve" smooth="yes"/>
      <point x="227.357" y="354"/>
      <point x="246.357" y="310"/>
      <point x="301.357" y="310" type="curve" smooth="yes"/>
      <point x="317.357" y="310"/>
      <point x="329.357" y="314"/>
      <point x="337.357" y="318" type="curve"/>
      <point x="340.357" y="316"/>
      <point x="342.357" y="311"/>
      <point x="342.357" y="305" type="curve" smooth="yes"/>
      <point x="342.357" y="293"/>
      <point x="284.357" y="260"/>
    </contour>
  </outline>
</glyph>
<glyph name="colon" format="1">
  <advance width="240"/>
  <unicode hex="003A"/>
  <outline>
    <contour>
      <point x="81" y="372" type="curve" smooth="yes"/>
      <point x="85" y="410"/>
      <point x="119" y="441"/>
      <point x="153" y="441" type="curve"/>
      <point x="183" y="441"/>
      <point x="205" y="416"/>
      <point x="201" y="384" type="curve" smooth="yes"/>
      <point x="197" y="346"/>
      <point x="163" y="312"/>
      <point x="129" y="312" type="curve"/>
      <point x="98" y="312"/>
      <point x="77" y="340"/>
    </contour>
    <contour>
      <point x="18" y="47" type="curve" smooth="yes"/>
      <point x="22" y="85"/>
      <point x="56" y="117"/>
      <point x="90" y="117" type="curve"/>
      <point x="120" y="117"/>
      <point x="142" y="91"/>
      <point x="138" y="59" type="curve" smooth="yes"/>
      <point x="134" y="21"/>
      <point x="100" y="-12"/>
      <point x="66" y="-12" type="curve"/>
      <point x="34" y="-12"/>
      <point x="14" y="15"/>
    </contour>
  </outline>
</glyph>
<glyph name="less" format="1">
  <advance width="454"/>
  <unicode hex="003C"/>
  <outline>
    <contour>
      <point x="94" y="209" type="line"/>
      <point x="364" y="46" type="line"/>
      <point x="364" y="46"/>
      <point x="365" y="44"/>
      <point x="365" y="40" type="curve" smooth="yes"/>
      <point x="365" y="30"/>
      <point x="346" y="-14"/>
      <point x="340" y="-14" type="curve" smooth="yes"/>
      <point x="339" y="-14"/>
      <point x="338" y="-14"/>
      <point x="336" y="-13" type="curve" smooth="yes"/>
      <point x="24" y="177" type="line" smooth="yes"/>
      <point x="15" y="183"/>
      <point x="12" y="196"/>
      <point x="14" y="210" type="curve" smooth="yes"/>
      <point x="15" y="222"/>
      <point x="22" y="234"/>
      <point x="36" y="241" type="curve" smooth="yes"/>
      <point x="419" y="428" type="line" smooth="yes"/>
      <point x="421" y="429"/>
      <point x="422" y="430"/>
      <point x="423" y="430" type="curve" smooth="yes"/>
      <point x="426" y="430"/>
      <point x="429" y="416"/>
      <point x="429" y="390" type="curve" smooth="yes"/>
      <point x="429" y="382"/>
      <point x="426" y="370"/>
      <point x="424" y="369" type="curve"/>
    </contour>
  </outline>
</glyph>
<glyph name="equal" format="1">
  <advance width="551"/>
  <unicode hex="003D"/>
  <outline>
    <contour>
      <point x="47" y="140" type="line"/>
      <point x="45" y="140"/>
      <point x="42" y="142"/>
      <point x="42" y="148" type="curve" smooth="yes"/>
      <point x="42" y="156"/>
      <point x="51" y="188"/>
      <point x="61" y="194" type="curve"/>
      <point x="464" y="194" type="line" smooth="yes"/>
      <point x="468" y="194"/>
      <point x="469" y="192"/>
      <point x="469" y="188" type="curve" smooth="yes"/>
      <point x="469" y="179"/>
      <point x="464" y="160"/>
      <point x="454" y="144" type="curve"/>
      <point x="452" y="141"/>
      <point x="456" y="146"/>
      <point x="450" y="140" type="curve"/>
    </contour>
    <contour>
      <point x="74" y="282" type="line"/>
      <point x="72" y="282"/>
      <point x="70" y="282"/>
      <point x="70" y="288" type="curve" smooth="yes"/>
      <point x="70" y="295"/>
      <point x="78" y="330"/>
      <point x="88" y="336" type="curve"/>
      <point x="492" y="336" type="line" smooth="yes"/>
      <point x="496" y="336"/>
      <point x="496" y="332"/>
      <point x="496" y="328" type="curve" smooth="yes"/>
      <point x="496" y="319"/>
      <point x="491" y="300"/>
      <point x="481" y="284" type="curve"/>
      <point x="479" y="281"/>
      <point x="483" y="288"/>
      <point x="477" y="282" type="curve"/>
    </contour>
  </outline>
</glyph>
<glyph name="greater" format="1">
  <advance width="455"/>
  <unicode hex="003E"/>
  <outline>
    <contour>
      <point x="339" y="209" type="line"/>
      <point x="70" y="369" type="line"/>
      <point x="70" y="369"/>
      <point x="68" y="372"/>
      <point x="69" y="376" type="curve" smooth="yes"/>
      <point x="76" y="398"/>
      <point x="91" y="430"/>
      <point x="95" y="430" type="curve" smooth="yes"/>
      <point x="96" y="430"/>
      <point x="97" y="429"/>
      <point x="99" y="428" type="curve" smooth="yes"/>
      <point x="408" y="241" type="line" smooth="yes"/>
      <point x="416" y="237"/>
      <point x="421" y="229"/>
      <point x="420" y="219" type="curve" smooth="yes"/>
      <point x="418" y="209"/>
      <point x="415" y="187"/>
      <point x="396" y="177" type="curve" smooth="yes"/>
      <point x="11" y="-13" type="line" smooth="yes"/>
      <point x="9" y="-14"/>
      <point x="7" y="-15"/>
      <point x="5" y="-15" type="curve" smooth="yes"/>
      <point x="-1" y="-15"/>
      <point x="0" y="21"/>
      <point x="0" y="39" type="curve" smooth="yes"/>
      <point x="0" y="44"/>
      <point x="5" y="46"/>
      <point x="5" y="46" type="curve"/>
    </contour>
  </outline>
</glyph>
<glyph name="question" format="1">
  <advance width="345"/>
  <unicode hex="003F"/>
  <outline>
    <contour>
      <point x="39" y="46" type="curve" smooth="yes"/>
      <point x="43" y="84"/>
      <point x="76" y="115"/>
      <point x="110" y="115" type="curve"/>
      <point x="140" y="115"/>
      <point x="161" y="90"/>
      <point x="157" y="58" type="curve" smooth="yes"/>
      <point x="153" y="21"/>
      <point x="120" y="-12"/>
      <point x="86" y="-12" type="curve"/>
      <point x="55" y="-12"/>
      <point x="35" y="14"/>
    </contour>
    <contour>
      <point x="189" y="206" type="curve"/>
      <point x="189" y="201"/>
      <point x="182" y="191"/>
      <point x="177" y="188" type="curve"/>
      <point x="153" y="188"/>
      <point x="71" y="236"/>
      <point x="71" y="292" type="curve" smooth="yes"/>
      <point x="71" y="346"/>
      <point x="110" y="371"/>
      <point x="136" y="389" type="curve" smooth="yes"/>
      <point x="173" y="414"/>
      <point x="210" y="432"/>
      <point x="249" y="462" type="curve" smooth="yes"/>
      <point x="269" y="477"/>
      <point x="288" y="497"/>
      <point x="288" y="528" type="curve" smooth="yes"/>
      <point x="288" y="560"/>
      <point x="271" y="578"/>
      <point x="243" y="578" type="curve" smooth="yes"/>
      <point x="206" y="578"/>
      <point x="191" y="529"/>
      <point x="157" y="529" type="curve" smooth="yes"/>
      <point x="119" y="529"/>
      <point x="110" y="570"/>
      <point x="118" y="598" type="curve"/>
      <point x="126" y="613"/>
      <point x="161" y="639"/>
      <point x="203" y="639" type="curve" smooth="yes"/>
      <point x="282" y="639"/>
      <point x="350" y="569"/>
      <point x="350" y="501" type="curve" smooth="yes"/>
      <point x="350" y="453"/>
      <point x="338" y="416"/>
      <point x="284" y="378" type="curve" smooth="yes"/>
      <point x="264" y="362"/>
      <point x="227" y="345"/>
      <point x="188" y="318" type="curve" smooth="yes"/>
      <point x="165" y="302"/>
      <point x="152" y="286"/>
      <point x="152" y="264" type="curve" smooth="yes"/>
      <point x="152" y="235"/>
      <point x="179" y="212"/>
    </contour>
  </outline>
</glyph>
<glyph name="A" format="1">
  <advance width="601"/>
  <unicode hex="0041"/>
  <outline>
    <contour>
      <point x="63" y="136" type="curve" smooth="yes"/>
      <point x="348" y="629" type="line" smooth="yes"/>
      <point x="356" y="643"/>
      <point x="380" y="662"/>
      <point x="389" y="662" type="curve" smooth="yes"/>
      <point x="395" y="662"/>
      <point x="398" y="660"/>
      <point x="400" y="658" type="curve"/>
      <point x="490" y="137" type="line"/>
      <point x="496" y="103"/>
      <point x="499" y="80"/>
      <point x="501" y="68" type="curve" smooth="yes"/>
      <point x="507" y="36"/>
      <point x="555" y="30"/>
      <point x="562" y="30" type="curve"/>
      <point x="565" y="22"/>
      <point x="560" y="0"/>
      <point x="557" y="-4" type="curve"/>
      <point x="520" y="-2"/>
      <point x="486" y="3"/>
      <point x="445" y="3" type="curve" smooth="yes"/>
      <point x="402" y="3"/>
      <point x="358" y="-2"/>
      <point x="320" y="-4" type="curve"/>
      <point x="316" y="1"/>
      <point x="321" y="28"/>
      <point x="327" y="30" type="curve"/>
      <point x="341" y="30"/>
      <point x="371" y="35"/>
      <point x="383" y="45" type="curve" smooth="yes"/>
      <point x="388" y="49"/>
      <point x="391" y="54"/>
      <point x="392" y="60" type="curve" smooth="yes"/>
      <point x="396" y="80"/>
      <point x="367" y="234"/>
      <point x="367" y="234" type="curve"/>
      <point x="367" y="234"/>
      <point x="365" y="238"/>
      <point x="362" y="238" type="curve" smooth="yes"/>
      <point x="332" y="240"/>
      <point x="294" y="238"/>
      <point x="271" y="238" type="curve" smooth="yes"/>
      <point x="233" y="238"/>
      <point x="211" y="238"/>
      <point x="173" y="236" type="curve" smooth="yes"/>
      <point x="171" y="236"/>
      <point x="166" y="233"/>
      <point x="166" y="232" type="curve"/>
      <point x="166" y="232"/>
      <point x="128" y="168"/>
      <point x="108" y="130" type="curve" smooth="yes"/>
      <point x="92" y="100"/>
      <point x="80" y="70"/>
      <point x="78" y="60" type="curve" smooth="yes"/>
      <point x="73" y="35"/>
      <point x="132" y="30"/>
      <point x="139" y="30" type="curve"/>
      <point x="142" y="25"/>
      <point x="138" y="1"/>
      <point x="134" y="-4" type="curve"/>
      <point x="100" y="-1"/>
      <point x="81" y="3"/>
      <point x="40" y="3" type="curve" smooth="yes"/>
      <point x="-3" y="3"/>
      <point x="-22" y="-1"/>
      <point x="-60" y="-4" type="curve"/>
      <point x="-62" y="0"/>
      <point x="-60" y="19"/>
      <point x="-55" y="28" type="curve"/>
      <point x="-44" y="28"/>
      <point x="-3" y="40"/>
      <point x="9" y="54" type="curve" smooth="yes"/>
      <point x="31" y="81"/>
      <point x="45" y="104"/>
    </contour>
    <contour>
      <point x="321" y="506" type="line"/>
      <point x="197" y="290" type="line"/>
      <point x="197" y="290"/>
      <point x="197" y="286"/>
      <point x="199" y="286" type="curve" smooth="yes"/>
      <point x="220" y="284"/>
      <point x="256" y="283"/>
      <point x="277" y="283" type="curve" smooth="yes"/>
      <point x="306" y="283"/>
      <point x="325" y="284"/>
      <point x="354" y="286" type="curve" smooth="yes"/>
      <point x="356" y="286"/>
      <point x="358" y="291"/>
      <point x="358" y="291" type="curve"/>
    </contour>
  </outline>
</glyph>
<glyph name="C" format="1">
  <advance width="645"/>
  <unicode hex="0043"/>
  <outline>
    <contour>
      <point x="439" y="628" type="curve" smooth="yes"/>
      <point x="295" y="628"/>
      <point x="175" y="489"/>
      <point x="175" y="275" type="curve" smooth="yes"/>
      <point x="175" y="169"/>
      <point x="221" y="32"/>
      <point x="361" y="32" type="curve" smooth="yes"/>
      <point x="413" y="32"/>
      <point x="458" y="52"/>
      <point x="490" y="79" type="curve" smooth="yes"/>
      <point x="530" y="112"/>
      <point x="562" y="169"/>
      <point x="571" y="188" type="curve"/>
      <point x="585" y="188"/>
      <point x="597" y="182"/>
      <point x="600" y="178" type="curve"/>
      <point x="597" y="162"/>
      <point x="544" y="44"/>
      <point x="530" y="34" type="curve"/>
      <point x="475" y="4"/>
      <point x="419" y="-8"/>
      <point x="333" y="-8" type="curve" smooth="yes"/>
      <point x="155" y="-8"/>
      <point x="55" y="129"/>
      <point x="55" y="270" type="curve" smooth="yes"/>
      <point x="55" y="521"/>
      <point x="262" y="669"/>
      <point x="454" y="667" type="curve" smooth="yes"/>
      <point x="513" y="666"/>
      <point x="581" y="651"/>
      <point x="632" y="639" type="curve"/>
      <point x="631" y="615"/>
      <point x="622" y="515"/>
      <point x="620" y="494" type="curve" smooth="yes"/>
      <point x="619" y="487"/>
      <point x="611" y="483"/>
      <point x="604" y="483" type="curve"/>
      <point x="600" y="483"/>
      <point x="592" y="483"/>
      <point x="588" y="489" type="curve"/>
      <point x="590" y="549"/>
      <point x="540" y="628"/>
    </contour>
  </outline>
</glyph>
<glyph name="D" format="1">
  <advance width="701"/>
  <unicode hex="0044"/>
  <outline>
    <contour>
      <point x="273" y="543" type="curve" smooth="yes"/>
      <point x="193" y="130" type="line" smooth="yes"/>
      <point x="191" y="120"/>
      <point x="181" y="67"/>
      <point x="185" y="54" type="curve" smooth="yes"/>
      <point x="189" y="42"/>
      <point x="219" y="35"/>
      <point x="248" y="35" type="curve" smooth="yes"/>
      <point x="396" y="35"/>
      <point x="505" y="119"/>
      <point x="543" y="314" type="curve" smooth="yes"/>
      <point x="584" y="525"/>
      <point x="495" y="622"/>
      <point x="349" y="622" type="curve" smooth="yes"/>
      <point x="333" y="622"/>
      <point x="297" y="620"/>
      <point x="291" y="610" type="curve" smooth="yes"/>
      <point x="283" y="596"/>
      <point x="279" y="572"/>
    </contour>
    <contour>
      <point x="382" y="659" type="curve" smooth="yes"/>
      <point x="597" y="659"/>
      <point x="703" y="521"/>
      <point x="665" y="326" type="curve" smooth="yes"/>
      <point x="626" y="124"/>
      <point x="480" y="-3"/>
      <point x="244" y="-3" type="curve"/>
      <point x="224" y="-3"/>
      <point x="11" y="-3"/>
      <point x="-7" y="-3" type="curve"/>
      <point x="-10" y="3"/>
      <point x="-5" y="24"/>
      <point x="-0" y="30" type="curve"/>
      <point x="12" y="30"/>
      <point x="59" y="34"/>
      <point x="65" y="46" type="curve" smooth="yes"/>
      <point x="75" y="64"/>
      <point x="80" y="94"/>
      <point x="87" y="130" type="curve" smooth="yes"/>
      <point x="164" y="528" type="line" smooth="yes"/>
      <point x="171" y="564"/>
      <point x="178" y="594"/>
      <point x="175" y="612" type="curve" smooth="yes"/>
      <point x="173" y="624"/>
      <point x="128" y="628"/>
      <point x="116" y="628" type="curve"/>
      <point x="113" y="634"/>
      <point x="116" y="655"/>
      <point x="122" y="661" type="curve"/>
      <point x="162" y="659"/>
      <point x="205" y="657"/>
      <point x="243" y="657" type="curve" smooth="yes"/>
      <point x="281" y="657"/>
      <point x="334" y="659"/>
    </contour>
  </outline>
</glyph>
<glyph name="F" format="1">
  <advance width="517"/>
  <unicode hex="0046"/>
  <outline>
    <contour>
      <point x="243" y="656" type="curve" smooth="yes"/>
      <point x="306" y="656"/>
      <point x="467" y="664"/>
      <point x="545" y="664" type="curve"/>
      <point x="542" y="614"/>
      <point x="545" y="567"/>
      <point x="545" y="522" type="curve"/>
      <point x="542" y="519"/>
      <point x="531" y="517"/>
      <point x="524" y="517" type="curve" smooth="yes"/>
      <point x="517" y="517"/>
      <point x="512" y="519"/>
      <point x="512" y="524" type="curve" smooth="yes"/>
      <point x="505" y="592"/>
      <point x="479" y="620"/>
      <point x="426" y="620" type="curve" smooth="yes"/>
      <point x="348" y="620" type="line"/>
      <point x="332" y="620"/>
      <point x="296" y="619"/>
      <point x="290" y="609" type="curve" smooth="yes"/>
      <point x="282" y="595"/>
      <point x="279" y="571"/>
      <point x="273" y="543" type="curve" smooth="yes"/>
      <point x="237" y="360" type="line" smooth="yes"/>
      <point x="236" y="354"/>
      <point x="256" y="351"/>
      <point x="276" y="351" type="curve" smooth="yes"/>
      <point x="325" y="351" type="line" smooth="yes"/>
      <point x="397" y="351"/>
      <point x="403" y="360"/>
      <point x="431" y="422" type="curve" smooth="yes"/>
      <point x="433" y="427"/>
      <point x="438" y="430"/>
      <point x="445" y="430" type="curve" smooth="yes"/>
      <point x="452" y="430"/>
      <point x="458" y="427"/>
      <point x="460" y="424" type="curve"/>
      <point x="424" y="234" type="line"/>
      <point x="422" y="232"/>
      <point x="414" y="230"/>
      <point x="407" y="230" type="curve" smooth="yes"/>
      <point x="400" y="230"/>
      <point x="395" y="233"/>
      <point x="395" y="238" type="curve" smooth="yes"/>
      <point x="393" y="290"/>
      <point x="386" y="297"/>
      <point x="378" y="302" type="curve" smooth="yes"/>
      <point x="368" y="308"/>
      <point x="330" y="309"/>
      <point x="295" y="309" type="curve" smooth="yes"/>
      <point x="269" y="309"/>
      <point x="227" y="308"/>
      <point x="225" y="298" type="curve" smooth="yes"/>
      <point x="193" y="130" type="line" smooth="yes"/>
      <point x="186" y="94"/>
      <point x="180" y="64"/>
      <point x="183" y="46" type="curve" smooth="yes"/>
      <point x="185" y="34"/>
      <point x="238" y="29"/>
      <point x="250" y="29" type="curve"/>
      <point x="253" y="23"/>
      <point x="249" y="2"/>
      <point x="243" y="-4" type="curve"/>
      <point x="207" y="-1"/>
      <point x="153" y="2"/>
      <point x="115" y="2" type="curve" smooth="yes"/>
      <point x="74" y="2"/>
      <point x="30" y="-2"/>
      <point x="-7" y="-4" type="curve"/>
      <point x="-10" y="2"/>
      <point x="-5" y="23"/>
      <point x="-0" y="29" type="curve"/>
      <point x="12" y="29"/>
      <point x="59" y="34"/>
      <point x="65" y="46" type="curve" smooth="yes"/>
      <point x="75" y="64"/>
      <point x="80" y="94"/>
      <point x="87" y="130" type="curve" smooth="yes"/>
      <point x="165" y="528" type="line" smooth="yes"/>
      <point x="172" y="564"/>
      <point x="178" y="594"/>
      <point x="175" y="612" type="curve" smooth="yes"/>
      <point x="173" y="624"/>
      <point x="128" y="628"/>
      <point x="116" y="628" type="curve"/>
      <point x="113" y="634"/>
      <point x="117" y="655"/>
      <point x="123" y="661" type="curve"/>
      <point x="163" y="659"/>
      <point x="205" y="656"/>
    </contour>
  </outline>
</glyph>
<glyph name="H" format="1">
  <advance width="696"/>
  <unicode hex="0048"/>
  <outline>
    <contour>
      <point x="243" y="656" type="curve" smooth="yes"/>
      <point x="280" y="656"/>
      <point x="326" y="659"/>
      <point x="364" y="662" type="curve"/>
      <point x="368" y="656"/>
      <point x="364" y="635"/>
      <point x="358" y="629" type="curve"/>
      <point x="346" y="629"/>
      <point x="299" y="624"/>
      <point x="293" y="612" type="curve" smooth="yes"/>
      <point x="283" y="594"/>
      <point x="277" y="564"/>
      <point x="270" y="528" type="curve" smooth="yes"/>
      <point x="239" y="368" type="line"/>
      <point x="239" y="366"/>
      <point x="240" y="365"/>
      <point x="240" y="365" type="curve"/>
      <point x="280" y="364"/>
      <point x="322" y="362"/>
      <point x="369" y="362" type="curve" smooth="yes"/>
      <point x="408" y="362"/>
      <point x="457" y="364"/>
      <point x="495" y="365" type="curve"/>
      <point x="495" y="365"/>
      <point x="498" y="367"/>
      <point x="498" y="369" type="curve"/>
      <point x="528" y="528" type="line" smooth="yes"/>
      <point x="535" y="564"/>
      <point x="541" y="594"/>
      <point x="538" y="612" type="curve" smooth="yes"/>
      <point x="536" y="624"/>
      <point x="492" y="629"/>
      <point x="480" y="629" type="curve"/>
      <point x="477" y="635"/>
      <point x="480" y="656"/>
      <point x="486" y="662" type="curve"/>
      <point x="523" y="659"/>
      <point x="569" y="656"/>
      <point x="607" y="656" type="curve" smooth="yes"/>
      <point x="645" y="656"/>
      <point x="690" y="659"/>
      <point x="728" y="662" type="curve"/>
      <point x="732" y="656"/>
      <point x="727" y="635"/>
      <point x="721" y="629" type="curve"/>
      <point x="709" y="629"/>
      <point x="662" y="624"/>
      <point x="656" y="612" type="curve" smooth="yes"/>
      <point x="646" y="594"/>
      <point x="641" y="564"/>
      <point x="634" y="528" type="curve" smooth="yes"/>
      <point x="557" y="130" type="line" smooth="yes"/>
      <point x="550" y="94"/>
      <point x="543" y="64"/>
      <point x="546" y="46" type="curve" smooth="yes"/>
      <point x="548" y="34"/>
      <point x="593" y="29"/>
      <point x="605" y="29" type="curve"/>
      <point x="608" y="23"/>
      <point x="604" y="2"/>
      <point x="598" y="-4" type="curve"/>
      <point x="562" y="-1"/>
      <point x="516" y="2"/>
      <point x="478" y="2" type="curve" smooth="yes"/>
      <point x="440" y="2"/>
      <point x="395" y="-1"/>
      <point x="357" y="-4" type="curve"/>
      <point x="353" y="2"/>
      <point x="357" y="23"/>
      <point x="363" y="29" type="curve"/>
      <point x="375" y="29"/>
      <point x="423" y="34"/>
      <point x="429" y="46" type="curve" smooth="yes"/>
      <point x="439" y="64"/>
      <point x="444" y="94"/>
      <point x="451" y="130" type="curve" smooth="yes"/>
      <point x="487" y="314" type="line"/>
      <point x="487" y="316"/>
      <point x="486" y="318"/>
      <point x="486" y="318" type="curve"/>
      <point x="447" y="319"/>
      <point x="403" y="320"/>
      <point x="361" y="320" type="curve" smooth="yes"/>
      <point x="245" y="320"/>
      <point x="234" y="318"/>
      <point x="230" y="316" type="curve"/>
      <point x="229" y="315"/>
      <point x="228" y="313"/>
      <point x="228" y="313" type="curve"/>
      <point x="193" y="130" type="line" smooth="yes"/>
      <point x="186" y="94"/>
      <point x="180" y="64"/>
      <point x="183" y="46" type="curve" smooth="yes"/>
      <point x="185" y="34"/>
      <point x="229" y="29"/>
      <point x="241" y="29" type="curve"/>
      <point x="244" y="23"/>
      <point x="241" y="2"/>
      <point x="235" y="-4" type="curve"/>
      <point x="199" y="-1"/>
      <point x="153" y="2"/>
      <point x="115" y="2" type="curve" smooth="yes"/>
      <point x="78" y="2"/>
      <point x="31" y="-1"/>
      <point x="-7" y="-4" type="curve"/>
      <point x="-10" y="2"/>
      <point x="-5" y="23"/>
      <point x="-0" y="29" type="curve"/>
      <point x="12" y="29"/>
      <point x="59" y="34"/>
      <point x="65" y="46" type="curve" smooth="yes"/>
      <point x="75" y="64"/>
      <point x="80" y="94"/>
      <point x="87" y="130" type="curve" smooth="yes"/>
      <point x="165" y="528" type="line" smooth="yes"/>
      <point x="172" y="564"/>
      <point x="178" y="594"/>
      <point x="175" y="612" type="curve" smooth="yes"/>
      <point x="173" y="624"/>
      <point x="128" y="629"/>
      <point x="116" y="629" type="curve"/>
      <point x="113" y="635"/>
      <point x="117" y="656"/>
      <point x="123" y="662" type="curve"/>
      <point x="160" y="659"/>
      <point x="205" y="656"/>
    </contour>
  </outline>
</glyph>
<glyph name="J" format="1">
  <advance width="317"/>
  <unicode hex="004A"/>
  <outline>
    <contour>
      <point x="234" y="654" type="curve" smooth="yes"/>
      <point x="274" y="654"/>
      <point x="314" y="657"/>
      <point x="352" y="660" type="curve"/>
      <point x="354" y="657"/>
      <point x="352" y="635"/>
      <point x="347" y="628" type="curve"/>
      <point x="337" y="628"/>
      <point x="292" y="620"/>
      <point x="286" y="608" type="curve" smooth="yes"/>
      <point x="274" y="584"/>
      <point x="266" y="550"/>
      <point x="260" y="514" type="curve" smooth="yes"/>
      <point x="187" y="130" type="line" smooth="yes"/>
      <point x="140" y="-116"/>
      <point x="-32" y="-217"/>
      <point x="-102" y="-226" type="curve"/>
      <point x="-106" y="-223"/>
      <point x="-109" y="-215"/>
      <point x="-109" y="-210" type="curve" smooth="yes"/>
      <point x="-109" y="-208"/>
      <point x="-108" y="-204"/>
      <point x="-108" y="-204" type="curve"/>
      <point x="0" y="-158"/>
      <point x="48" y="-57"/>
      <point x="82" y="122" type="curve" smooth="yes"/>
      <point x="156" y="512" type="line" smooth="yes"/>
      <point x="163" y="551"/>
      <point x="168" y="578"/>
      <point x="166" y="606" type="curve" smooth="yes"/>
      <point x="165" y="621"/>
      <point x="119" y="628"/>
      <point x="107" y="628" type="curve"/>
      <point x="105" y="632"/>
      <point x="110" y="655"/>
      <point x="114" y="660" type="curve"/>
      <point x="152" y="657"/>
      <point x="193" y="654"/>
    </contour>
  </outline>
</glyph>
<glyph name="N" format="1">
  <advance width="724"/>
  <unicode hex="004E"/>
  <outline>
    <contour>
      <point x="217" y="658" type="curve" smooth="yes"/>
      <point x="247" y="658"/>
      <point x="282" y="660"/>
      <point x="304" y="662" type="curve"/>
      <point x="330" y="583"/>
      <point x="468" y="361"/>
      <point x="547" y="207" type="curve"/>
      <point x="549" y="211"/>
      <point x="552" y="232"/>
      <point x="554" y="239" type="curve"/>
      <point x="607" y="510" type="line"/>
      <point x="614" y="547"/>
      <point x="622" y="593"/>
      <point x="617" y="609" type="curve" smooth="yes"/>
      <point x="613" y="623"/>
      <point x="561" y="630"/>
      <point x="548" y="630" type="curve"/>
      <point x="546" y="634"/>
      <point x="549" y="655"/>
      <point x="553" y="663" type="curve"/>
      <point x="593" y="661"/>
      <point x="620" y="656"/>
      <point x="662" y="656" type="curve" smooth="yes"/>
      <point x="704" y="656"/>
      <point x="733" y="661"/>
      <point x="773" y="663" type="curve"/>
      <point x="775" y="657"/>
      <point x="773" y="640"/>
      <point x="765" y="630" type="curve"/>
      <point x="756" y="630"/>
      <point x="696" y="624"/>
      <point x="686" y="608" type="curve" smooth="yes"/>
      <point x="677" y="594"/>
      <point x="665" y="549"/>
      <point x="658" y="512" type="curve" smooth="yes"/>
      <point x="586" y="139" type="line" smooth="yes"/>
      <point x="575" y="81"/>
      <point x="570" y="51"/>
      <point x="562" y="-1" type="curve"/>
      <point x="559" y="-4"/>
      <point x="544" y="-5"/>
      <point x="541" y="-5" type="curve" smooth="yes"/>
      <point x="533" y="-5"/>
      <point x="523" y="4"/>
      <point x="516" y="18" type="curve" smooth="yes"/>
      <point x="226" y="544" type="line"/>
      <point x="147" y="136" type="line" smooth="yes"/>
      <point x="140" y="100"/>
      <point x="136" y="68"/>
      <point x="140" y="53" type="curve" smooth="yes"/>
      <point x="144" y="39"/>
      <point x="199" y="30"/>
      <point x="210" y="30" type="curve"/>
      <point x="214" y="22"/>
      <point x="208" y="2"/>
      <point x="205" y="-4" type="curve"/>
      <point x="168" y="-2"/>
      <point x="135" y="3"/>
      <point x="94" y="3" type="curve" smooth="yes"/>
      <point x="51" y="3"/>
      <point x="28" y="-2"/>
      <point x="-15" y="-4" type="curve"/>
      <point x="-17" y="3"/>
      <point x="-12" y="23"/>
      <point x="-8" y="29" type="curve"/>
      <point x="3" y="29"/>
      <point x="59" y="37"/>
      <point x="69" y="52" type="curve" smooth="yes"/>
      <point x="79" y="67"/>
      <point x="89" y="99"/>
      <point x="96" y="137" type="curve"/>
      <point x="108" y="203"/>
      <point x="160" y="466"/>
      <point x="173" y="531" type="curve"/>
      <point x="182" y="577"/>
      <point x="181" y="593"/>
      <point x="175" y="610" type="curve" smooth="yes"/>
      <point x="170" y="622"/>
      <point x="123" y="630"/>
      <point x="112" y="630" type="curve"/>
      <point x="108" y="636"/>
      <point x="112" y="658"/>
      <point x="117" y="663" type="curve"/>
      <point x="152" y="661"/>
      <point x="180" y="658"/>
    </contour>
  </outline>
</glyph>
<glyph name="P" format="1">
  <advance width="533"/>
  <unicode hex="0050"/>
  <outline>
    <contour>
      <point x="549" y="490" type="curve" smooth="yes"/>
      <point x="537" y="362"/>
      <point x="420" y="282"/>
      <point x="312" y="282" type="curve" smooth="yes"/>
      <point x="285" y="282"/>
      <point x="269" y="290"/>
      <point x="264" y="296" type="curve" smooth="yes"/>
      <point x="261" y="299"/>
      <point x="257" y="309"/>
      <point x="257" y="314" type="curve" smooth="yes"/>
      <point x="257" y="318"/>
      <point x="260" y="322"/>
      <point x="262" y="322" type="curve"/>
      <point x="272" y="319"/>
      <point x="280" y="318"/>
      <point x="294" y="318" type="curve" smooth="yes"/>
      <point x="354" y="318"/>
      <point x="427" y="388"/>
      <point x="433" y="472" type="curve" smooth="yes"/>
      <point x="441" y="544"/>
      <point x="421" y="622"/>
      <point x="339" y="622" type="curve" smooth="yes"/>
      <point x="323" y="622"/>
      <point x="297" y="621"/>
      <point x="291" y="611" type="curve" smooth="yes"/>
      <point x="284" y="599"/>
      <point x="279" y="573"/>
      <point x="273" y="543" type="curve" smooth="yes"/>
      <point x="193" y="130" type="line" smooth="yes"/>
      <point x="186" y="94"/>
      <point x="180" y="64"/>
      <point x="183" y="46" type="curve" smooth="yes"/>
      <point x="185" y="34"/>
      <point x="229" y="29"/>
      <point x="241" y="29" type="curve"/>
      <point x="244" y="23"/>
      <point x="241" y="2"/>
      <point x="235" y="-4" type="curve"/>
      <point x="199" y="-1"/>
      <point x="153" y="2"/>
      <point x="115" y="2" type="curve" smooth="yes"/>
      <point x="78" y="2"/>
      <point x="31" y="-1"/>
      <point x="-7" y="-4" type="curve"/>
      <point x="-10" y="2"/>
      <point x="-5" y="23"/>
      <point x="-0" y="29" type="curve"/>
      <point x="12" y="29"/>
      <point x="59" y="34"/>
      <point x="65" y="46" type="curve" smooth="yes"/>
      <point x="75" y="64"/>
      <point x="80" y="94"/>
      <point x="87" y="130" type="curve" smooth="yes"/>
      <point x="165" y="528" type="line" smooth="yes"/>
      <point x="172" y="564"/>
      <point x="178" y="594"/>
      <point x="175" y="612" type="curve" smooth="yes"/>
      <point x="173" y="624"/>
      <point x="128" y="628"/>
      <point x="116" y="628" type="curve"/>
      <point x="113" y="634"/>
      <point x="117" y="655"/>
      <point x="123" y="661" type="curve"/>
      <point x="163" y="659"/>
      <point x="206" y="657"/>
      <point x="244" y="657" type="curve" smooth="yes"/>
      <point x="281" y="657"/>
      <point x="328" y="660"/>
      <point x="383" y="660" type="curve" smooth="yes"/>
      <point x="483" y="660"/>
      <point x="559" y="584"/>
    </contour>
  </outline>
</glyph>
<glyph name="R" format="1">
  <advance width="613"/>
  <unicode hex="0052"/>
  <outline>
    <contour>
      <point x="245" y="657" type="curve" smooth="yes"/>
      <point x="282" y="657"/>
      <point x="328" y="660"/>
      <point x="383" y="660" type="curve" smooth="yes"/>
      <point x="483" y="660"/>
      <point x="564" y="591"/>
      <point x="541" y="472" type="curve" smooth="yes"/>
      <point x="525" y="392"/>
      <point x="433" y="337"/>
      <point x="379" y="320" type="curve"/>
      <point x="419" y="227"/>
      <point x="437" y="186"/>
      <point x="481" y="108" type="curve" smooth="yes"/>
      <point x="519" y="46"/>
      <point x="566" y="29"/>
      <point x="598" y="27" type="curve"/>
      <point x="602" y="21"/>
      <point x="595" y="-2"/>
      <point x="594" y="-4" type="curve"/>
      <point x="550" y="-5"/>
      <point x="532" y="-4"/>
      <point x="504" y="0" type="curve" smooth="yes"/>
      <point x="422" y="2"/>
      <point x="391" y="44"/>
      <point x="375" y="76" type="curve" smooth="yes"/>
      <point x="370" y="86"/>
      <point x="297" y="238"/>
      <point x="277" y="287" type="curve" smooth="yes"/>
      <point x="275" y="291"/>
      <point x="267" y="300"/>
      <point x="257" y="300" type="curve"/>
      <point x="226" y="300" type="line"/>
      <point x="193" y="130" type="line" smooth="yes"/>
      <point x="186" y="94"/>
      <point x="180" y="64"/>
      <point x="183" y="46" type="curve" smooth="yes"/>
      <point x="185" y="34"/>
      <point x="229" y="29"/>
      <point x="241" y="29" type="curve"/>
      <point x="244" y="23"/>
      <point x="241" y="2"/>
      <point x="235" y="-4" type="curve"/>
      <point x="199" y="-1"/>
      <point x="153" y="2"/>
      <point x="115" y="2" type="curve" smooth="yes"/>
      <point x="78" y="2"/>
      <point x="31" y="-1"/>
      <point x="-7" y="-4" type="curve"/>
      <point x="-10" y="2"/>
      <point x="-5" y="23"/>
      <point x="-0" y="29" type="curve"/>
      <point x="12" y="29"/>
      <point x="59" y="34"/>
      <point x="65" y="46" type="curve" smooth="yes"/>
      <point x="75" y="64"/>
      <point x="80" y="94"/>
      <point x="87" y="130" type="curve" smooth="yes"/>
      <point x="165" y="528" type="line" smooth="yes"/>
      <point x="172" y="564"/>
      <point x="178" y="594"/>
      <point x="175" y="612" type="curve" smooth="yes"/>
      <point x="173" y="624"/>
      <point x="128" y="628"/>
      <point x="116" y="628" type="curve"/>
      <point x="113" y="634"/>
      <point x="117" y="655"/>
      <point x="123" y="661" type="curve"/>
      <point x="163" y="659"/>
      <point x="207" y="657"/>
    </contour>
    <contour>
      <point x="233" y="335" type="line"/>
      <point x="279" y="335" type="line"/>
      <point x="345" y="335"/>
      <point x="408" y="379"/>
      <point x="426" y="455" type="curve" smooth="yes"/>
      <point x="444" y="535"/>
      <point x="430" y="622"/>
      <point x="340" y="622" type="curve" smooth="yes"/>
      <point x="324" y="622"/>
      <point x="297" y="621"/>
      <point x="291" y="611" type="curve" smooth="yes"/>
      <point x="284" y="599"/>
      <point x="279" y="573"/>
      <point x="273" y="543" type="curve" smooth="yes"/>
    </contour>
  </outline>
</glyph>
<glyph name="T" format="1">
  <advance width="589"/>
  <unicode hex="0054"/>
  <outline>
    <contour>
      <point x="366" y="658" type="line"/>
      <point x="538" y="658" type="line"/>
      <point x="579" y="658"/>
      <point x="604" y="673"/>
      <point x="618" y="676" type="curve" smooth="yes"/>
      <point x="626" y="678"/>
      <point x="628" y="678"/>
      <point x="632" y="676" type="curve"/>
      <point x="630" y="646"/>
      <point x="622" y="524"/>
      <point x="622" y="498" type="curve"/>
      <point x="619" y="495"/>
      <point x="606" y="490"/>
      <point x="598" y="490" type="curve" smooth="yes"/>
      <point x="593" y="490"/>
      <point x="588" y="492"/>
      <point x="588" y="496" type="curve"/>
      <point x="590" y="564"/>
      <point x="564" y="618"/>
      <point x="518" y="618" type="curve" smooth="yes"/>
      <point x="416" y="618" type="line"/>
      <point x="321" y="130" type="line" smooth="yes"/>
      <point x="314" y="94"/>
      <point x="307" y="64"/>
      <point x="310" y="46" type="curve" smooth="yes"/>
      <point x="312" y="34"/>
      <point x="357" y="29"/>
      <point x="369" y="29" type="curve"/>
      <point x="372" y="23"/>
      <point x="369" y="2"/>
      <point x="363" y="-4" type="curve"/>
      <point x="327" y="-1"/>
      <point x="282" y="2"/>
      <point x="244" y="2" type="curve" smooth="yes"/>
      <point x="206" y="2"/>
      <point x="160" y="-1"/>
      <point x="122" y="-4" type="curve"/>
      <point x="118" y="2"/>
      <point x="122" y="23"/>
      <point x="128" y="29" type="curve"/>
      <point x="140" y="29"/>
      <point x="187" y="34"/>
      <point x="193" y="46" type="curve" smooth="yes"/>
      <point x="203" y="64"/>
      <point x="209" y="94"/>
      <point x="216" y="130" type="curve" smooth="yes"/>
      <point x="310" y="618" type="line"/>
      <point x="207" y="618" type="line" smooth="yes"/>
      <point x="161" y="618"/>
      <point x="113" y="564"/>
      <point x="89" y="496" type="curve" smooth="yes"/>
      <point x="87" y="492"/>
      <point x="82" y="490"/>
      <point x="77" y="490" type="curve" smooth="yes"/>
      <point x="69" y="490"/>
      <point x="58" y="495"/>
      <point x="56" y="498" type="curve"/>
      <point x="66" y="524"/>
      <point x="106" y="646"/>
      <point x="115" y="676" type="curve"/>
      <point x="120" y="678"/>
      <point x="125" y="678"/>
      <point x="131" y="676" type="curve" smooth="yes"/>
      <point x="145" y="673"/>
      <point x="161" y="658"/>
      <point x="202" y="658" type="curve"/>
    </contour>
  </outline>
</glyph>
<glyph name="U" format="1">
  <advance width="689"/>
  <unicode hex="0055"/>
  <outline>
    <contour>
      <point x="226" y="656" type="curve" smooth="yes"/>
      <point x="263" y="656"/>
      <point x="309" y="659"/>
      <point x="347" y="662" type="curve"/>
      <point x="351" y="656"/>
      <point x="347" y="635"/>
      <point x="341" y="629" type="curve"/>
      <point x="329" y="629"/>
      <point x="282" y="624"/>
      <point x="276" y="612" type="curve" smooth="yes"/>
      <point x="266" y="594"/>
      <point x="260" y="564"/>
      <point x="253" y="528" type="curve" smooth="yes"/>
      <point x="212" y="313" type="line" smooth="yes"/>
      <point x="198" y="240"/>
      <point x="194" y="186"/>
      <point x="209" y="140" type="curve" smooth="yes"/>
      <point x="228" y="74"/>
      <point x="283" y="59"/>
      <point x="331" y="59" type="curve" smooth="yes"/>
      <point x="416" y="59"/>
      <point x="507" y="118"/>
      <point x="542" y="292" type="curve"/>
      <point x="585" y="512" type="line" smooth="yes"/>
      <point x="593" y="552"/>
      <point x="597" y="590"/>
      <point x="592" y="608" type="curve" smooth="yes"/>
      <point x="588" y="622"/>
      <point x="542" y="630"/>
      <point x="528" y="630" type="curve"/>
      <point x="525" y="637"/>
      <point x="530" y="656"/>
      <point x="534" y="662" type="curve"/>
      <point x="574" y="659"/>
      <point x="600" y="656"/>
      <point x="642" y="656" type="curve" smooth="yes"/>
      <point x="684" y="656"/>
      <point x="707" y="660"/>
      <point x="748" y="662" type="curve"/>
      <point x="750" y="656"/>
      <point x="748" y="639"/>
      <point x="742" y="630" type="curve"/>
      <point x="730" y="630"/>
      <point x="676" y="624"/>
      <point x="666" y="608" type="curve" smooth="yes"/>
      <point x="655" y="590"/>
      <point x="644" y="553"/>
      <point x="636" y="513" type="curve" smooth="yes"/>
      <point x="591" y="281" type="line" smooth="yes"/>
      <point x="551" y="79"/>
      <point x="425" y="-6"/>
      <point x="285" y="-6" type="curve" smooth="yes"/>
      <point x="211" y="-6"/>
      <point x="150" y="21"/>
      <point x="117" y="74" type="curve" smooth="yes"/>
      <point x="88" y="120"/>
      <point x="81" y="186"/>
      <point x="99" y="276" type="curve" smooth="yes"/>
      <point x="148" y="528" type="line" smooth="yes"/>
      <point x="155" y="564"/>
      <point x="161" y="594"/>
      <point x="158" y="612" type="curve" smooth="yes"/>
      <point x="156" y="624"/>
      <point x="112" y="629"/>
      <point x="100" y="629" type="curve"/>
      <point x="97" y="635"/>
      <point x="100" y="656"/>
      <point x="106" y="662" type="curve"/>
      <point x="142" y="659"/>
      <point x="188" y="656"/>
    </contour>
  </outline>
</glyph>
<glyph name="V" format="1">
  <advance width="615"/>
  <unicode hex="0056"/>
  <outline>
    <contour>
      <point x="188" y="656" type="curve" smooth="yes"/>
      <point x="228" y="656"/>
      <point x="274" y="659"/>
      <point x="312" y="662" type="curve"/>
      <point x="314" y="656"/>
      <point x="310" y="633"/>
      <point x="305" y="629" type="curve"/>
      <point x="295" y="629"/>
      <point x="248" y="625"/>
      <point x="243" y="599" type="curve" smooth="yes"/>
      <point x="240" y="586"/>
      <point x="243" y="558"/>
      <point x="248" y="526" type="curve" smooth="yes"/>
      <point x="268" y="415"/>
      <point x="313" y="160"/>
      <point x="314" y="160" type="curve"/>
      <point x="315" y="160"/>
      <point x="512" y="508"/>
      <point x="520" y="522" type="curve"/>
      <point x="533" y="546"/>
      <point x="549" y="578"/>
      <point x="553" y="598" type="curve" smooth="yes"/>
      <point x="557" y="623"/>
      <point x="504" y="629"/>
      <point x="492" y="629" type="curve"/>
      <point x="488" y="633"/>
      <point x="492" y="656"/>
      <point x="498" y="662" type="curve"/>
      <point x="536" y="659"/>
      <point x="564" y="656"/>
      <point x="602" y="656" type="curve" smooth="yes"/>
      <point x="644" y="656"/>
      <point x="662" y="660"/>
      <point x="700" y="662" type="curve"/>
      <point x="702" y="656"/>
      <point x="697" y="633"/>
      <point x="693" y="629" type="curve"/>
      <point x="683" y="629"/>
      <point x="644" y="625"/>
      <point x="627" y="607" type="curve" smooth="yes"/>
      <point x="611" y="590"/>
      <point x="586" y="551"/>
      <point x="566" y="515" type="curve"/>
      <point x="509" y="415"/>
      <point x="340" y="123"/>
      <point x="286" y="31" type="curve"/>
      <point x="273" y="9"/>
      <point x="250" y="-6"/>
      <point x="238" y="-6" type="curve" smooth="yes"/>
      <point x="232" y="-6"/>
      <point x="232" y="2"/>
      <point x="230" y="8" type="curve"/>
      <point x="216" y="97"/>
      <point x="155" y="416"/>
      <point x="139" y="512" type="curve"/>
      <point x="133" y="546"/>
      <point x="126" y="578"/>
      <point x="118" y="601" type="curve" smooth="yes"/>
      <point x="112" y="622"/>
      <point x="74" y="629"/>
      <point x="62" y="629" type="curve"/>
      <point x="60" y="633"/>
      <point x="65" y="658"/>
      <point x="69" y="662" type="curve"/>
      <point x="108" y="659"/>
      <point x="147" y="656"/>
    </contour>
  </outline>
</glyph>
<glyph name="Y" format="1">
  <advance width="566"/>
  <unicode hex="0059"/>
  <outline>
    <contour>
      <point x="201" y="130" type="curve" smooth="yes"/>
      <point x="229" y="276" type="line"/>
      <point x="230" y="283"/>
      <point x="229" y="291"/>
      <point x="227" y="300" type="curve"/>
      <point x="221" y="328"/>
      <point x="150" y="542"/>
      <point x="150" y="542" type="curve" smooth="yes"/>
      <point x="139" y="574"/>
      <point x="132" y="586"/>
      <point x="117" y="604" type="curve" smooth="yes"/>
      <point x="105" y="622"/>
      <point x="76" y="629"/>
      <point x="64" y="629" type="curve"/>
      <point x="60" y="633"/>
      <point x="65" y="656"/>
      <point x="71" y="662" type="curve"/>
      <point x="111" y="659"/>
      <point x="152" y="656"/>
      <point x="194" y="656" type="curve" smooth="yes"/>
      <point x="236" y="656"/>
      <point x="282" y="659"/>
      <point x="320" y="662" type="curve"/>
      <point x="322" y="656"/>
      <point x="319" y="633"/>
      <point x="313" y="629" type="curve"/>
      <point x="301" y="629"/>
      <point x="256" y="626"/>
      <point x="251" y="600" type="curve" smooth="yes"/>
      <point x="249" y="594"/>
      <point x="253" y="586"/>
      <point x="256" y="576" type="curve" smooth="yes"/>
      <point x="330" y="346" type="line"/>
      <point x="364" y="388"/>
      <point x="461" y="530"/>
      <point x="497" y="585" type="curve" smooth="yes"/>
      <point x="501" y="591"/>
      <point x="503" y="598"/>
      <point x="504" y="604" type="curve" smooth="yes"/>
      <point x="506" y="616"/>
      <point x="473" y="628"/>
      <point x="441" y="628" type="curve"/>
      <point x="438" y="633"/>
      <point x="442" y="657"/>
      <point x="446" y="662" type="curve"/>
      <point x="484" y="659"/>
      <point x="506" y="656"/>
      <point x="545" y="656" type="curve" smooth="yes"/>
      <point x="589" y="656"/>
      <point x="612" y="660"/>
      <point x="650" y="662" type="curve"/>
      <point x="652" y="658"/>
      <point x="646" y="632"/>
      <point x="642" y="628" type="curve"/>
      <point x="632" y="628"/>
      <point x="585" y="628"/>
      <point x="561" y="596" type="curve"/>
      <point x="549" y="582"/>
      <point x="363" y="330"/>
      <point x="344" y="300" type="curve"/>
      <point x="338" y="291"/>
      <point x="337" y="282"/>
      <point x="335" y="274" type="curve"/>
      <point x="306" y="130" type="line" smooth="yes"/>
      <point x="298" y="94"/>
      <point x="293" y="64"/>
      <point x="296" y="46" type="curve" smooth="yes"/>
      <point x="298" y="34"/>
      <point x="342" y="29"/>
      <point x="354" y="29" type="curve"/>
      <point x="357" y="23"/>
      <point x="354" y="2"/>
      <point x="348" y="-4" type="curve"/>
      <point x="312" y="-1"/>
      <point x="266" y="2"/>
      <point x="228" y="2" type="curve" smooth="yes"/>
      <point x="190" y="2"/>
      <point x="145" y="-1"/>
      <point x="107" y="-4" type="curve"/>
      <point x="103" y="2"/>
      <point x="107" y="23"/>
      <point x="113" y="29" type="curve"/>
      <point x="125" y="29"/>
      <point x="172" y="34"/>
      <point x="178" y="46" type="curve" smooth="yes"/>
      <point x="188" y="64"/>
      <point x="193" y="94"/>
    </contour>
  </outline>
</glyph>
<glyph name="bracketleft" format="1">
  <advance width="263"/>
  <unicode hex="005B"/>
  <outline>
    <contour>
      <point x="167" y="734" type="curve" smooth="yes"/>
      <point x="168" y="737"/>
      <point x="173" y="749"/>
      <point x="183" y="749" type="curve" smooth="yes"/>
      <point x="247" y="749"/>
      <point x="314" y="755"/>
      <point x="340" y="757" type="curve"/>
      <point x="342" y="755"/>
      <point x="344" y="754"/>
      <point x="344" y="748" type="curve" smooth="yes"/>
      <point x="344" y="732"/>
      <point x="328" y="719"/>
      <point x="323" y="717" type="curve"/>
      <point x="307" y="710"/>
      <point x="258" y="702"/>
      <point x="224" y="701" type="curve" smooth="yes"/>
      <point x="219" y="701"/>
      <point x="218" y="696"/>
      <point x="217" y="694" type="curve"/>
      <point x="70" y="-52" type="line"/>
      <point x="70" y="-54"/>
      <point x="70" y="-59"/>
      <point x="75" y="-60" type="curve" smooth="yes"/>
      <point x="103" y="-64"/>
      <point x="147" y="-75"/>
      <point x="168" y="-88" type="curve" smooth="yes"/>
      <point x="173" y="-91"/>
      <point x="183" y="-101"/>
      <point x="183" y="-109" type="curve" smooth="yes"/>
      <point x="183" y="-119"/>
      <point x="177" y="-124"/>
      <point x="175" y="-126" type="curve"/>
      <point x="141" y="-120"/>
      <point x="63" y="-104"/>
      <point x="13" y="-104" type="curve" smooth="yes"/>
      <point x="9" y="-104"/>
      <point x="5" y="-100"/>
      <point x="6" y="-94" type="curve"/>
      <point x="33" y="45"/>
      <point x="167" y="734"/>
    </contour>
  </outline>
</glyph>
<glyph name="backslash" format="1">
  <advance width="378"/>
  <unicode hex="005C"/>
  <outline>
    <contour>
      <point x="297" y="-4" type="line" smooth="yes"/>
      <point x="300" y="-20"/>
      <point x="278" y="-40"/>
      <point x="267" y="-40" type="curve" smooth="yes"/>
      <point x="263" y="-40"/>
      <point x="259" y="-40"/>
      <point x="255" y="-37" type="curve"/>
      <point x="203" y="269"/>
      <point x="119" y="755"/>
      <point x="119" y="755" type="curve"/>
      <point x="121" y="758"/>
      <point x="127" y="762"/>
      <point x="133" y="762" type="curve" smooth="yes"/>
      <point x="154" y="762"/>
      <point x="170" y="735"/>
      <point x="172" y="725" type="curve" smooth="yes"/>
    </contour>
  </outline>
</glyph>
<glyph name="bracketright" format="1">
  <advance width="256"/>
  <unicode hex="005D"/>
  <outline>
    <contour>
      <point x="104" y="757" type="curve"/>
      <point x="122" y="755"/>
      <point x="193" y="748"/>
      <point x="260" y="748" type="curve" smooth="yes"/>
      <point x="270" y="748"/>
      <point x="271" y="741"/>
      <point x="271" y="735" type="curve" smooth="yes"/>
      <point x="271" y="729"/>
      <point x="188" y="312"/>
      <point x="188" y="310" type="curve" smooth="yes"/>
      <point x="188" y="310"/>
      <point x="110" y="-92"/>
      <point x="106" y="-92" type="curve"/>
      <point x="74" y="-96"/>
      <point x="46" y="-112"/>
      <point x="18" y="-118" type="curve"/>
      <point x="-21" y="-118"/>
      <point x="-59" y="-120"/>
      <point x="-59" y="-116" type="curve"/>
      <point x="-59" y="-110"/>
      <point x="-53" y="-104"/>
      <point x="-48" y="-98" type="curve" smooth="yes"/>
      <point x="-36" y="-84"/>
      <point x="-10" y="-72"/>
      <point x="6" y="-66" type="curve"/>
      <point x="20" y="-61"/>
      <point x="38" y="-54"/>
      <point x="58" y="-52" type="curve"/>
      <point x="61" y="-52"/>
      <point x="136" y="324"/>
      <point x="136" y="324" type="curve"/>
      <point x="136" y="326"/>
      <point x="207" y="696"/>
      <point x="204" y="696" type="curve"/>
      <point x="192" y="698"/>
      <point x="170" y="706"/>
      <point x="154" y="712" type="curve"/>
      <point x="124" y="715"/>
      <point x="101" y="726"/>
      <point x="101" y="730" type="curve"/>
      <point x="100" y="735"/>
      <point x="95" y="730"/>
      <point x="95" y="742" type="curve" smooth="yes"/>
      <point x="95" y="750"/>
      <point x="101" y="757"/>
    </contour>
  </outline>
</glyph>
<glyph name="asciicircum" format="1">
  <advance width="313"/>
  <unicode hex="005E"/>
  <outline>
    <contour>
      <point x="17" y="499" type="curve"/>
      <point x="25" y="513"/>
      <point x="108" y="566"/>
      <point x="178" y="677" type="curve" smooth="yes"/>
      <point x="184" y="687"/>
      <point x="183" y="690"/>
      <point x="190" y="690" type="curve" smooth="yes"/>
      <point x="212" y="690"/>
      <point x="201" y="669"/>
      <point x="241" y="588" type="curve" smooth="yes"/>
      <point x="257" y="558"/>
      <point x="299" y="505"/>
      <point x="300" y="500" type="curve"/>
      <point x="298" y="494"/>
      <point x="289" y="472"/>
      <point x="282" y="472" type="curve" smooth="yes"/>
      <point x="264" y="472"/>
      <point x="201" y="545"/>
      <point x="175" y="590" type="curve"/>
      <point x="125" y="533"/>
      <point x="37" y="472"/>
      <point x="24" y="472" type="curve" smooth="yes"/>
      <point x="17" y="472"/>
      <point x="17" y="488"/>
    </contour>
  </outline>
</glyph>
<glyph name="grave" format="1">
  <advance width="169"/>
  <unicode hex="0060"/>
  <outline>
    <contour>
      <point x="21" y="656" type="curve" smooth="yes"/>
      <point x="21" y="666"/>
      <point x="32" y="686"/>
      <point x="66" y="686" type="curve" smooth="yes"/>
      <point x="80" y="686"/>
      <point x="92" y="683"/>
      <point x="96" y="678" type="curve" smooth="yes"/>
      <point x="122" y="636"/>
      <point x="156" y="545"/>
      <point x="156" y="541" type="curve"/>
      <point x="156" y="535"/>
      <point x="147" y="524"/>
      <point x="140" y="524" type="curve" smooth="yes"/>
      <point x="131" y="524"/>
      <point x="21" y="615"/>
    </contour>
  </outline>
</glyph>
<glyph name="a" format="1">
  <advance width="469"/>
  <unicode hex="0061"/>
  <outline>
    <contour>
      <point x="312" y="442" type="curve" smooth="yes"/>
      <point x="348" y="442"/>
      <point x="384" y="433"/>
      <point x="404" y="426" type="curve"/>
      <point x="342" y="119" type="line" smooth="yes"/>
      <point x="341" y="115"/>
      <point x="338" y="91"/>
      <point x="338" y="86" type="curve" smooth="yes"/>
      <point x="338" y="77"/>
      <point x="340" y="63"/>
      <point x="350" y="63" type="curve" smooth="yes"/>
      <point x="372" y="63"/>
      <point x="418" y="119"/>
      <point x="421" y="123" type="curve"/>
      <point x="426" y="123"/>
      <point x="433" y="106"/>
      <point x="433" y="100" type="curve"/>
      <point x="419" y="74"/>
      <point x="338" y="-7"/>
      <point x="288" y="-7" type="curve" smooth="yes"/>
      <point x="260" y="-7"/>
      <point x="240" y="15"/>
      <point x="240" y="52" type="curve" smooth="yes"/>
      <point x="240" y="58"/>
      <point x="242" y="74"/>
      <point x="244" y="88" type="curve" smooth="yes"/>
      <point x="246" y="101"/>
      <point x="248" y="107"/>
      <point x="249" y="113" type="curve"/>
      <point x="229" y="77"/>
      <point x="161" y="-6"/>
      <point x="102" y="-6" type="curve" smooth="yes"/>
      <point x="47" y="-6"/>
      <point x="15" y="45"/>
      <point x="15" y="114" type="curve" smooth="yes"/>
      <point x="15" y="290"/>
      <point x="188" y="442"/>
    </contour>
    <contour>
      <point x="260" y="394" type="curve" smooth="yes"/>
      <point x="188" y="394"/>
      <point x="115" y="268"/>
      <point x="115" y="152" type="curve" smooth="yes"/>
      <point x="115" y="97"/>
      <point x="130" y="67"/>
      <point x="158" y="67" type="curve" smooth="yes"/>
      <point x="200" y="67"/>
      <point x="260" y="180"/>
      <point x="280" y="278" type="curve" smooth="yes"/>
      <point x="301" y="381" type="line"/>
      <point x="293" y="390"/>
      <point x="274" y="394"/>
    </contour>
  </outline>
</glyph>
<glyph name="b" format="1">
  <advance width="447"/>
  <unicode hex="0062"/>
  <outline>
    <contour>
      <point x="278" y="370" type="curve" smooth="yes"/>
      <point x="234" y="370"/>
      <point x="157" y="261"/>
      <point x="138" y="162" type="curve" smooth="yes"/>
      <point x="124" y="94"/>
      <point x="132" y="33"/>
      <point x="174" y="33" type="curve" smooth="yes"/>
      <point x="248" y="33"/>
      <point x="311" y="214"/>
      <point x="311" y="302" type="curve" smooth="yes"/>
      <point x="311" y="333"/>
      <point x="308" y="370"/>
    </contour>
    <contour>
      <point x="166" y="310" type="line"/>
      <point x="215" y="390"/>
      <point x="292" y="442"/>
      <point x="332" y="442" type="curve" smooth="yes"/>
      <point x="383" y="442"/>
      <point x="413" y="401"/>
      <point x="413" y="330" type="curve" smooth="yes"/>
      <point x="413" y="146"/>
      <point x="254" y="-6"/>
      <point x="144" y="-6" type="curve" smooth="yes"/>
      <point x="84" y="-6"/>
      <point x="39" y="37"/>
      <point x="39" y="109" type="curve" smooth="yes"/>
      <point x="39" y="121"/>
      <point x="43" y="147"/>
      <point x="45" y="160" type="curve" smooth="yes"/>
      <point x="124" y="560" type="line" smooth="yes"/>
      <point x="128" y="578"/>
      <point x="132" y="601"/>
      <point x="132" y="612" type="curve" smooth="yes"/>
      <point x="132" y="631"/>
      <point x="88" y="632"/>
      <point x="72" y="632" type="curve"/>
      <point x="69" y="636"/>
      <point x="72" y="653"/>
      <point x="76" y="657" type="curve"/>
      <point x="131" y="662"/>
      <point x="210" y="682"/>
      <point x="232" y="690" type="curve"/>
      <point x="237" y="687"/>
      <point x="237" y="678"/>
      <point x="237" y="672" type="curve" smooth="yes"/>
      <point x="237" y="664"/>
      <point x="229" y="620"/>
      <point x="224" y="596" type="curve" smooth="yes"/>
    </contour>
  </outline>
</glyph>
<glyph name="e" format="1">
  <advance width="379"/>
  <unicode hex="0065"/>
  <outline>
    <contour>
      <point x="272" y="442" type="curve" smooth="yes"/>
      <point x="323" y="442"/>
      <point x="360" y="415"/>
      <point x="360" y="365" type="curve" smooth="yes"/>
      <point x="360" y="265"/>
      <point x="185" y="190"/>
      <point x="123" y="190" type="curve"/>
      <point x="122" y="187"/>
      <point x="121" y="167"/>
      <point x="121" y="162" type="curve" smooth="yes"/>
      <point x="121" y="113"/>
      <point x="136" y="65"/>
      <point x="186" y="65" type="curve" smooth="yes"/>
      <point x="231" y="65"/>
      <point x="285" y="129"/>
      <point x="288" y="132" type="curve"/>
      <point x="294" y="132"/>
      <point x="302" y="113"/>
      <point x="302" y="107" type="curve"/>
      <point x="289" y="85"/>
      <point x="195" y="-6"/>
      <point x="132" y="-6" type="curve" smooth="yes"/>
      <point x="61" y="-6"/>
      <point x="20" y="47"/>
      <point x="20" y="140" type="curve" smooth="yes"/>
      <point x="20" y="288"/>
      <point x="157" y="442"/>
    </contour>
    <contour>
      <point x="126" y="222" type="curve"/>
      <point x="165" y="222"/>
      <point x="264" y="290"/>
      <point x="264" y="364" type="curve" smooth="yes"/>
      <point x="264" y="386"/>
      <point x="250" y="403"/>
      <point x="230" y="403" type="curve" smooth="yes"/>
      <point x="172" y="403"/>
      <point x="131" y="273"/>
    </contour>
  </outline>
</glyph>
<glyph name="g" format="1">
  <advance width="427"/>
  <unicode hex="0067"/>
  <outline>
    <contour>
      <point x="276" y="-116" type="curve" smooth="yes"/>
      <point x="276" y="-64"/>
      <point x="180" y="-28"/>
      <point x="122" y="-10" type="curve"/>
      <point x="84" y="-28"/>
      <point x="42" y="-53"/>
      <point x="42" y="-97" type="curve" smooth="yes"/>
      <point x="42" y="-159"/>
      <point x="101" y="-187"/>
      <point x="170" y="-187" type="curve" smooth="yes"/>
      <point x="221" y="-187"/>
      <point x="276" y="-159"/>
    </contour>
    <contour>
      <point x="223" y="411" type="curve" smooth="yes"/>
      <point x="167" y="412"/>
      <point x="136" y="330"/>
      <point x="134" y="262" type="curve" smooth="yes"/>
      <point x="133" y="214"/>
      <point x="147" y="166"/>
      <point x="187" y="165" type="curve" smooth="yes"/>
      <point x="238" y="164"/>
      <point x="275" y="237"/>
      <point x="276" y="298" type="curve" smooth="yes"/>
      <point x="277" y="346"/>
      <point x="262" y="410"/>
    </contour>
    <contour>
      <point x="348" y="388" type="curve"/>
      <point x="350" y="382"/>
      <point x="369" y="349"/>
      <point x="369" y="310" type="curve" smooth="yes"/>
      <point x="369" y="210"/>
      <point x="288" y="158"/>
      <point x="254" y="142" type="curve" smooth="yes"/>
      <point x="222" y="126"/>
      <point x="164" y="116"/>
      <point x="164" y="94" type="curve" smooth="yes"/>
      <point x="164" y="62"/>
      <point x="360" y="49"/>
      <point x="360" y="-59" type="curve" smooth="yes"/>
      <point x="360" y="-154"/>
      <point x="258" y="-230"/>
      <point x="114" y="-230" type="curve" smooth="yes"/>
      <point x="14" y="-230"/>
      <point x="-53" y="-185"/>
      <point x="-53" y="-122" type="curve" smooth="yes"/>
      <point x="-53" y="-52"/>
      <point x="33" y="-17"/>
      <point x="87" y="5" type="curve"/>
      <point x="87" y="5"/>
      <point x="60" y="19"/>
      <point x="56" y="23" type="curve"/>
      <point x="46" y="31"/>
      <point x="36" y="37"/>
      <point x="36" y="55" type="curve" smooth="yes"/>
      <point x="36" y="80"/>
      <point x="118" y="123"/>
      <point x="158" y="133" type="curve"/>
      <point x="111" y="141"/>
      <point x="40" y="179"/>
      <point x="40" y="258" type="curve" smooth="yes"/>
      <point x="40" y="364"/>
      <point x="130" y="447"/>
      <point x="226" y="447" type="curve"/>
      <point x="264" y="447"/>
      <point x="291" y="436"/>
      <point x="316" y="424" type="curve" smooth="yes"/>
      <point x="328" y="418"/>
      <point x="377" y="437"/>
      <point x="390" y="439" type="curve"/>
      <point x="403" y="435"/>
      <point x="436" y="415"/>
      <point x="436" y="403" type="curve" smooth="yes"/>
      <point x="436" y="396"/>
      <point x="430" y="387"/>
      <point x="422" y="387" type="curve" smooth="yes"/>
      <point x="408" y="387"/>
      <point x="361" y="388"/>
    </contour>
  </outline>
</glyph>
<glyph name="i" format="1">
  <advance width="286"/>
  <unicode hex="0069"/>
  <outline>
    <contour>
      <point x="108" y="316" type="line" smooth="yes"/>
      <point x="109" y="321"/>
      <point x="112" y="343"/>
      <point x="112" y="348" type="curve" smooth="yes"/>
      <point x="112" y="357"/>
      <point x="110" y="372"/>
      <point x="100" y="372" type="curve" smooth="yes"/>
      <point x="78" y="372"/>
      <point x="32" y="316"/>
      <point x="29" y="312" type="curve"/>
      <point x="24" y="312"/>
      <point x="17" y="329"/>
      <point x="17" y="335" type="curve"/>
      <point x="31" y="361"/>
      <point x="108" y="442"/>
      <point x="158" y="442" type="curve" smooth="yes"/>
      <point x="188" y="442"/>
      <point x="210" y="418"/>
      <point x="210" y="380" type="curve" smooth="yes"/>
      <point x="210" y="369"/>
      <point x="205" y="340"/>
      <point x="202" y="324" type="curve"/>
      <point x="158" y="119" type="line" smooth="yes"/>
      <point x="156" y="112"/>
      <point x="155" y="91"/>
      <point x="155" y="86" type="curve" smooth="yes"/>
      <point x="155" y="77"/>
      <point x="156" y="63"/>
      <point x="166" y="63" type="curve" smooth="yes"/>
      <point x="188" y="63"/>
      <point x="234" y="119"/>
      <point x="237" y="123" type="curve"/>
      <point x="242" y="123"/>
      <point x="249" y="106"/>
      <point x="249" y="100" type="curve"/>
      <point x="235" y="74"/>
      <point x="154" y="-7"/>
      <point x="104" y="-7" type="curve" smooth="yes"/>
      <point x="77" y="-7"/>
      <point x="56" y="14"/>
      <point x="56" y="54" type="curve" smooth="yes"/>
      <point x="56" y="65"/>
      <point x="61" y="97"/>
      <point x="64" y="111" type="curve"/>
    </contour>
    <contour>
      <point x="190" y="667" type="curve" smooth="yes"/>
      <point x="218" y="667"/>
      <point x="236" y="644"/>
      <point x="236" y="616" type="curve" smooth="yes"/>
      <point x="236" y="578"/>
      <point x="206" y="543"/>
      <point x="170" y="543" type="curve" smooth="yes"/>
      <point x="142" y="543"/>
      <point x="124" y="568"/>
      <point x="124" y="596" type="curve" smooth="yes"/>
      <point x="124" y="633"/>
      <point x="154" y="667"/>
    </contour>
  </outline>
</glyph>
<glyph name="j" format="1">
  <advance width="268"/>
  <unicode hex="006A"/>
  <outline>
    <contour>
      <point x="116" y="316" type="line" smooth="yes"/>
      <point x="117" y="321"/>
      <point x="120" y="343"/>
      <point x="120" y="348" type="curve" smooth="yes"/>
      <point x="120" y="357"/>
      <point x="118" y="372"/>
      <point x="108" y="372" type="curve" smooth="yes"/>
      <point x="86" y="372"/>
      <point x="41" y="316"/>
      <point x="38" y="312" type="curve"/>
      <point x="33" y="312"/>
      <point x="26" y="329"/>
      <point x="26" y="335" type="curve"/>
      <point x="40" y="361"/>
      <point x="116" y="442"/>
      <point x="166" y="442" type="curve" smooth="yes"/>
      <point x="196" y="442"/>
      <point x="218" y="418"/>
      <point x="218" y="380" type="curve" smooth="yes"/>
      <point x="218" y="369"/>
      <point x="214" y="340"/>
      <point x="211" y="324" type="curve"/>
      <point x="211" y="324"/>
      <point x="172" y="120"/>
      <point x="164" y="82" type="curve"/>
      <point x="152" y="22"/>
      <point x="128" y="-44"/>
      <point x="86" y="-100" type="curve" smooth="yes"/>
      <point x="44" y="-156"/>
      <point x="-46" y="-215"/>
      <point x="-78" y="-226" type="curve"/>
      <point x="-82" y="-224"/>
      <point x="-87" y="-213"/>
      <point x="-87" y="-205" type="curve"/>
      <point x="-1" y="-145"/>
      <point x="40" y="-69"/>
      <point x="66" y="61" type="curve"/>
    </contour>
    <contour>
      <point x="210" y="668" type="curve" smooth="yes"/>
      <point x="238" y="668"/>
      <point x="257" y="644"/>
      <point x="257" y="616" type="curve" smooth="yes"/>
      <point x="257" y="578"/>
      <point x="227" y="544"/>
      <point x="191" y="544" type="curve" smooth="yes"/>
      <point x="163" y="544"/>
      <point x="145" y="568"/>
      <point x="145" y="596" type="curve" smooth="yes"/>
      <point x="145" y="633"/>
      <point x="174" y="668"/>
    </contour>
  </outline>
</glyph>
<glyph name="k" format="1">
  <advance width="481"/>
  <unicode hex="006B"/>
  <outline>
    <contour>
      <point x="350" y="442" type="curve"/>
      <point x="398" y="442"/>
      <point x="429" y="414"/>
      <point x="429" y="372" type="curve" smooth="yes"/>
      <point x="429" y="294"/>
      <point x="330" y="242"/>
      <point x="237" y="220" type="curve"/>
      <point x="289" y="130"/>
      <point x="326" y="66"/>
      <point x="368" y="66" type="curve" smooth="yes"/>
      <point x="388" y="66"/>
      <point x="426" y="110"/>
      <point x="436" y="122" type="curve"/>
      <point x="442" y="122"/>
      <point x="448" y="105"/>
      <point x="448" y="100" type="curve"/>
      <point x="439" y="80"/>
      <point x="363" y="-4"/>
      <point x="311" y="-4" type="curve" smooth="yes"/>
      <point x="233" y="-4"/>
      <point x="182" y="128"/>
      <point x="150" y="200" type="curve"/>
      <point x="142" y="162"/>
      <point x="111" y="0"/>
      <point x="111" y="0" type="curve"/>
      <point x="101" y="-3"/>
      <point x="77" y="-6"/>
      <point x="66" y="-6" type="curve" smooth="yes"/>
      <point x="55" y="-6"/>
      <point x="30" y="-3"/>
      <point x="18" y="0" type="curve"/>
      <point x="21" y="16"/>
      <point x="126" y="557"/>
      <point x="126" y="560" type="curve"/>
      <point x="130" y="578"/>
      <point x="135" y="601"/>
      <point x="135" y="612" type="curve" smooth="yes"/>
      <point x="135" y="631"/>
      <point x="90" y="632"/>
      <point x="74" y="632" type="curve"/>
      <point x="71" y="636"/>
      <point x="74" y="653"/>
      <point x="78" y="657" type="curve"/>
      <point x="133" y="662"/>
      <point x="212" y="682"/>
      <point x="234" y="690" type="curve"/>
      <point x="239" y="687"/>
      <point x="240" y="678"/>
      <point x="240" y="672" type="curve" smooth="yes"/>
      <point x="240" y="664"/>
      <point x="231" y="616"/>
      <point x="227" y="596" type="curve" smooth="yes"/>
      <point x="176" y="332" type="line"/>
      <point x="184" y="347"/>
      <point x="265" y="442"/>
    </contour>
    <contour>
      <point x="294" y="381" type="curve"/>
      <point x="236" y="381"/>
      <point x="164" y="281"/>
      <point x="158" y="239" type="curve"/>
      <point x="222" y="239"/>
      <point x="325" y="280"/>
      <point x="325" y="348" type="curve"/>
      <point x="325" y="362"/>
      <point x="320" y="381"/>
    </contour>
  </outline>
</glyph>
<glyph name="o" format="1">
  <advance width="435"/>
  <unicode hex="006F"/>
  <outline>
    <contour>
      <point x="250" y="406" type="curve" smooth="yes"/>
      <point x="170" y="406"/>
      <point x="122" y="247"/>
      <point x="122" y="142" type="curve" smooth="yes"/>
      <point x="122" y="90"/>
      <point x="132" y="30"/>
      <point x="167" y="30" type="curve" smooth="yes"/>
      <point x="246" y="30"/>
      <point x="294" y="190"/>
      <point x="294" y="292" type="curve" smooth="yes"/>
      <point x="294" y="348"/>
      <point x="285" y="406"/>
    </contour>
    <contour>
      <point x="262" y="442" type="curve" smooth="yes"/>
      <point x="344" y="442"/>
      <point x="396" y="394"/>
      <point x="396" y="292" type="curve" smooth="yes"/>
      <point x="396" y="150"/>
      <point x="268" y="-6"/>
      <point x="150" y="-6" type="curve" smooth="yes"/>
      <point x="68" y="-6"/>
      <point x="20" y="49"/>
      <point x="20" y="140" type="curve" smooth="yes"/>
      <point x="20" y="282"/>
      <point x="144" y="442"/>
    </contour>
  </outline>
</glyph>
<glyph name="p" format="1">
  <advance width="474"/>
  <unicode hex="0070"/>
  <outline>
    <contour>
      <point x="292" y="372" type="curve" smooth="yes"/>
      <point x="260" y="372"/>
      <point x="216" y="342"/>
      <point x="192" y="312" type="curve"/>
      <point x="190" y="298"/>
      <point x="158" y="140"/>
      <point x="158" y="140" type="curve" smooth="yes"/>
      <point x="145" y="72"/>
      <point x="165" y="35"/>
      <point x="193" y="35" type="curve" smooth="yes"/>
      <point x="271" y="35"/>
      <point x="338" y="199"/>
      <point x="338" y="301" type="curve" smooth="yes"/>
      <point x="338" y="345"/>
      <point x="324" y="372"/>
    </contour>
    <contour>
      <point x="347" y="442" type="curve" smooth="yes"/>
      <point x="411" y="442"/>
      <point x="440" y="391"/>
      <point x="440" y="321" type="curve" smooth="yes"/>
      <point x="440" y="159"/>
      <point x="290" y="-5"/>
      <point x="168" y="-5" type="curve" smooth="yes"/>
      <point x="156" y="-5"/>
      <point x="140" y="-3"/>
      <point x="132" y="4" type="curve"/>
      <point x="102" y="-136" type="line" smooth="yes"/>
      <point x="100" y="-145"/>
      <point x="99" y="-154"/>
      <point x="99" y="-164" type="curve" smooth="yes"/>
      <point x="99" y="-169"/>
      <point x="103" y="-183"/>
      <point x="113" y="-186" type="curve" smooth="yes"/>
      <point x="130" y="-190"/>
      <point x="157" y="-190"/>
      <point x="160" y="-190" type="curve" smooth="yes"/>
      <point x="164" y="-191"/>
      <point x="162" y="-217"/>
      <point x="157" y="-219" type="curve"/>
      <point x="144" y="-219"/>
      <point x="133" y="-218"/>
      <point x="122" y="-218" type="curve" smooth="yes"/>
      <point x="71" y="-218"/>
      <point x="7" y="-220"/>
      <point x="-51" y="-227" type="curve"/>
      <point x="-56" y="-226"/>
      <point x="-54" y="-200"/>
      <point x="-49" y="-197" type="curve"/>
      <point x="-31" y="-197"/>
      <point x="-18" y="-191"/>
      <point x="-9" y="-180" type="curve" smooth="yes"/>
      <point x="-2" y="-171"/>
      <point x="2" y="-161"/>
      <point x="7" y="-138" type="curve" smooth="yes"/>
      <point x="84" y="241" type="line"/>
      <point x="36" y="193" type="line"/>
      <point x="32" y="198"/>
      <point x="29" y="210"/>
      <point x="29" y="216" type="curve" smooth="yes"/>
      <point x="29" y="224"/>
      <point x="34" y="231"/>
      <point x="38" y="234" type="curve" smooth="yes"/>
      <point x="93" y="290" type="line"/>
      <point x="121" y="438" type="line"/>
      <point x="132" y="441"/>
      <point x="160" y="443"/>
      <point x="171" y="443" type="curve" smooth="yes"/>
      <point x="182" y="443"/>
      <point x="206" y="441"/>
      <point x="216" y="436" type="curve"/>
      <point x="212" y="418"/>
      <point x="203" y="368"/>
      <point x="201" y="360" type="curve"/>
      <point x="229" y="388"/>
      <point x="296" y="442"/>
    </contour>
  </outline>
</glyph>
<glyph name="q" format="1">
  <advance width="440"/>
  <unicode hex="0071"/>
  <outline>
    <contour>
      <point x="337" y="-220" type="curve"/>
      <point x="323" y="-220"/>
      <point x="289" y="-218"/>
      <point x="276" y="-218" type="curve" smooth="yes"/>
      <point x="218" y="-218"/>
      <point x="163" y="-224"/>
      <point x="126" y="-228" type="curve"/>
      <point x="124" y="-226"/>
      <point x="123" y="-198"/>
      <point x="129" y="-198" type="curve" smooth="yes"/>
      <point x="158" y="-195"/>
      <point x="189" y="-184"/>
      <point x="194" y="-158" type="curve" smooth="yes"/>
      <point x="244" y="107" type="line"/>
      <point x="223" y="71"/>
      <point x="159" y="-6"/>
      <point x="101" y="-6" type="curve" smooth="yes"/>
      <point x="41" y="-6"/>
      <point x="15" y="57"/>
      <point x="15" y="115" type="curve" smooth="yes"/>
      <point x="15" y="275"/>
      <point x="172" y="442"/>
      <point x="312" y="442" type="curve" smooth="yes"/>
      <point x="347" y="442"/>
      <point x="378" y="436"/>
      <point x="400" y="424" type="curve"/>
      <point x="342" y="122" type="line" smooth="yes"/>
      <point x="341" y="118"/>
      <point x="294" y="-142"/>
      <point x="294" y="-142" type="curve" smooth="yes"/>
      <point x="293" y="-150"/>
      <point x="292" y="-156"/>
      <point x="292" y="-162" type="curve" smooth="yes"/>
      <point x="292" y="-177"/>
      <point x="296" y="-191"/>
      <point x="340" y="-191" type="curve" smooth="yes"/>
      <point x="344" y="-191"/>
      <point x="342" y="-217"/>
    </contour>
    <contour>
      <point x="292" y="341" type="curve"/>
      <point x="296" y="361"/>
      <point x="289" y="394"/>
      <point x="262" y="394" type="curve" smooth="yes"/>
      <point x="188" y="394"/>
      <point x="115" y="269"/>
      <point x="115" y="154" type="curve" smooth="yes"/>
      <point x="115" y="99"/>
      <point x="131" y="67"/>
      <point x="158" y="67" type="curve" smooth="yes"/>
      <point x="201" y="67"/>
      <point x="262" y="183"/>
      <point x="280" y="276" type="curve"/>
      <point x="282" y="290"/>
      <point x="290" y="327"/>
    </contour>
  </outline>
</glyph>
<glyph name="r" format="1">
  <advance width="393"/>
  <unicode hex="0072"/>
  <outline>
    <contour>
      <point x="341" y="442" type="curve"/>
      <point x="367" y="442"/>
      <point x="380" y="435"/>
      <point x="393" y="425" type="curve"/>
      <point x="399" y="417"/>
      <point x="406" y="403"/>
      <point x="406" y="389" type="curve" smooth="yes"/>
      <point x="406" y="352"/>
      <point x="383" y="331"/>
      <point x="358" y="331" type="curve" smooth="yes"/>
      <point x="344" y="331"/>
      <point x="330" y="340"/>
      <point x="320" y="348" type="curve" smooth="yes"/>
      <point x="313" y="353"/>
      <point x="309" y="356"/>
      <point x="297" y="356" type="curve" smooth="yes"/>
      <point x="265" y="356"/>
      <point x="185" y="222"/>
      <point x="161" y="106" type="curve" smooth="yes"/>
      <point x="140" y="0" type="line"/>
      <point x="130" y="-2"/>
      <point x="106" y="-4"/>
      <point x="95" y="-4" type="curve" smooth="yes"/>
      <point x="83" y="-4"/>
      <point x="59" y="-2"/>
      <point x="47" y="0" type="curve"/>
      <point x="106" y="316" type="line" smooth="yes"/>
      <point x="107" y="321"/>
      <point x="111" y="343"/>
      <point x="111" y="348" type="curve" smooth="yes"/>
      <point x="111" y="357"/>
      <point x="108" y="372"/>
      <point x="98" y="372" type="curve" smooth="yes"/>
      <point x="76" y="372"/>
      <point x="31" y="316"/>
      <point x="28" y="312" type="curve"/>
      <point x="23" y="312"/>
      <point x="16" y="329"/>
      <point x="16" y="335" type="curve"/>
      <point x="30" y="361"/>
      <point x="106" y="442"/>
      <point x="156" y="442" type="curve" smooth="yes"/>
      <point x="186" y="442"/>
      <point x="209" y="418"/>
      <point x="209" y="380" type="curve" smooth="yes"/>
      <point x="209" y="369"/>
      <point x="204" y="340"/>
      <point x="201" y="324" type="curve" smooth="yes"/>
      <point x="197" y="302"/>
      <point x="190" y="266"/>
      <point x="186" y="250" type="curve"/>
      <point x="212" y="330"/>
      <point x="291" y="442"/>
    </contour>
  </outline>
</glyph>
<glyph name="s" format="1">
  <advance width="343"/>
  <unicode hex="0073"/>
  <outline>
    <contour>
      <point x="210" y="443" type="curve"/>
      <point x="256" y="443"/>
      <point x="286" y="432"/>
      <point x="308" y="414" type="curve"/>
      <point x="315" y="406"/>
      <point x="319" y="386"/>
      <point x="319" y="378" type="curve"/>
      <point x="319" y="356"/>
      <point x="303" y="332"/>
      <point x="277" y="332" type="curve"/>
      <point x="255" y="332"/>
      <point x="237" y="355"/>
      <point x="224" y="373" type="curve" smooth="yes"/>
      <point x="212" y="391"/>
      <point x="202" y="407"/>
      <point x="176" y="407" type="curve"/>
      <point x="148" y="407"/>
      <point x="131" y="380"/>
      <point x="131" y="356" type="curve" smooth="yes"/>
      <point x="131" y="318"/>
      <point x="179" y="282"/>
      <point x="213" y="246" type="curve" smooth="yes"/>
      <point x="241" y="216"/>
      <point x="271" y="183"/>
      <point x="271" y="127" type="curve" smooth="yes"/>
      <point x="271" y="45"/>
      <point x="198" y="-6"/>
      <point x="108" y="-6" type="curve"/>
      <point x="72" y="-6"/>
      <point x="35" y="4"/>
      <point x="11" y="24" type="curve"/>
      <point x="5" y="32"/>
      <point x="0" y="48"/>
      <point x="0" y="58" type="curve"/>
      <point x="0" y="86"/>
      <point x="18" y="108"/>
      <point x="42" y="108" type="curve"/>
      <point x="64" y="108"/>
      <point x="77" y="87"/>
      <point x="94" y="63" type="curve" smooth="yes"/>
      <point x="108" y="43"/>
      <point x="122" y="30"/>
      <point x="148" y="30" type="curve"/>
      <point x="179" y="30"/>
      <point x="194" y="60"/>
      <point x="194" y="80" type="curve" smooth="yes"/>
      <point x="194" y="120"/>
      <point x="149" y="153"/>
      <point x="117" y="189" type="curve" smooth="yes"/>
      <point x="87" y="223"/>
      <point x="56" y="253"/>
      <point x="56" y="311" type="curve" smooth="yes"/>
      <point x="56" y="379"/>
      <point x="120" y="443"/>
    </contour>
  </outline>
</glyph>
<glyph name="u" format="1">
  <advance width="512"/>
  <unicode hex="0075"/>
  <outline>
    <contour>
      <point x="290" y="106" type="curve" smooth="yes"/>
      <point x="295" y="134"/>
      <point x="300" y="154"/>
      <point x="305" y="176" type="curve"/>
      <point x="273" y="108"/>
      <point x="171" y="-7"/>
      <point x="117" y="-7" type="curve"/>
      <point x="72" y="-7"/>
      <point x="60" y="22"/>
      <point x="60" y="72" type="curve" smooth="yes"/>
      <point x="60" y="102"/>
      <point x="71" y="158"/>
      <point x="77" y="186" type="curve"/>
      <point x="81" y="206"/>
      <point x="101" y="296"/>
      <point x="104" y="316" type="curve" smooth="yes"/>
      <point x="105" y="321"/>
      <point x="108" y="343"/>
      <point x="108" y="348" type="curve" smooth="yes"/>
      <point x="108" y="357"/>
      <point x="106" y="372"/>
      <point x="96" y="372" type="curve" smooth="yes"/>
      <point x="74" y="372"/>
      <point x="28" y="316"/>
      <point x="25" y="312" type="curve"/>
      <point x="20" y="312"/>
      <point x="13" y="329"/>
      <point x="13" y="335" type="curve"/>
      <point x="27" y="361"/>
      <point x="104" y="442"/>
      <point x="154" y="442" type="curve" smooth="yes"/>
      <point x="184" y="442"/>
      <point x="206" y="418"/>
      <point x="206" y="380" type="curve" smooth="yes"/>
      <point x="206" y="369"/>
      <point x="201" y="340"/>
      <point x="198" y="324" type="curve"/>
      <point x="197" y="318"/>
      <point x="170" y="182"/>
      <point x="170" y="182" type="curve" smooth="yes"/>
      <point x="168" y="172"/>
      <point x="160" y="127"/>
      <point x="160" y="117" type="curve" smooth="yes"/>
      <point x="160" y="101"/>
      <point x="164" y="85"/>
      <point x="178" y="85" type="curve" smooth="yes"/>
      <point x="210" y="85"/>
      <point x="312" y="222"/>
      <point x="336" y="346" type="curve"/>
      <point x="340" y="368"/>
      <point x="350" y="413"/>
      <point x="354" y="435" type="curve"/>
      <point x="364" y="438"/>
      <point x="387" y="440"/>
      <point x="397" y="440" type="curve" smooth="yes"/>
      <point x="407" y="440"/>
      <point x="434" y="438"/>
      <point x="446" y="435" type="curve"/>
      <point x="386" y="119" type="line" smooth="yes"/>
      <point x="384" y="111"/>
      <point x="382" y="91"/>
      <point x="382" y="86" type="curve" smooth="yes"/>
      <point x="382" y="77"/>
      <point x="384" y="63"/>
      <point x="394" y="63" type="curve" smooth="yes"/>
      <point x="416" y="63"/>
      <point x="461" y="119"/>
      <point x="464" y="123" type="curve"/>
      <point x="469" y="123"/>
      <point x="476" y="106"/>
      <point x="476" y="100" type="curve"/>
      <point x="462" y="74"/>
      <point x="382" y="-7"/>
      <point x="332" y="-7" type="curve" smooth="yes"/>
      <point x="305" y="-7"/>
      <point x="283" y="14"/>
      <point x="283" y="54" type="curve" smooth="yes"/>
      <point x="283" y="62"/>
      <point x="286" y="84"/>
    </contour>
  </outline>
</glyph>
<glyph name="z" format="1">
  <advance width="414"/>
  <unicode hex="007A"/>
  <outline>
    <contour>
      <point x="158" y="443" type="curve" smooth="yes"/>
      <point x="194" y="443"/>
      <point x="218" y="432"/>
      <point x="244" y="422" type="curve" smooth="yes"/>
      <point x="262" y="415"/>
      <point x="284" y="407"/>
      <point x="314" y="407" type="curve" smooth="yes"/>
      <point x="344" y="407"/>
      <point x="382" y="434"/>
      <point x="394" y="442" type="curve"/>
      <point x="408" y="440"/>
      <point x="410" y="426"/>
      <point x="410" y="418" type="curve" smooth="yes"/>
      <point x="410" y="404"/>
      <point x="116" y="112"/>
      <point x="113" y="108" type="curve"/>
      <point x="117" y="110"/>
      <point x="139" y="118"/>
      <point x="157" y="118" type="curve" smooth="yes"/>
      <point x="182" y="118"/>
      <point x="206" y="112"/>
      <point x="226" y="102" type="curve" smooth="yes"/>
      <point x="244" y="94"/>
      <point x="266" y="82"/>
      <point x="284" y="82" type="curve" smooth="yes"/>
      <point x="312" y="82"/>
      <point x="336" y="131"/>
      <point x="342" y="140" type="curve"/>
      <point x="352" y="140"/>
      <point x="356" y="128"/>
      <point x="357" y="120" type="curve"/>
      <point x="339" y="82"/>
      <point x="286" y="-2"/>
      <point x="236" y="-2" type="curve" smooth="yes"/>
      <point x="203" y="-2"/>
      <point x="175" y="9"/>
      <point x="149" y="20" type="curve" smooth="yes"/>
      <point x="132" y="27"/>
      <point x="103" y="35"/>
      <point x="72" y="35" type="curve" smooth="yes"/>
      <point x="46" y="35"/>
      <point x="22" y="11"/>
      <point x="4" y="-1" type="curve"/>
      <point x="-9" y="0"/>
      <point x="-11" y="13"/>
      <point x="-12" y="22" type="curve"/>
      <point x="-12" y="38"/>
      <point x="290" y="334"/>
      <point x="292" y="338" type="curve"/>
      <point x="288" y="336"/>
      <point x="263" y="323"/>
      <point x="240" y="323" type="curve" smooth="yes"/>
      <point x="215" y="323"/>
      <point x="192" y="330"/>
      <point x="172" y="339" type="curve" smooth="yes"/>
      <point x="154" y="347"/>
      <point x="131" y="359"/>
      <point x="112" y="359" type="curve" smooth="yes"/>
      <point x="83" y="359"/>
      <point x="60" y="309"/>
      <point x="54" y="300" type="curve"/>
      <point x="46" y="300"/>
      <point x="41" y="312"/>
      <point x="40" y="320" type="curve"/>
      <point x="52" y="350"/>
      <point x="108" y="443"/>
    </contour>
  </outline>
</glyph>
<glyph name="braceleft" format="1">
  <advance width="228"/>
  <unicode hex="007B"/>
  <outline>
    <contour>
      <point x="127" y="403" type="curve" smooth="yes"/>
      <point x="132" y="430"/>
      <point x="126" y="453"/>
      <point x="122" y="479" type="curve" smooth="yes"/>
      <point x="117" y="503"/>
      <point x="113" y="527"/>
      <point x="119" y="557" type="curve" smooth="yes"/>
      <point x="138" y="655"/>
      <point x="228" y="725"/>
      <point x="272" y="739" type="curve"/>
      <point x="278" y="739"/>
      <point x="285" y="727"/>
      <point x="282" y="719" type="curve"/>
      <point x="253" y="705"/>
      <point x="195" y="658"/>
      <point x="185" y="604" type="curve" smooth="yes"/>
      <point x="177" y="566"/>
      <point x="183" y="542"/>
      <point x="189" y="516" type="curve" smooth="yes"/>
      <point x="194" y="493"/>
      <point x="199" y="468"/>
      <point x="191" y="428" type="curve" smooth="yes"/>
      <point x="177" y="358"/>
      <point x="115" y="310"/>
      <point x="87" y="302" type="curve"/>
      <point x="112" y="294"/>
      <point x="156" y="247"/>
      <point x="142" y="177" type="curve" smooth="yes"/>
      <point x="134" y="137"/>
      <point x="120" y="111"/>
      <point x="106" y="88" type="curve" smooth="yes"/>
      <point x="91" y="62"/>
      <point x="76" y="40"/>
      <point x="68" y="2" type="curve" smooth="yes"/>
      <point x="58" y="-52"/>
      <point x="96" y="-100"/>
      <point x="119" y="-114" type="curve"/>
      <point x="119" y="-122"/>
      <point x="108" y="-134"/>
      <point x="102" y="-134" type="curve"/>
      <point x="63" y="-120"/>
      <point x="1" y="-50"/>
      <point x="20" y="48" type="curve" smooth="yes"/>
      <point x="26" y="79"/>
      <point x="41" y="105"/>
      <point x="55" y="130" type="curve" smooth="yes"/>
      <point x="69" y="154"/>
      <point x="83" y="176"/>
      <point x="88" y="202" type="curve" smooth="yes"/>
      <point x="98" y="255"/>
      <point x="66" y="281"/>
      <point x="32" y="292" type="curve"/>
      <point x="31" y="294"/>
      <point x="31" y="298"/>
      <point x="32" y="302" type="curve" smooth="yes"/>
      <point x="33" y="306"/>
      <point x="34" y="312"/>
      <point x="36" y="314" type="curve"/>
      <point x="75" y="325"/>
      <point x="117" y="350"/>
    </contour>
  </outline>
</glyph>
<glyph name="bar" format="1">
  <advance width="203"/>
  <unicode hex="007C"/>
  <outline>
    <contour>
      <point x="171" y="757" type="curve"/>
      <point x="179" y="765"/>
      <point x="192" y="770"/>
      <point x="208" y="770" type="curve" smooth="yes"/>
      <point x="216" y="770"/>
      <point x="225" y="767"/>
      <point x="224" y="761" type="curve" smooth="yes"/>
      <point x="55" y="-111" type="line"/>
      <point x="46" y="-119"/>
      <point x="27" y="-124"/>
      <point x="14" y="-124" type="curve" smooth="yes"/>
      <point x="6" y="-124"/>
      <point x="0" y="-119"/>
      <point x="1" y="-115" type="curve" smooth="yes"/>
      <point x="1" y="-115"/>
      <point x="136" y="587"/>
    </contour>
  </outline>
</glyph>
<glyph name="asciitilde" format="1">
  <advance width="542"/>
  <unicode hex="007E"/>
  <outline>
    <contour>
      <point x="194" y="356" type="curve" smooth="yes"/>
      <point x="282" y="356"/>
      <point x="315" y="304"/>
      <point x="403" y="304" type="curve" smooth="yes"/>
      <point x="439" y="304"/>
      <point x="465" y="325"/>
      <point x="496" y="348" type="curve"/>
      <point x="498" y="346"/>
      <point x="501" y="342"/>
      <point x="501" y="335" type="curve" smooth="yes"/>
      <point x="501" y="297"/>
      <point x="430" y="248"/>
      <point x="366" y="248" type="curve" smooth="yes"/>
      <point x="278" y="248"/>
      <point x="243" y="300"/>
      <point x="155" y="300" type="curve" smooth="yes"/>
      <point x="119" y="300"/>
      <point x="93" y="279"/>
      <point x="62" y="256" type="curve"/>
      <point x="60" y="258"/>
      <point x="57" y="262"/>
      <point x="57" y="269" type="curve" smooth="yes"/>
      <point x="57" y="313"/>
      <point x="140" y="356"/>
    </contour>
  </outline>
</glyph>
<glyph name="exclamdown" format="1">
  <advance width="219"/>
  <unicode hex="00A1"/>
  <outline>
    <contour>
      <point x="192" y="380" type="curve"/>
      <point x="188" y="343"/>
      <point x="157" y="314"/>
      <point x="121" y="314" type="curve" smooth="yes"/>
      <point x="92" y="314"/>
      <point x="70" y="340"/>
      <point x="74" y="370" type="curve"/>
      <point x="78" y="408"/>
      <point x="108" y="441"/>
      <point x="144" y="441" type="curve" smooth="yes"/>
      <point x="175" y="441"/>
      <point x="196" y="412"/>
    </contour>
    <contour>
      <point x="15" y="-208" type="curve"/>
      <point x="-10" y="-208"/>
      <point x="-27" y="-184"/>
      <point x="-23" y="-152" type="curve"/>
      <point x="-21" y="-124"/>
      <point x="47" y="98"/>
      <point x="85" y="233" type="curve" smooth="yes"/>
      <point x="90" y="250"/>
      <point x="109" y="260"/>
      <point x="118" y="260" type="curve"/>
      <point x="123" y="260"/>
      <point x="124" y="250"/>
      <point x="124" y="240" type="curve"/>
      <point x="122" y="204"/>
      <point x="97" y="-48"/>
      <point x="81" y="-148" type="curve" smooth="yes"/>
      <point x="75" y="-178"/>
      <point x="47" y="-208"/>
    </contour>
  </outline>
</glyph>
<glyph name="currency" format="1">
  <advance width="519"/>
  <unicode hex="00A4"/>
  <outline>
    <contour>
      <point x="245" y="154" type="curve" smooth="yes"/>
      <point x="302" y="154"/>
      <point x="350" y="234"/>
      <point x="358" y="318" type="curve" smooth="yes"/>
      <point x="367" y="399"/>
      <point x="337" y="462"/>
      <point x="289" y="462" type="curve" smooth="yes"/>
      <point x="232" y="462"/>
      <point x="182" y="380"/>
      <point x="174" y="296" type="curve" smooth="yes"/>
      <point x="165" y="215"/>
      <point x="197" y="154"/>
    </contour>
    <contour>
      <point x="400" y="455" type="curve"/>
      <point x="466" y="510" type="line" smooth="yes"/>
      <point x="468" y="512"/>
      <point x="470" y="512"/>
      <point x="473" y="510" type="curve"/>
      <point x="482" y="506"/>
      <point x="494" y="485"/>
      <point x="496" y="466" type="curve"/>
      <point x="428" y="410" type="line"/>
      <point x="437" y="386"/>
      <point x="442" y="357"/>
      <point x="438" y="327" type="curve" smooth="yes"/>
      <point x="434" y="275"/>
      <point x="409" y="229"/>
      <point x="384" y="199" type="curve"/>
      <point x="422" y="141" type="line" smooth="yes"/>
      <point x="423" y="139"/>
      <point x="424" y="138"/>
      <point x="422" y="135" type="curve"/>
      <point x="418" y="125"/>
      <point x="393" y="105"/>
      <point x="374" y="100" type="curve"/>
      <point x="336" y="155" type="line"/>
      <point x="304" y="133"/>
      <point x="267" y="120"/>
      <point x="230" y="120" type="curve" smooth="yes"/>
      <point x="190" y="120"/>
      <point x="156" y="135"/>
      <point x="132" y="160" type="curve"/>
      <point x="74" y="110" type="line" smooth="yes"/>
      <point x="72" y="108"/>
      <point x="69" y="109"/>
      <point x="67" y="110" type="curve"/>
      <point x="58" y="113"/>
      <point x="46" y="135"/>
      <point x="44" y="154" type="curve"/>
      <point x="104" y="205" type="line"/>
      <point x="94" y="229"/>
      <point x="90" y="258"/>
      <point x="94" y="288" type="curve" smooth="yes"/>
      <point x="98" y="341"/>
      <point x="124" y="389"/>
      <point x="154" y="423" type="curve"/>
      <point x="116" y="479" type="line" smooth="yes"/>
      <point x="115" y="481"/>
      <point x="116" y="483"/>
      <point x="117" y="485" type="curve"/>
      <point x="121" y="495"/>
      <point x="146" y="514"/>
      <point x="166" y="520" type="curve"/>
      <point x="203" y="465" type="line"/>
      <point x="234" y="485"/>
      <point x="269" y="496"/>
      <point x="304" y="496" type="curve" smooth="yes"/>
      <point x="344" y="496"/>
      <point x="376" y="481"/>
    </contour>
  </outline>
</glyph>
<glyph name="brokenbar" format="1">
  <advance width="208"/>
  <unicode hex="00A6"/>
  <outline>
    <contour>
      <point x="172" y="756" type="curve"/>
      <point x="180" y="764"/>
      <point x="194" y="768"/>
      <point x="210" y="768" type="curve"/>
      <point x="218" y="768"/>
      <point x="226" y="766"/>
      <point x="225" y="760" type="curve" smooth="yes"/>
      <point x="154" y="392" type="line"/>
      <point x="145" y="384"/>
      <point x="127" y="379"/>
      <point x="114" y="379" type="curve"/>
      <point x="106" y="379"/>
      <point x="100" y="384"/>
      <point x="101" y="388" type="curve" smooth="yes"/>
      <point x="101" y="388"/>
      <point x="140" y="586"/>
    </contour>
    <contour>
      <point x="75" y="252" type="curve"/>
      <point x="83" y="260"/>
      <point x="96" y="265"/>
      <point x="112" y="265" type="curve"/>
      <point x="120" y="265"/>
      <point x="129" y="262"/>
      <point x="128" y="256" type="curve" smooth="yes"/>
      <point x="57" y="-111" type="line"/>
      <point x="48" y="-119"/>
      <point x="29" y="-124"/>
      <point x="16" y="-124" type="curve"/>
      <point x="8" y="-124"/>
      <point x="2" y="-119"/>
      <point x="3" y="-115" type="curve" smooth="yes"/>
      <point x="3" y="-115"/>
      <point x="42" y="82"/>
    </contour>
  </outline>
</glyph>
<glyph name="section" format="1">
  <advance width="435"/>
  <unicode hex="00A7"/>
  <outline>
    <contour>
      <point x="240" y="602" type="curve" smooth="yes"/>
      <point x="287.497" y="635.527"/>
      <point x="322.997" y="653"/>
      <point x="380" y="653" type="curve" smooth="yes"/>
      <point x="393" y="653"/>
      <point x="409" y="648"/>
      <point x="421" y="642" type="curve"/>
      <point x="424" y="632"/>
      <point x="422" y="620"/>
      <point x="421" y="614" type="curve" smooth="yes"/>
      <point x="417" y="596"/>
      <point x="400" y="576"/>
      <point x="379" y="576" type="curve" smooth="yes"/>
      <point x="362" y="576"/>
      <point x="354" y="586"/>
      <point x="346" y="592" type="curve" smooth="yes"/>
      <point x="339" y="598"/>
      <point x="329" y="603"/>
      <point x="315" y="603" type="curve" smooth="yes"/>
      <point x="286" y="603"/>
      <point x="239" y="587"/>
      <point x="232" y="549" type="curve" smooth="yes"/>
      <point x="223" y="503"/>
      <point x="281" y="427"/>
      <point x="316" y="384" type="curve" smooth="yes"/>
      <point x="360" y="330"/>
      <point x="404" y="271"/>
      <point x="386" y="182" type="curve" smooth="yes"/>
      <point x="371.044" y="108.053"/>
      <point x="289" y="20"/>
      <point x="221" y="-31" type="curve" smooth="yes"/>
      <point x="173.361" y="-66.729"/>
      <point x="132.622" y="-85"/>
      <point x="78" y="-85" type="curve" smooth="yes"/>
      <point x="65" y="-85"/>
      <point x="49" y="-80"/>
      <point x="38" y="-74" type="curve"/>
      <point x="36" y="-66"/>
      <point x="36" y="-54"/>
      <point x="37" y="-48" type="curve" smooth="yes"/>
      <point x="41" y="-30"/>
      <point x="59" y="-8"/>
      <point x="80" y="-8" type="curve" smooth="yes"/>
      <point x="97" y="-8"/>
      <point x="105" y="-19"/>
      <point x="113" y="-26" type="curve" smooth="yes"/>
      <point x="119" y="-32"/>
      <point x="129" y="-35"/>
      <point x="143" y="-35" type="curve" smooth="yes"/>
      <point x="172" y="-35"/>
      <point x="220" y="-19"/>
      <point x="227" y="19" type="curve" smooth="yes"/>
      <point x="236" y="65"/>
      <point x="178" y="141"/>
      <point x="143" y="184" type="curve" smooth="yes"/>
      <point x="100" y="238"/>
      <point x="55.5498" y="296.7"/>
      <point x="72" y="386" type="curve" smooth="yes"/>
      <point x="85.082" y="457.018"/>
      <point x="155" y="542"/>
    </contour>
    <contour>
      <point x="176.126" y="508.656" type="curve"/>
      <point x="158.493" y="487.268"/>
      <point x="146.357" y="468.979"/>
      <point x="140" y="436" type="curve" smooth="yes"/>
      <point x="124" y="353"/>
      <point x="166" y="290"/>
      <point x="207" y="240" type="curve" smooth="yes"/>
      <point x="243" y="196"/>
      <point x="299.003" y="141.999"/>
      <point x="285" y="72" type="curve" smooth="yes"/>
      <point x="284.006" y="67.0312"/>
      <point x="281.524" y="61.9297"/>
      <point x="280" y="57" type="curve"/>
      <point x="297.805" y="79.2451"/>
      <point x="311.13" y="98.4111"/>
      <point x="318" y="132" type="curve" smooth="yes"/>
      <point x="334.938" y="214.813"/>
      <point x="293" y="278"/>
      <point x="252" y="328" type="curve" smooth="yes"/>
      <point x="216" y="372"/>
      <point x="159" y="426"/>
      <point x="173" y="496" type="curve" smooth="yes"/>
      <point x="173.847" y="500.231"/>
      <point x="174.891" y="504.453"/>
    </contour>
  </outline>
</glyph>
<glyph name="dieresis" format="1">
  <advance width="346"/>
  <unicode hex="00A8"/>
  <outline>
    <contour>
      <point x="255" y="517" type="curve"/>
      <point x="258" y="550"/>
      <point x="285" y="578"/>
      <point x="317" y="578" type="curve" smooth="yes"/>
      <point x="344" y="578"/>
      <point x="362" y="553"/>
      <point x="359" y="525" type="curve"/>
      <point x="356" y="492"/>
      <point x="328" y="462"/>
      <point x="296" y="462" type="curve" smooth="yes"/>
      <point x="268" y="462"/>
      <point x="252" y="488"/>
    </contour>
    <contour>
      <point x="76" y="517" type="curve"/>
      <point x="79" y="550"/>
      <point x="106" y="578"/>
      <point x="138" y="578" type="curve" smooth="yes"/>
      <point x="165" y="578"/>
      <point x="183" y="553"/>
      <point x="180" y="525" type="curve"/>
      <point x="177" y="492"/>
      <point x="150" y="462"/>
      <point x="118" y="462" type="curve" smooth="yes"/>
      <point x="90" y="462"/>
      <point x="73" y="488"/>
    </contour>
  </outline>
</glyph>
<glyph name="copyright" format="1">
  <advance width="609"/>
  <unicode hex="00A9"/>
  <outline>
    <contour>
      <point x="421" y="264" type="curve"/>
      <point x="421" y="260"/>
      <point x="402" y="204"/>
      <point x="396" y="202" type="curve" smooth="yes"/>
      <point x="368" y="191"/>
      <point x="336" y="179"/>
      <point x="299" y="179" type="curve" smooth="yes"/>
      <point x="222" y="179"/>
      <point x="173" y="236"/>
      <point x="183" y="320" type="curve" smooth="yes"/>
      <point x="193" y="404"/>
      <point x="263" y="469"/>
      <point x="337" y="469" type="curve" smooth="yes"/>
      <point x="363" y="469"/>
      <point x="401" y="461"/>
      <point x="427" y="452" type="curve"/>
      <point x="427" y="450"/>
      <point x="433" y="394"/>
      <point x="433" y="390" type="curve" smooth="yes"/>
      <point x="433" y="386"/>
      <point x="423" y="382"/>
      <point x="417" y="382" type="curve"/>
      <point x="415" y="382"/>
      <point x="414" y="382"/>
      <point x="412" y="384" type="curve"/>
      <point x="410" y="398"/>
      <point x="399" y="439"/>
      <point x="339" y="439" type="curve" smooth="yes"/>
      <point x="287" y="439"/>
      <point x="250" y="384"/>
      <point x="243" y="328" type="curve" smooth="yes"/>
      <point x="234" y="256"/>
      <point x="269" y="207"/>
      <point x="317" y="207" type="curve" smooth="yes"/>
      <point x="343" y="207"/>
      <point x="364" y="215"/>
      <point x="377" y="226" type="curve" smooth="yes"/>
      <point x="392" y="240"/>
      <point x="401" y="266"/>
      <point x="403" y="268" type="curve"/>
      <point x="407" y="268"/>
      <point x="419" y="266"/>
    </contour>
    <contour>
      <point x="99" y="326" type="curve" smooth="yes"/>
      <point x="83" y="196"/>
      <point x="167" y="92"/>
      <point x="288" y="92" type="curve" smooth="yes"/>
      <point x="409" y="92"/>
      <point x="519" y="196"/>
      <point x="535" y="326" type="curve" smooth="yes"/>
      <point x="551" y="456"/>
      <point x="466" y="561"/>
      <point x="345" y="561" type="curve" smooth="yes"/>
      <point x="224" y="561"/>
      <point x="115" y="456"/>
    </contour>
    <contour>
      <point x="62" y="326" type="curve" smooth="yes"/>
      <point x="81" y="477"/>
      <point x="209" y="599"/>
      <point x="349" y="599" type="curve" smooth="yes"/>
      <point x="489" y="599"/>
      <point x="589" y="477"/>
      <point x="570" y="326" type="curve" smooth="yes"/>
      <point x="551" y="175"/>
      <point x="422" y="54"/>
      <point x="282" y="54" type="curve" smooth="yes"/>
      <point x="142" y="54"/>
      <point x="43" y="175"/>
    </contour>
  </outline>
</glyph>
<glyph name="guillemotleft" format="1">
  <advance width="482"/>
  <unicode hex="00AB"/>
  <outline>
    <contour>
      <point x="398" y="92" type="curve"/>
      <point x="392" y="82"/>
      <point x="379" y="75"/>
      <point x="373" y="73" type="curve"/>
      <point x="356" y="95"/>
      <point x="293" y="168"/>
      <point x="210" y="230" type="curve"/>
      <point x="206" y="234"/>
      <point x="203" y="239"/>
      <point x="203" y="245" type="curve" smooth="yes"/>
      <point x="203" y="253"/>
      <point x="209" y="260"/>
      <point x="215" y="264" type="curve"/>
      <point x="339" y="335"/>
      <point x="403" y="393"/>
      <point x="441" y="423" type="curve"/>
      <point x="445" y="422"/>
      <point x="458" y="416"/>
      <point x="460" y="406" type="curve"/>
      <point x="455" y="397"/>
      <point x="319" y="266"/>
      <point x="299" y="248" type="curve"/>
      <point x="313" y="230"/>
      <point x="396" y="99"/>
    </contour>
    <contour>
      <point x="221" y="92" type="curve"/>
      <point x="215" y="82"/>
      <point x="202" y="75"/>
      <point x="196" y="73" type="curve"/>
      <point x="179" y="95"/>
      <point x="116" y="168"/>
      <point x="33" y="230" type="curve"/>
      <point x="29" y="234"/>
      <point x="26" y="239"/>
      <point x="26" y="245" type="curve" smooth="yes"/>
      <point x="26" y="253"/>
      <point x="32" y="260"/>
      <point x="38" y="264" type="curve"/>
      <point x="162" y="335"/>
      <point x="226" y="393"/>
      <point x="264" y="423" type="curve"/>
      <point x="268" y="422"/>
      <point x="281" y="416"/>
      <point x="283" y="406" type="curve"/>
      <point x="278" y="397"/>
      <point x="142" y="266"/>
      <point x="122" y="248" type="curve"/>
      <point x="136" y="230"/>
      <point x="219" y="99"/>
    </contour>
  </outline>
</glyph>
<glyph name="logicalnot" format="1">
  <advance width="527"/>
  <unicode hex="00AC"/>
  <outline>
    <contour>
      <point x="72" y="363" type="curve"/>
      <point x="478" y="363" type="line"/>
      <point x="474" y="339"/>
      <point x="432" y="130"/>
      <point x="432" y="130" type="curve"/>
      <point x="430" y="126"/>
      <point x="409" y="116"/>
      <point x="394" y="116" type="curve"/>
      <point x="386" y="116"/>
      <point x="377" y="119"/>
      <point x="378" y="124" type="curve" smooth="yes"/>
      <point x="414" y="316" type="line"/>
      <point x="58" y="316" type="line"/>
      <point x="56" y="316"/>
      <point x="54" y="321"/>
      <point x="54" y="327" type="curve" smooth="yes"/>
      <point x="54" y="342"/>
      <point x="62" y="357"/>
    </contour>
  </outline>
</glyph>
<glyph name="registered" format="1">
  <advance width="609"/>
  <unicode hex="00AE"/>
  <outline>
    <contour>
      <point x="341" y="527" type="curve" smooth="yes"/>
      <point x="382" y="527"/>
      <point x="423" y="501"/>
      <point x="417" y="453" type="curve" smooth="yes"/>
      <point x="413" y="421"/>
      <point x="378" y="394"/>
      <point x="355" y="386" type="curve"/>
      <point x="375" y="348"/>
      <point x="395" y="316"/>
      <point x="406" y="299" type="curve" smooth="yes"/>
      <point x="423" y="275"/>
      <point x="439" y="270"/>
      <point x="451" y="269" type="curve"/>
      <point x="452" y="266"/>
      <point x="449" y="254"/>
      <point x="449" y="253" type="curve"/>
      <point x="430" y="253"/>
      <point x="408" y="254"/>
      <point x="397" y="255" type="curve" smooth="yes"/>
      <point x="380" y="256"/>
      <point x="368" y="264"/>
      <point x="357" y="282" type="curve" smooth="yes"/>
      <point x="355" y="286"/>
      <point x="317" y="352"/>
      <point x="307" y="373" type="curve" smooth="yes"/>
      <point x="306" y="375"/>
      <point x="303" y="379"/>
      <point x="299" y="379" type="curve" smooth="yes"/>
      <point x="297" y="379"/>
      <point x="291" y="379"/>
      <point x="289" y="379" type="curve"/>
      <point x="287" y="364"/>
      <point x="280" y="310"/>
      <point x="280" y="310" type="curve"/>
      <point x="278" y="295"/>
      <point x="277" y="283"/>
      <point x="279" y="276" type="curve" smooth="yes"/>
      <point x="280" y="271"/>
      <point x="298" y="268"/>
      <point x="303" y="268" type="curve"/>
      <point x="304" y="265"/>
      <point x="303" y="255"/>
      <point x="301" y="253" type="curve"/>
      <point x="285" y="254"/>
      <point x="266" y="256"/>
      <point x="250" y="256" type="curve" smooth="yes"/>
      <point x="234" y="256"/>
      <point x="212" y="254"/>
      <point x="196" y="253" type="curve"/>
      <point x="194" y="255"/>
      <point x="196" y="265"/>
      <point x="198" y="268" type="curve"/>
      <point x="203" y="268"/>
      <point x="223" y="271"/>
      <point x="225" y="276" type="curve" smooth="yes"/>
      <point x="229" y="283"/>
      <point x="229" y="295"/>
      <point x="231" y="310" type="curve" smooth="yes"/>
      <point x="251" y="471" type="line" smooth="yes"/>
      <point x="253" y="486"/>
      <point x="255" y="498"/>
      <point x="253" y="505" type="curve" smooth="yes"/>
      <point x="252" y="510"/>
      <point x="233" y="512"/>
      <point x="228" y="512" type="curve"/>
      <point x="227" y="515"/>
      <point x="228" y="525"/>
      <point x="230" y="527" type="curve"/>
      <point x="247" y="526"/>
      <point x="268" y="526"/>
      <point x="284" y="526" type="curve" smooth="yes"/>
      <point x="300" y="526"/>
      <point x="319" y="527"/>
    </contour>
    <contour>
      <point x="365" y="447" type="curve" smooth="yes"/>
      <point x="369" y="482"/>
      <point x="360" y="509"/>
      <point x="326" y="509" type="curve" smooth="yes"/>
      <point x="319" y="509"/>
      <point x="308" y="509"/>
      <point x="306" y="505" type="curve" smooth="yes"/>
      <point x="304" y="500"/>
      <point x="303" y="489"/>
      <point x="301" y="476" type="curve" smooth="yes"/>
      <point x="291" y="398" type="line"/>
      <point x="291" y="398"/>
      <point x="304" y="398"/>
      <point x="308" y="398" type="curve" smooth="yes"/>
      <point x="337" y="398"/>
      <point x="361" y="415"/>
    </contour>
    <contour>
      <point x="110" y="384" type="curve" smooth="yes"/>
      <point x="94" y="254"/>
      <point x="178" y="149"/>
      <point x="299" y="149" type="curve" smooth="yes"/>
      <point x="420" y="149"/>
      <point x="530" y="254"/>
      <point x="546" y="384" type="curve" smooth="yes"/>
      <point x="562" y="514"/>
      <point x="477" y="618"/>
      <point x="356" y="618" type="curve" smooth="yes"/>
      <point x="235" y="618"/>
      <point x="126" y="514"/>
    </contour>
    <contour>
      <point x="73" y="384" type="curve" smooth="yes"/>
      <point x="92" y="535"/>
      <point x="220" y="657"/>
      <point x="360" y="657" type="curve" smooth="yes"/>
      <point x="500" y="657"/>
      <point x="600" y="535"/>
      <point x="581" y="384" type="curve" smooth="yes"/>
      <point x="562" y="233"/>
      <point x="433" y="111"/>
      <point x="293" y="111" type="curve" smooth="yes"/>
      <point x="153" y="111"/>
      <point x="54" y="233"/>
    </contour>
  </outline>
</glyph>
<glyph name="plusminus" format="1">
  <advance width="499"/>
  <unicode hex="00B1"/>
  <outline>
    <contour>
      <point x="408" y="63" type="line" smooth="yes"/>
      <point x="410" y="63"/>
      <point x="411" y="60"/>
      <point x="411" y="55" type="curve" smooth="yes"/>
      <point x="411" y="42"/>
      <point x="409" y="28"/>
      <point x="398" y="16" type="curve"/>
      <point x="8" y="16" type="line" smooth="yes"/>
      <point x="5" y="16"/>
      <point x="3" y="19"/>
      <point x="3" y="24" type="curve" smooth="yes"/>
      <point x="3" y="37"/>
      <point x="7" y="50"/>
      <point x="17" y="63" type="curve"/>
    </contour>
    <contour>
      <point x="64" y="306" type="line" smooth="yes"/>
      <point x="61" y="306"/>
      <point x="60" y="309"/>
      <point x="60" y="314" type="curve" smooth="yes"/>
      <point x="60" y="327"/>
      <point x="64" y="340"/>
      <point x="74" y="353" type="curve"/>
      <point x="243" y="353" type="line"/>
      <point x="276" y="526" type="line" smooth="yes"/>
      <point x="278" y="539"/>
      <point x="318" y="542"/>
      <point x="322" y="542" type="curve" smooth="yes"/>
      <point x="330" y="542"/>
      <point x="331" y="538"/>
      <point x="330" y="534" type="curve" smooth="yes"/>
      <point x="295" y="353" type="line"/>
      <point x="464" y="353" type="line" smooth="yes"/>
      <point x="466" y="353"/>
      <point x="468" y="351"/>
      <point x="468" y="346" type="curve" smooth="yes"/>
      <point x="468" y="333"/>
      <point x="467" y="318"/>
      <point x="456" y="306" type="curve"/>
      <point x="287" y="306" type="line"/>
      <point x="252" y="130" type="line" smooth="yes"/>
      <point x="250" y="120"/>
      <point x="229" y="114"/>
      <point x="213" y="114" type="curve" smooth="yes"/>
      <point x="203" y="114"/>
      <point x="200" y="118"/>
      <point x="200" y="122" type="curve" smooth="yes"/>
      <point x="235" y="306" type="line"/>
    </contour>
  </outline>
</glyph>
<glyph name="uni00B2" format="1">
  <advance width="343"/>
  <unicode hex="00B2"/>
  <outline>
    <contour>
      <point x="338" y="558" type="curve" smooth="yes"/>
      <point x="338" y="503"/>
      <point x="289" y="452"/>
      <point x="246" y="413" type="curve" smooth="yes"/>
      <point x="204" y="373"/>
      <point x="151" y="333"/>
      <point x="132" y="319" type="curve"/>
      <point x="237" y="319" type="line" smooth="yes"/>
      <point x="268" y="319"/>
      <point x="283" y="346"/>
      <point x="296" y="370" type="curve" smooth="yes"/>
      <point x="298" y="373"/>
      <point x="300" y="374"/>
      <point x="304" y="374" type="curve" smooth="yes"/>
      <point x="307" y="374"/>
      <point x="317" y="371"/>
      <point x="318" y="369" type="curve"/>
      <point x="304" y="340"/>
      <point x="269" y="265"/>
      <point x="264" y="254" type="curve"/>
      <point x="264" y="254"/>
      <point x="51" y="254"/>
      <point x="49" y="254" type="curve"/>
      <point x="47" y="256"/>
      <point x="45" y="267"/>
      <point x="45" y="270" type="curve"/>
      <point x="89" y="312"/>
      <point x="147" y="366"/>
      <point x="193" y="417" type="curve" smooth="yes"/>
      <point x="234" y="463"/>
      <point x="254" y="504"/>
      <point x="254" y="541" type="curve" smooth="yes"/>
      <point x="254" y="574"/>
      <point x="232" y="596"/>
      <point x="201" y="596" type="curve" smooth="yes"/>
      <point x="158" y="596"/>
      <point x="132" y="559"/>
      <point x="124" y="550" type="curve"/>
      <point x="120" y="550"/>
      <point x="112" y="560"/>
      <point x="113" y="567" type="curve"/>
      <point x="124" y="586"/>
      <point x="174" y="646"/>
      <point x="241" y="646" type="curve" smooth="yes"/>
      <point x="296" y="646"/>
      <point x="338" y="610"/>
    </contour>
  </outline>
</glyph>
<glyph name="uni00B9" format="1">
  <advance width="260"/>
  <unicode hex="00B9"/>
  <outline>
    <contour>
      <point x="124" y="534" type="curve"/>
      <point x="125" y="549"/>
      <point x="123" y="562"/>
      <point x="117" y="564" type="curve" smooth="yes"/>
      <point x="113" y="564"/>
      <point x="101" y="561"/>
      <point x="96" y="559" type="curve"/>
      <point x="122" y="573"/>
      <point x="162" y="601"/>
      <point x="164" y="605" type="curve"/>
      <point x="166" y="609" type="line"/>
      <point x="204" y="624"/>
      <point x="247" y="641"/>
      <point x="248" y="639" type="curve"/>
      <point x="248" y="639"/>
      <point x="244" y="629"/>
      <point x="240" y="610" type="curve" smooth="yes"/>
      <point x="242" y="610"/>
      <point x="222" y="484"/>
      <point x="222" y="482" type="curve"/>
      <point x="217" y="466"/>
      <point x="209" y="440"/>
      <point x="205" y="412" type="curve"/>
      <point x="205" y="409"/>
      <point x="208" y="311"/>
      <point x="210" y="311" type="curve"/>
      <point x="209" y="302"/>
      <point x="208" y="282"/>
      <point x="210" y="276" type="curve" smooth="yes"/>
      <point x="213" y="270"/>
      <point x="228" y="267"/>
      <point x="230" y="266" type="curve"/>
      <point x="220" y="267"/>
      <point x="190" y="254"/>
      <point x="178" y="254" type="curve"/>
      <point x="156" y="254"/>
      <point x="117" y="255"/>
      <point x="94" y="254" type="curve"/>
      <point x="82" y="256"/>
      <point x="58" y="264"/>
      <point x="48" y="264" type="curve"/>
      <point x="50" y="266"/>
      <point x="73" y="280"/>
      <point x="76" y="283" type="curve"/>
      <point x="82" y="289"/>
      <point x="100" y="297"/>
      <point x="105" y="307" type="curve"/>
      <point x="108" y="310"/>
      <point x="132" y="424"/>
      <point x="133" y="430" type="curve" smooth="yes"/>
      <point x="137" y="448"/>
      <point x="138" y="452"/>
      <point x="134" y="458" type="curve"/>
      <point x="127" y="458"/>
      <point x="128" y="536"/>
    </contour>
  </outline>
</glyph>
<glyph name="guillemotright" format="1">
  <advance width="481"/>
  <unicode hex="00BB"/>
  <outline>
    <contour>
      <point x="84" y="404" type="curve"/>
      <point x="90" y="414"/>
      <point x="102" y="421"/>
      <point x="108" y="423" type="curve"/>
      <point x="125" y="401"/>
      <point x="189" y="328"/>
      <point x="272" y="266" type="curve"/>
      <point x="276" y="262"/>
      <point x="278" y="257"/>
      <point x="278" y="251" type="curve" smooth="yes"/>
      <point x="278" y="243"/>
      <point x="272" y="236"/>
      <point x="266" y="232" type="curve"/>
      <point x="142" y="161"/>
      <point x="79" y="103"/>
      <point x="41" y="73" type="curve"/>
      <point x="37" y="74"/>
      <point x="23" y="80"/>
      <point x="21" y="90" type="curve"/>
      <point x="26" y="99"/>
      <point x="162" y="230"/>
      <point x="182" y="248" type="curve"/>
      <point x="168" y="266"/>
      <point x="86" y="397"/>
    </contour>
    <contour>
      <point x="260" y="404" type="curve"/>
      <point x="266" y="414"/>
      <point x="279" y="421"/>
      <point x="285" y="423" type="curve"/>
      <point x="302" y="401"/>
      <point x="365" y="328"/>
      <point x="448" y="266" type="curve"/>
      <point x="452" y="262"/>
      <point x="455" y="257"/>
      <point x="455" y="251" type="curve" smooth="yes"/>
      <point x="455" y="243"/>
      <point x="449" y="236"/>
      <point x="443" y="232" type="curve"/>
      <point x="319" y="161"/>
      <point x="256" y="103"/>
      <point x="218" y="73" type="curve"/>
      <point x="214" y="74"/>
      <point x="200" y="80"/>
      <point x="198" y="90" type="curve"/>
      <point x="203" y="99"/>
      <point x="340" y="230"/>
      <point x="360" y="248" type="curve"/>
      <point x="346" y="266"/>
      <point x="262" y="397"/>
    </contour>
  </outline>
</glyph>
<glyph name="multiply" format="1">
  <advance width="422"/>
  <unicode hex="00D7"/>
  <outline>
    <contour>
      <point x="32" y="69" type="curve" smooth="yes"/>
      <point x="26" y="69"/>
      <point x="18" y="94"/>
      <point x="18" y="110" type="curve"/>
      <point x="172" y="246" type="line" smooth="yes"/>
      <point x="173" y="247"/>
      <point x="174" y="247"/>
      <point x="174" y="248" type="curve" smooth="yes"/>
      <point x="174" y="250"/>
      <point x="172" y="255"/>
      <point x="171" y="256" type="curve" smooth="yes"/>
      <point x="72" y="390" type="line"/>
      <point x="72" y="404"/>
      <point x="97" y="425"/>
      <point x="102" y="425" type="curve" smooth="yes"/>
      <point x="105" y="425"/>
      <point x="104" y="423"/>
      <point x="106" y="421" type="curve" smooth="yes"/>
      <point x="210" y="280" type="line" smooth="yes"/>
      <point x="211" y="279"/>
      <point x="213" y="278"/>
      <point x="214" y="278" type="curve" smooth="yes"/>
      <point x="216" y="279" type="line" smooth="yes"/>
      <point x="374" y="420" type="line" smooth="yes"/>
      <point x="376" y="422"/>
      <point x="378" y="423"/>
      <point x="380" y="423" type="curve" smooth="yes"/>
      <point x="387" y="423"/>
      <point x="394" y="398"/>
      <point x="394" y="380" type="curve"/>
      <point x="240" y="244" type="line" smooth="yes"/>
      <point x="239" y="243"/>
      <point x="238" y="243"/>
      <point x="238" y="242" type="curve" smooth="yes"/>
      <point x="238" y="241"/>
      <point x="239" y="241"/>
      <point x="240" y="240" type="curve" smooth="yes"/>
      <point x="340" y="104" type="line"/>
      <point x="340" y="90"/>
      <point x="322" y="69"/>
      <point x="315" y="69" type="curve" smooth="yes"/>
      <point x="311" y="69"/>
      <point x="309" y="70"/>
      <point x="308" y="72" type="curve" smooth="yes"/>
      <point x="205" y="212" type="line" smooth="yes"/>
      <point x="204" y="213"/>
      <point x="203" y="214"/>
      <point x="202" y="214" type="curve" smooth="yes"/>
      <point x="201" y="214"/>
      <point x="199" y="213"/>
      <point x="198" y="212" type="curve" smooth="yes"/>
      <point x="37" y="72" type="line" smooth="yes"/>
      <point x="35" y="70"/>
      <point x="34" y="69"/>
    </contour>
  </outline>
</glyph>
<glyph name="germandbls" format="1">
  <advance width="505"/>
  <unicode hex="00DF"/>
  <outline>
    <contour>
      <point x="118" y="419" type="line"/>
      <point x="150" y="583"/>
      <point x="268" y="690"/>
      <point x="348" y="690" type="curve" smooth="yes"/>
      <point x="407" y="690"/>
      <point x="477" y="649"/>
      <point x="477" y="571" type="curve" smooth="yes"/>
      <point x="477" y="476"/>
      <point x="398" y="433"/>
      <point x="368" y="408" type="curve" smooth="yes"/>
      <point x="348" y="391"/>
      <point x="332" y="373"/>
      <point x="332" y="356" type="curve" smooth="yes"/>
      <point x="332" y="329"/>
      <point x="361" y="297"/>
      <point x="383" y="269" type="curve" smooth="yes"/>
      <point x="423" y="219"/>
      <point x="457" y="181"/>
      <point x="457" y="124" type="curve"/>
      <point x="457" y="52"/>
      <point x="391" y="-4"/>
      <point x="312" y="-4" type="curve" smooth="yes"/>
      <point x="252" y="-4"/>
      <point x="232" y="10"/>
      <point x="216" y="22" type="curve"/>
      <point x="212" y="28"/>
      <point x="205" y="40"/>
      <point x="205" y="55" type="curve" smooth="yes"/>
      <point x="206" y="83"/>
      <point x="227" y="98"/>
      <point x="248" y="98" type="curve" smooth="yes"/>
      <point x="281" y="98"/>
      <point x="283" y="28"/>
      <point x="332" y="28" type="curve" smooth="yes"/>
      <point x="360" y="28"/>
      <point x="380" y="50"/>
      <point x="380" y="82" type="curve" smooth="yes"/>
      <point x="380" y="119"/>
      <point x="332" y="171"/>
      <point x="306" y="204" type="curve" smooth="yes"/>
      <point x="277" y="240"/>
      <point x="254" y="271"/>
      <point x="254" y="317" type="curve" smooth="yes"/>
      <point x="254" y="365"/>
      <point x="292" y="388"/>
      <point x="335" y="432" type="curve" smooth="yes"/>
      <point x="357" y="454"/>
      <point x="389" y="494"/>
      <point x="389" y="552" type="curve" smooth="yes"/>
      <point x="389" y="588"/>
      <point x="367" y="648"/>
      <point x="321" y="648" type="curve" smooth="yes"/>
      <point x="270" y="648"/>
      <point x="240" y="568"/>
      <point x="214" y="419" type="curve" smooth="yes"/>
      <point x="188" y="275"/>
      <point x="172" y="176"/>
      <point x="148" y="50" type="curve" smooth="yes"/>
      <point x="116" y="-114"/>
      <point x="12" y="-226"/>
      <point x="-68" y="-226" type="curve" smooth="yes"/>
      <point x="-100" y="-226"/>
      <point x="-123" y="-214"/>
      <point x="-132" y="-204" type="curve"/>
      <point x="-134" y="-197"/>
      <point x="-136" y="-188"/>
      <point x="-136" y="-179" type="curve" smooth="yes"/>
      <point x="-135" y="-156"/>
      <point x="-123" y="-135"/>
      <point x="-103" y="-135" type="curve" smooth="yes"/>
      <point x="-86" y="-135"/>
      <point x="-74" y="-144"/>
      <point x="-63" y="-158" type="curve" smooth="yes"/>
      <point x="-55" y="-168"/>
      <point x="-46" y="-182"/>
      <point x="-30" y="-182" type="curve" smooth="yes"/>
      <point x="9" y="-182"/>
      <point x="22" y="-113"/>
      <point x="53" y="46" type="curve"/>
    </contour>
  </outline>
</glyph>
<glyph name="ae" format="1">
  <advance width="582"/>
  <unicode hex="00E6"/>
  <outline>
    <contour>
      <point x="434" y="403" type="curve"/>
      <point x="378" y="403"/>
      <point x="339" y="290"/>
      <point x="332" y="228" type="curve"/>
      <point x="371" y="228"/>
      <point x="467" y="290"/>
      <point x="467" y="364" type="curve"/>
      <point x="467" y="386"/>
      <point x="455" y="403"/>
    </contour>
    <contour>
      <point x="225" y="99" type="curve"/>
      <point x="223" y="106"/>
      <point x="232" y="194"/>
      <point x="235" y="205" type="curve"/>
      <point x="202" y="199"/>
      <point x="165" y="185"/>
      <point x="149" y="176" type="curve" smooth="yes"/>
      <point x="120" y="160"/>
      <point x="106" y="134"/>
      <point x="104" y="112" type="curve"/>
      <point x="100" y="74"/>
      <point x="122" y="54"/>
      <point x="146" y="54" type="curve"/>
      <point x="172" y="54"/>
      <point x="220" y="90"/>
    </contour>
    <contour>
      <point x="254" y="442" type="curve"/>
      <point x="296" y="442"/>
      <point x="326" y="415"/>
      <point x="337" y="379" type="curve"/>
      <point x="374" y="416"/>
      <point x="426" y="442"/>
      <point x="474" y="442" type="curve" smooth="yes"/>
      <point x="534" y="442"/>
      <point x="563" y="406"/>
      <point x="563" y="364" type="curve"/>
      <point x="563" y="268"/>
      <point x="396" y="199"/>
      <point x="328" y="194" type="curve"/>
      <point x="327" y="190"/>
      <point x="325" y="169"/>
      <point x="325" y="160" type="curve" smooth="yes"/>
      <point x="325" y="110"/>
      <point x="341" y="65"/>
      <point x="390" y="65" type="curve"/>
      <point x="434" y="65"/>
      <point x="488" y="128"/>
      <point x="492" y="132" type="curve"/>
      <point x="498" y="132"/>
      <point x="505" y="114"/>
      <point x="505" y="107" type="curve"/>
      <point x="481" y="71"/>
      <point x="393" y="-6"/>
      <point x="336" y="-6" type="curve"/>
      <point x="293" y="-6"/>
      <point x="250" y="20"/>
      <point x="234" y="64" type="curve"/>
      <point x="218" y="48"/>
      <point x="120" y="-8"/>
      <point x="92" y="-8" type="curve"/>
      <point x="38" y="-8"/>
      <point x="0" y="37"/>
      <point x="5" y="97" type="curve" smooth="yes"/>
      <point x="9" y="139"/>
      <point x="41" y="175"/>
      <point x="65" y="187" type="curve" smooth="yes"/>
      <point x="91" y="198"/>
      <point x="182" y="226"/>
      <point x="234" y="242" type="curve" smooth="yes"/>
      <point x="240" y="244"/>
      <point x="240" y="249"/>
      <point x="242" y="260" type="curve" smooth="yes"/>
      <point x="249" y="314" type="line" smooth="yes"/>
      <point x="250" y="322"/>
      <point x="250" y="331"/>
      <point x="250" y="337" type="curve"/>
      <point x="250" y="369"/>
      <point x="237" y="404"/>
      <point x="206" y="404" type="curve" smooth="yes"/>
      <point x="174" y="404"/>
      <point x="160" y="374"/>
      <point x="144" y="333" type="curve" smooth="yes"/>
      <point x="133" y="306"/>
      <point x="117" y="288"/>
      <point x="91" y="288" type="curve" smooth="yes"/>
      <point x="69" y="288"/>
      <point x="58" y="309"/>
      <point x="60" y="327" type="curve" smooth="yes"/>
      <point x="62" y="340"/>
      <point x="68" y="353"/>
      <point x="76" y="364" type="curve"/>
      <point x="98" y="383"/>
      <point x="183" y="442"/>
    </contour>
  </outline>
</glyph>
<glyph name="eth" format="1">
  <advance width="451"/>
  <unicode hex="00F0"/>
  <outline>
    <contour>
      <point x="290" y="217" type="curve" smooth="yes"/>
      <point x="301" y="272"/>
      <point x="305" y="334"/>
      <point x="301" y="350" type="curve" smooth="yes"/>
      <point x="292" y="385"/>
      <point x="270" y="404"/>
      <point x="244" y="404" type="curve" smooth="yes"/>
      <point x="184" y="404"/>
      <point x="147" y="310"/>
      <point x="130" y="217" type="curve" smooth="yes"/>
      <point x="112" y="119"/>
      <point x="129" y="33"/>
      <point x="173" y="33" type="curve" smooth="yes"/>
      <point x="232" y="33"/>
      <point x="271" y="119"/>
    </contour>
    <contour>
      <point x="144" y="669" type="curve"/>
      <point x="145" y="676"/>
      <point x="153" y="691"/>
      <point x="160" y="691" type="curve" smooth="yes"/>
      <point x="202.541" y="679.149"/>
      <point x="245.452" y="657.049"/>
      <point x="283.233" y="625.121" type="curve"/>
      <point x="405" y="705" type="line"/>
      <point x="409" y="699"/>
      <point x="420" y="679"/>
      <point x="415" y="674" type="curve" smooth="yes"/>
      <point x="306.997" y="603.002" type="line"/>
      <point x="380.226" y="527.983"/>
      <point x="426.256" y="411.063"/>
      <point x="396" y="256" type="curve" smooth="yes"/>
      <point x="367" y="108"/>
      <point x="255" y="-7"/>
      <point x="165" y="-7" type="curve" smooth="yes"/>
      <point x="43" y="-7"/>
      <point x="7" y="100"/>
      <point x="28" y="210" type="curve" smooth="yes"/>
      <point x="49" y="318"/>
      <point x="153" y="444"/>
      <point x="259" y="444" type="curve" smooth="yes"/>
      <point x="285" y="444"/>
      <point x="305" y="435"/>
      <point x="313" y="426" type="curve"/>
      <point x="313.614" y="469.573"/>
      <point x="304.435" y="522.561"/>
      <point x="263.737" y="574.564" type="curve"/>
      <point x="164" y="509" type="line"/>
      <point x="160" y="516"/>
      <point x="150" y="536"/>
      <point x="155" y="541" type="curve" smooth="yes"/>
      <point x="242.617" y="598.477" type="line"/>
      <point x="218.406" y="622.942"/>
      <point x="186.312" y="646.823"/>
    </contour>
  </outline>
</glyph>
<glyph name="divide" format="1">
  <advance width="523"/>
  <unicode hex="00F7"/>
  <outline>
    <contour>
      <point x="46" y="224" type="line" smooth="yes"/>
      <point x="43" y="224"/>
      <point x="41" y="227"/>
      <point x="41" y="232" type="curve" smooth="yes"/>
      <point x="41" y="244"/>
      <point x="46" y="263"/>
      <point x="54" y="273" type="curve"/>
      <point x="473" y="273" type="line" smooth="yes"/>
      <point x="475" y="273"/>
      <point x="476" y="269"/>
      <point x="476" y="264" type="curve" smooth="yes"/>
      <point x="476" y="251"/>
      <point x="472" y="235"/>
      <point x="464" y="224" type="curve"/>
    </contour>
    <contour>
      <point x="304" y="494" type="curve"/>
      <point x="328" y="494"/>
      <point x="345" y="474"/>
      <point x="345" y="450" type="curve"/>
      <point x="345" y="418"/>
      <point x="320" y="388"/>
      <point x="288" y="388" type="curve"/>
      <point x="264" y="388"/>
      <point x="249" y="410"/>
      <point x="249" y="434" type="curve"/>
      <point x="249" y="466"/>
      <point x="272" y="494"/>
    </contour>
    <contour>
      <point x="230" y="108" type="curve"/>
      <point x="254" y="108"/>
      <point x="272" y="88"/>
      <point x="272" y="64" type="curve"/>
      <point x="272" y="32"/>
      <point x="246" y="2"/>
      <point x="214" y="2" type="curve"/>
      <point x="190" y="2"/>
      <point x="176" y="24"/>
      <point x="176" y="48" type="curve"/>
      <point x="176" y="80"/>
      <point x="198" y="108"/>
    </contour>
  </outline>
</glyph>
<glyph name="Aogonek" format="1">
  <advance width="601"/>
  <unicode hex="0104"/>
  <outline>
    <contour>
      <point x="557" y="-4" type="curve"/>
      <point x="520" y="-2"/>
      <point x="510" y="2"/>
      <point x="472" y="2" type="curve" smooth="yes"/>
      <point x="386" y="2"/>
      <point x="306" y="-81"/>
      <point x="306" y="-130" type="curve" smooth="yes"/>
      <point x="306" y="-150"/>
      <point x="314" y="-164"/>
      <point x="339" y="-164" type="curve" smooth="yes"/>
      <point x="383" y="-164"/>
      <point x="412" y="-128"/>
      <point x="418" y="-126" type="curve"/>
      <point x="426" y="-127"/>
      <point x="419" y="-151"/>
      <point x="416" y="-154" type="curve" smooth="yes"/>
      <point x="392" y="-188"/>
      <point x="346" y="-224"/>
      <point x="304" y="-224" type="curve" smooth="yes"/>
      <point x="270" y="-224"/>
      <point x="248" y="-196"/>
      <point x="248" y="-169" type="curve" smooth="yes"/>
      <point x="248" y="-109"/>
      <point x="301" y="-55"/>
      <point x="345" y="-9" type="curve" smooth="yes"/>
      <point x="369" y="17"/>
      <point x="392" y="28"/>
      <point x="392" y="67" type="curve" smooth="yes"/>
      <point x="392" y="91"/>
      <point x="367" y="234"/>
      <point x="367" y="234" type="curve"/>
      <point x="367" y="234"/>
      <point x="365" y="238"/>
      <point x="362" y="238" type="curve" smooth="yes"/>
      <point x="332" y="240"/>
      <point x="294" y="238"/>
      <point x="271" y="238" type="curve" smooth="yes"/>
      <point x="233" y="238"/>
      <point x="211" y="238"/>
      <point x="173" y="236" type="curve" smooth="yes"/>
      <point x="171" y="236"/>
      <point x="166" y="233"/>
      <point x="166" y="232" type="curve"/>
      <point x="166" y="232"/>
      <point x="128" y="168"/>
      <point x="108" y="130" type="curve" smooth="yes"/>
      <point x="92" y="100"/>
      <point x="80" y="70"/>
      <point x="78" y="60" type="curve" smooth="yes"/>
      <point x="73" y="35"/>
      <point x="132" y="30"/>
      <point x="139" y="30" type="curve"/>
      <point x="142" y="25"/>
      <point x="138" y="1"/>
      <point x="134" y="-4" type="curve"/>
      <point x="100" y="-1"/>
      <point x="81" y="3"/>
      <point x="40" y="3" type="curve" smooth="yes"/>
      <point x="-3" y="3"/>
      <point x="-22" y="-1"/>
      <point x="-60" y="-4" type="curve"/>
      <point x="-62" y="0"/>
      <point x="-60" y="19"/>
      <point x="-55" y="28" type="curve"/>
      <point x="-44" y="28"/>
      <point x="-3" y="40"/>
      <point x="9" y="54" type="curve" smooth="yes"/>
      <point x="31" y="81"/>
      <point x="45" y="104"/>
      <point x="63" y="136" type="curve" smooth="yes"/>
      <point x="348" y="629" type="line" smooth="yes"/>
      <point x="356" y="643"/>
      <point x="380" y="662"/>
      <point x="389" y="662" type="curve" smooth="yes"/>
      <point x="395" y="662"/>
      <point x="398" y="660"/>
      <point x="400" y="658" type="curve"/>
      <point x="400" y="658"/>
      <point x="488" y="147"/>
      <point x="490" y="137" type="curve"/>
      <point x="496" y="103"/>
      <point x="499" y="80"/>
      <point x="501" y="68" type="curve" smooth="yes"/>
      <point x="507" y="36"/>
      <point x="555" y="30"/>
      <point x="562" y="30" type="curve"/>
      <point x="565" y="22"/>
      <point x="560" y="0"/>
    </contour>
    <contour>
      <point x="321" y="506" type="line"/>
      <point x="197" y="290" type="line"/>
      <point x="197" y="290"/>
      <point x="197" y="286"/>
      <point x="199" y="286" type="curve" smooth="yes"/>
      <point x="220" y="284"/>
      <point x="256" y="283"/>
      <point x="277" y="283" type="curve" smooth="yes"/>
      <point x="306" y="283"/>
      <point x="325" y="284"/>
      <point x="354" y="286" type="curve" smooth="yes"/>
      <point x="356" y="286"/>
      <point x="358" y="291"/>
      <point x="358" y="291" type="curve"/>
    </contour>
  </outline>
</glyph>
<glyph name="hbar" format="1">
  <advance width="488"/>
  <unicode hex="0127"/>
  <outline>
    <contour>
      <point x="74" y="560" type="curve"/>
      <point x="100" y="560"/>
      <point x="330" y="560"/>
      <point x="342" y="560" type="curve" smooth="yes"/>
      <point x="346" y="560"/>
      <point x="347" y="556"/>
      <point x="346" y="552" type="curve" smooth="yes"/>
      <point x="345" y="547"/>
      <point x="339" y="532"/>
      <point x="334" y="524" type="curve"/>
      <point x="308" y="524"/>
      <point x="78" y="524"/>
      <point x="66" y="524" type="curve" smooth="yes"/>
      <point x="62" y="524"/>
      <point x="63" y="531"/>
      <point x="64" y="535" type="curve" smooth="yes"/>
      <point x="65" y="540"/>
      <point x="67" y="552"/>
    </contour>
    <component base="h" xOffset="1"/>
  </outline>
</glyph>
<glyph name="kgreenlandic" format="1">
  <advance width="510"/>
  <unicode hex="0138"/>
  <outline>
    <contour>
      <point x="108" y="316" type="curve" smooth="yes"/>
      <point x="109" y="321"/>
      <point x="112" y="343"/>
      <point x="112" y="348" type="curve" smooth="yes"/>
      <point x="112" y="357"/>
      <point x="110" y="372"/>
      <point x="100" y="372" type="curve" smooth="yes"/>
      <point x="78" y="372"/>
      <point x="32" y="316"/>
      <point x="29" y="312" type="curve"/>
      <point x="24" y="312"/>
      <point x="17" y="329"/>
      <point x="17" y="335" type="curve"/>
      <point x="31" y="361"/>
      <point x="108" y="442"/>
      <point x="158" y="442" type="curve" smooth="yes"/>
      <point x="188" y="442"/>
      <point x="210" y="418"/>
      <point x="210" y="380" type="curve" smooth="yes"/>
      <point x="210" y="370"/>
      <point x="208" y="355"/>
      <point x="206" y="339" type="curve"/>
      <point x="206" y="338"/>
      <point x="205" y="333"/>
      <point x="205" y="332" type="curve"/>
      <point x="213" y="347"/>
      <point x="293" y="442"/>
      <point x="378" y="442" type="curve"/>
      <point x="426" y="442"/>
      <point x="458" y="414"/>
      <point x="458" y="372" type="curve" smooth="yes"/>
      <point x="458" y="294"/>
      <point x="359" y="242"/>
      <point x="266" y="220" type="curve"/>
      <point x="318" y="130"/>
      <point x="354" y="66"/>
      <point x="396" y="66" type="curve" smooth="yes"/>
      <point x="416" y="66"/>
      <point x="454" y="110"/>
      <point x="464" y="122" type="curve"/>
      <point x="470" y="122"/>
      <point x="476" y="105"/>
      <point x="476" y="100" type="curve"/>
      <point x="467" y="80"/>
      <point x="392" y="-4"/>
      <point x="340" y="-4" type="curve" smooth="yes"/>
      <point x="262" y="-4"/>
      <point x="210" y="128"/>
      <point x="178" y="200" type="curve"/>
      <point x="170" y="162"/>
      <point x="140" y="0"/>
      <point x="140" y="0" type="curve"/>
      <point x="130" y="-3"/>
      <point x="105" y="-6"/>
      <point x="94" y="-6" type="curve" smooth="yes"/>
      <point x="83" y="-6"/>
      <point x="58" y="-3"/>
      <point x="46" y="0" type="curve"/>
      <point x="49" y="16"/>
      <point x="108" y="316"/>
    </contour>
    <contour>
      <point x="323" y="381" type="curve"/>
      <point x="265" y="381"/>
      <point x="192" y="281"/>
      <point x="186" y="239" type="curve"/>
      <point x="250" y="239"/>
      <point x="354" y="280"/>
      <point x="354" y="348" type="curve"/>
      <point x="354" y="362"/>
      <point x="349" y="381"/>
    </contour>
  </outline>
</glyph>
<glyph name="lslash" format="1">
  <advance width="262"/>
  <unicode hex="0142"/>
  <outline>
    <contour>
      <point x="37" y="289" type="curve" smooth="yes"/>
      <point x="253" y="431" type="line"/>
      <point x="256" y="426"/>
      <point x="266" y="406"/>
      <point x="261" y="403" type="curve" smooth="yes"/>
      <point x="44" y="260" type="line"/>
      <point x="40" y="266"/>
      <point x="32" y="286"/>
    </contour>
    <component base="l" xOffset="11"/>
  </outline>
</glyph>
<glyph name="eng" format="1">
  <advance width="489"/>
  <unicode hex="014B"/>
  <outline>
    <contour>
      <point x="388" y="82" type="line"/>
      <point x="376" y="22"/>
      <point x="351" y="-44"/>
      <point x="309" y="-100" type="curve" smooth="yes"/>
      <point x="267" y="-156"/>
      <point x="178" y="-215"/>
      <point x="146" y="-226" type="curve"/>
      <point x="142" y="-224"/>
      <point x="136" y="-213"/>
      <point x="136" y="-205" type="curve"/>
      <point x="222" y="-145"/>
      <point x="263" y="-69"/>
      <point x="289" y="61" type="curve"/>
      <point x="328" y="253" type="line" smooth="yes"/>
      <point x="330" y="263"/>
      <point x="338" y="308"/>
      <point x="338" y="318" type="curve" smooth="yes"/>
      <point x="338" y="336"/>
      <point x="334" y="350"/>
      <point x="320" y="350" type="curve" smooth="yes"/>
      <point x="287" y="350"/>
      <point x="186" y="232"/>
      <point x="160" y="106" type="curve"/>
      <point x="156" y="82"/>
      <point x="143" y="24"/>
      <point x="138" y="0" type="curve"/>
      <point x="126" y="-2"/>
      <point x="104" y="-5"/>
      <point x="92" y="-5" type="curve" smooth="yes"/>
      <point x="80" y="-5"/>
      <point x="58" y="-2"/>
      <point x="45" y="0" type="curve"/>
      <point x="108" y="316" type="line" smooth="yes"/>
      <point x="109" y="321"/>
      <point x="112" y="343"/>
      <point x="112" y="348" type="curve" smooth="yes"/>
      <point x="112" y="357"/>
      <point x="110" y="372"/>
      <point x="100" y="372" type="curve" smooth="yes"/>
      <point x="78" y="372"/>
      <point x="32" y="316"/>
      <point x="29" y="312" type="curve"/>
      <point x="24" y="312"/>
      <point x="17" y="329"/>
      <point x="17" y="335" type="curve"/>
      <point x="31" y="361"/>
      <point x="108" y="442"/>
      <point x="158" y="442" type="curve" smooth="yes"/>
      <point x="188" y="442"/>
      <point x="210" y="418"/>
      <point x="210" y="380" type="curve" smooth="yes"/>
      <point x="210" y="369"/>
      <point x="206" y="340"/>
      <point x="202" y="324" type="curve"/>
      <point x="200" y="317"/>
      <point x="190" y="270"/>
      <point x="188" y="260" type="curve"/>
      <point x="210" y="306"/>
      <point x="312" y="442"/>
      <point x="370" y="442" type="curve"/>
      <point x="421" y="442"/>
      <point x="438" y="415"/>
      <point x="438" y="366" type="curve" smooth="yes"/>
      <point x="438" y="334"/>
      <point x="426" y="276"/>
      <point x="420" y="246" type="curve" smooth="yes"/>
    </contour>
  </outline>
</glyph>
<glyph name="Tbar" format="1">
  <advance width="589"/>
  <unicode hex="0166"/>
  <outline>
    <contour>
      <point x="155" y="346" type="curve"/>
      <point x="183" y="346"/>
      <point x="467" y="346"/>
      <point x="480" y="346" type="curve" smooth="yes"/>
      <point x="484" y="346"/>
      <point x="485" y="340"/>
      <point x="484" y="336" type="curve" smooth="yes"/>
      <point x="483" y="330"/>
      <point x="478" y="314"/>
      <point x="473" y="306" type="curve"/>
      <point x="445" y="306"/>
      <point x="161" y="306"/>
      <point x="148" y="306" type="curve" smooth="yes"/>
      <point x="144" y="306"/>
      <point x="143" y="314"/>
      <point x="144" y="318" type="curve" smooth="yes"/>
      <point x="145" y="324"/>
      <point x="148" y="338"/>
    </contour>
    <component base="T" xOffset="1"/>
  </outline>
</glyph>
<glyph name="tbar" format="1">
  <advance width="317"/>
  <unicode hex="0167"/>
  <outline>
    <contour>
      <point x="36" y="317" type="curve"/>
      <point x="64" y="317"/>
      <point x="275" y="317"/>
      <point x="288" y="317" type="curve" smooth="yes"/>
      <point x="292" y="317"/>
      <point x="293" y="312"/>
      <point x="292" y="308" type="curve" smooth="yes"/>
      <point x="291" y="302"/>
      <point x="286" y="285"/>
      <point x="281" y="277" type="curve"/>
      <point x="254" y="277"/>
      <point x="42" y="277"/>
      <point x="29" y="277" type="curve" smooth="yes"/>
      <point x="25" y="277"/>
      <point x="25" y="285"/>
      <point x="26" y="289" type="curve" smooth="yes"/>
      <point x="27" y="295"/>
      <point x="29" y="309"/>
    </contour>
    <component base="t" xOffset="13"/>
  </outline>
</glyph>
<glyph name="Uogonek" format="1">
  <advance width="688"/>
  <unicode hex="0172"/>
  <outline>
    <contour>
      <point x="292" y="-130" type="curve" smooth="yes"/>
      <point x="292" y="-150"/>
      <point x="301" y="-164"/>
      <point x="326" y="-164" type="curve" smooth="yes"/>
      <point x="370" y="-164"/>
      <point x="398" y="-128"/>
      <point x="404" y="-126" type="curve"/>
      <point x="412" y="-127"/>
      <point x="406" y="-151"/>
      <point x="403" y="-154" type="curve" smooth="yes"/>
      <point x="379" y="-188"/>
      <point x="332" y="-224"/>
      <point x="290" y="-224" type="curve" smooth="yes"/>
      <point x="256" y="-224"/>
      <point x="235" y="-195"/>
      <point x="235" y="-168" type="curve" smooth="yes"/>
      <point x="235" y="-112"/>
      <point x="296" y="-45"/>
      <point x="344" y="-2" type="curve"/>
      <point x="325" y="-6"/>
      <point x="305" y="-6"/>
      <point x="285" y="-6" type="curve" smooth="yes"/>
      <point x="209" y="-6"/>
      <point x="148" y="21"/>
      <point x="115" y="76" type="curve" smooth="yes"/>
      <point x="87" y="122"/>
      <point x="82" y="187"/>
      <point x="99" y="276" type="curve" smooth="yes"/>
      <point x="148" y="528" type="line" smooth="yes"/>
      <point x="155" y="564"/>
      <point x="161" y="594"/>
      <point x="158" y="612" type="curve" smooth="yes"/>
      <point x="156" y="624"/>
      <point x="112" y="629"/>
      <point x="100" y="629" type="curve"/>
      <point x="97" y="635"/>
      <point x="100" y="656"/>
      <point x="106" y="662" type="curve"/>
      <point x="142" y="659"/>
      <point x="188" y="656"/>
      <point x="226" y="656" type="curve" smooth="yes"/>
      <point x="264" y="656"/>
      <point x="309" y="659"/>
      <point x="347" y="662" type="curve"/>
      <point x="351" y="656"/>
      <point x="347" y="635"/>
      <point x="341" y="629" type="curve"/>
      <point x="329" y="629"/>
      <point x="282" y="624"/>
      <point x="276" y="612" type="curve" smooth="yes"/>
      <point x="266" y="594"/>
      <point x="260" y="564"/>
      <point x="253" y="528" type="curve" smooth="yes"/>
      <point x="212" y="313" type="line" smooth="yes"/>
      <point x="198" y="241"/>
      <point x="195" y="186"/>
      <point x="209" y="140" type="curve" smooth="yes"/>
      <point x="228" y="73"/>
      <point x="283" y="59"/>
      <point x="331" y="59" type="curve" smooth="yes"/>
      <point x="416" y="59"/>
      <point x="507" y="118"/>
      <point x="542" y="292" type="curve"/>
      <point x="585" y="512" type="line" smooth="yes"/>
      <point x="593" y="552"/>
      <point x="597" y="590"/>
      <point x="592" y="608" type="curve" smooth="yes"/>
      <point x="588" y="622"/>
      <point x="542" y="630"/>
      <point x="528" y="630" type="curve"/>
      <point x="525" y="637"/>
      <point x="530" y="656"/>
      <point x="534" y="662" type="curve"/>
      <point x="574" y="659"/>
      <point x="600" y="656"/>
      <point x="642" y="656" type="curve" smooth="yes"/>
      <point x="684" y="656"/>
      <point x="707" y="660"/>
      <point x="748" y="662" type="curve"/>
      <point x="750" y="656"/>
      <point x="748" y="639"/>
      <point x="742" y="630" type="curve"/>
      <point x="730" y="630"/>
      <point x="676" y="624"/>
      <point x="666" y="608" type="curve" smooth="yes"/>
      <point x="655" y="590"/>
      <point x="644" y="553"/>
      <point x="636" y="513" type="curve" smooth="yes"/>
      <point x="591" y="281" type="line" smooth="yes"/>
      <point x="567" y="161"/>
      <point x="512" y="82"/>
      <point x="443" y="38" type="curve" smooth="yes"/>
      <point x="377" y="-6"/>
      <point x="292" y="-80"/>
    </contour>
  </outline>
</glyph>
<glyph name="uni02BE" format="1">
  <advance width="189"/>
  <unicode hex="02BE"/>
  <outline>
    <contour>
      <point x="66" y="700" type="curve"/>
      <point x="142" y="700"/>
      <point x="181" y="636"/>
      <point x="169" y="574" type="curve" smooth="yes"/>
      <point x="155" y="502"/>
      <point x="92" y="443"/>
      <point x="15" y="443" type="curve"/>
      <point x="16" y="453"/>
      <point x="18" y="462"/>
      <point x="21" y="472" type="curve"/>
      <point x="67" y="472"/>
      <point x="109" y="531"/>
      <point x="117" y="574" type="curve" smooth="yes"/>
      <point x="127" y="626"/>
      <point x="107" y="672"/>
      <point x="61" y="672" type="curve"/>
      <point x="60" y="682"/>
      <point x="63" y="690"/>
    </contour>
  </outline>
</glyph>
<glyph name="uni02BF" format="1">
  <advance width="189"/>
  <unicode hex="02BF"/>
  <outline>
    <contour>
      <point x="173" y="700" type="curve"/>
      <point x="172" y="690"/>
      <point x="173" y="682"/>
      <point x="168" y="672" type="curve"/>
      <point x="122" y="672"/>
      <point x="82" y="626"/>
      <point x="72" y="574" type="curve" smooth="yes"/>
      <point x="64" y="531"/>
      <point x="84" y="472"/>
      <point x="130" y="472" type="curve"/>
      <point x="129" y="462"/>
      <point x="127" y="453"/>
      <point x="124" y="443" type="curve"/>
      <point x="47" y="443"/>
      <point x="6" y="502"/>
      <point x="20" y="574" type="curve" smooth="yes"/>
      <point x="32" y="636"/>
      <point x="97" y="700"/>
    </contour>
  </outline>
</glyph>
<glyph name="gravecomb" format="1">
  <advance width="227"/>
  <unicode hex="0300"/>
  <outline>
    <contour>
      <point x="325" y="530" type="curve"/>
      <point x="309" y="532"/>
      <point x="162" y="607"/>
      <point x="162" y="634" type="curve" smooth="yes"/>
      <point x="162" y="659"/>
      <point x="189" y="670"/>
      <point x="204" y="670" type="curve" smooth="yes"/>
      <point x="218" y="670"/>
      <point x="231" y="666"/>
      <point x="238" y="660" type="curve" smooth="yes"/>
      <point x="260" y="641"/>
      <point x="332" y="549"/>
      <point x="334" y="540" type="curve"/>
      <point x="334" y="536"/>
      <point x="328" y="531"/>
    </contour>
  </outline>
</glyph>
<glyph name="acutecomb" format="1">
  <advance width="221"/>
  <unicode hex="0301"/>
  <outline>
    <contour>
      <point x="164" y="530" type="curve"/>
      <point x="161" y="531"/>
      <point x="156" y="536"/>
      <point x="156" y="540" type="curve"/>
      <point x="158" y="549"/>
      <point x="230" y="641"/>
      <point x="252" y="660" type="curve" smooth="yes"/>
      <point x="259" y="666"/>
      <point x="272" y="670"/>
      <point x="286" y="670" type="curve" smooth="yes"/>
      <point x="301" y="670"/>
      <point x="328" y="659"/>
      <point x="328" y="634" type="curve" smooth="yes"/>
      <point x="328" y="607"/>
      <point x="180" y="532"/>
    </contour>
  </outline>
</glyph>
<glyph name="tildecomb" format="1">
  <advance width="346"/>
  <unicode hex="0303"/>
  <outline>
    <contour>
      <point x="264" y="707" type="curve" smooth="yes"/>
      <point x="288" y="707"/>
      <point x="305" y="700"/>
      <point x="321" y="692" type="curve" smooth="yes"/>
      <point x="341" y="682"/>
      <point x="357" y="668"/>
      <point x="387" y="668" type="curve" smooth="yes"/>
      <point x="419" y="668"/>
      <point x="446" y="699"/>
      <point x="453" y="707" type="curve"/>
      <point x="456" y="706"/>
      <point x="460" y="704"/>
      <point x="459" y="696" type="curve" smooth="yes"/>
      <point x="457" y="681"/>
      <point x="447" y="665"/>
      <point x="438" y="656" type="curve" smooth="yes"/>
      <point x="412" y="630"/>
      <point x="387" y="622"/>
      <point x="359" y="622" type="curve" smooth="yes"/>
      <point x="335" y="622"/>
      <point x="321" y="627"/>
      <point x="303" y="636" type="curve" smooth="yes"/>
      <point x="283" y="646"/>
      <point x="264" y="661"/>
      <point x="235" y="661" type="curve" smooth="yes"/>
      <point x="203" y="661"/>
      <point x="176" y="630"/>
      <point x="169" y="622" type="curve"/>
      <point x="166" y="623"/>
      <point x="162" y="625"/>
      <point x="163" y="633" type="curve" smooth="yes"/>
      <point x="165" y="648"/>
      <point x="175" y="663"/>
      <point x="184" y="672" type="curve" smooth="yes"/>
      <point x="210" y="698"/>
      <point x="237" y="707"/>
    </contour>
  </outline>
</glyph>
<glyph name="uni0304" format="1">
  <advance width="352"/>
  <unicode hex="0304"/>
  <outline>
    <contour>
      <point x="386" y="552" type="curve"/>
      <point x="167" y="552" type="line"/>
      <point x="167" y="552"/>
      <point x="164" y="554"/>
      <point x="164" y="560" type="curve" smooth="yes"/>
      <point x="164" y="567"/>
      <point x="172" y="593"/>
      <point x="177" y="593" type="curve" smooth="yes"/>
      <point x="392" y="593" type="line" smooth="yes"/>
      <point x="394" y="593"/>
      <point x="396" y="590"/>
      <point x="396" y="586" type="curve" smooth="yes"/>
      <point x="396" y="581"/>
      <point x="394" y="561"/>
    </contour>
  </outline>
</glyph>
<glyph name="uni0306" format="1">
  <advance width="230"/>
  <unicode hex="0306"/>
  <outline>
    <contour>
      <point x="224" y="571" type="curve" smooth="yes"/>
      <point x="262" y="571"/>
      <point x="300" y="595"/>
      <point x="318" y="638" type="curve" smooth="yes"/>
      <point x="318" y="640"/>
      <point x="320" y="641"/>
      <point x="322" y="641" type="curve" smooth="yes"/>
      <point x="328" y="641"/>
      <point x="337" y="633"/>
      <point x="336" y="628" type="curve" smooth="yes"/>
      <point x="336" y="627"/>
      <point x="334" y="622"/>
      <point x="334" y="620" type="curve" smooth="yes"/>
      <point x="315" y="567"/>
      <point x="264" y="520"/>
      <point x="214" y="520" type="curve" smooth="yes"/>
      <point x="164" y="520"/>
      <point x="130" y="564"/>
      <point x="133" y="621" type="curve" smooth="yes"/>
      <point x="133" y="623"/>
      <point x="134" y="627"/>
      <point x="134" y="628" type="curve" smooth="yes"/>
      <point x="135" y="633"/>
      <point x="147" y="641"/>
      <point x="153" y="641" type="curve" smooth="yes"/>
      <point x="155" y="641"/>
      <point x="156" y="640"/>
      <point x="156" y="638" type="curve" smooth="yes"/>
      <point x="157" y="595"/>
      <point x="189" y="571"/>
    </contour>
  </outline>
</glyph>
<glyph name="uni0307" format="1">
  <advance width="250"/>
  <unicode hex="0307"/>
  <outline>
    <contour>
      <point x="188" y="581" type="curve" smooth="yes"/>
      <point x="194" y="613"/>
      <point x="225" y="639"/>
      <point x="255" y="639" type="curve"/>
      <point x="285" y="639"/>
      <point x="304" y="613"/>
      <point x="298" y="581" type="curve" smooth="yes"/>
      <point x="292" y="549"/>
      <point x="262" y="520"/>
      <point x="232" y="520" type="curve"/>
      <point x="201" y="520"/>
      <point x="182" y="549"/>
    </contour>
  </outline>
</glyph>
<glyph name="hookabovecomb" format="1">
  <advance width="164"/>
  <unicode hex="0309"/>
  <outline>
    <contour>
      <point x="235" y="665" type="curve" smooth="yes"/>
      <point x="271" y="665"/>
      <point x="287" y="642"/>
      <point x="281" y="610" type="curve" smooth="yes"/>
      <point x="275" y="575"/>
      <point x="245" y="550"/>
      <point x="220" y="540" type="curve" smooth="yes"/>
      <point x="200" y="532"/>
      <point x="190" y="526"/>
      <point x="188" y="514" type="curve" smooth="yes"/>
      <point x="187" y="509"/>
      <point x="188" y="503"/>
      <point x="189" y="500" type="curve"/>
      <point x="188" y="496"/>
      <point x="170" y="489"/>
      <point x="161" y="489" type="curve"/>
      <point x="157" y="491"/>
      <point x="144" y="502"/>
      <point x="146" y="514" type="curve" smooth="yes"/>
      <point x="151" y="540"/>
      <point x="180" y="552"/>
      <point x="196" y="560" type="curve" smooth="yes"/>
      <point x="218" y="570"/>
      <point x="231" y="582"/>
      <point x="235" y="600" type="curve" smooth="yes"/>
      <point x="237" y="614"/>
      <point x="235" y="631"/>
      <point x="217" y="631" type="curve" smooth="yes"/>
      <point x="197" y="631"/>
      <point x="184" y="618"/>
      <point x="180" y="595" type="curve" smooth="yes"/>
      <point x="177" y="579"/>
      <point x="155" y="574"/>
      <point x="143" y="574" type="curve" smooth="yes"/>
      <point x="135" y="574"/>
      <point x="127" y="579"/>
      <point x="128" y="587" type="curve" smooth="yes"/>
      <point x="136" y="629"/>
      <point x="192" y="665"/>
    </contour>
  </outline>
</glyph>
<glyph name="uni030B" format="1">
  <advance width="311"/>
  <unicode hex="030B"/>
  <outline>
    <contour>
      <point x="272" y="518" type="curve"/>
      <point x="268" y="520"/>
      <point x="264" y="525"/>
      <point x="264" y="531" type="curve"/>
      <point x="266" y="540"/>
      <point x="332" y="627"/>
      <point x="368" y="657" type="curve" smooth="yes"/>
      <point x="372" y="661"/>
      <point x="381" y="664"/>
      <point x="392" y="664" type="curve" smooth="yes"/>
      <point x="416" y="664"/>
      <point x="438" y="648"/>
      <point x="438" y="630" type="curve" smooth="yes"/>
      <point x="438" y="593"/>
      <point x="282" y="518"/>
    </contour>
    <contour>
      <point x="131" y="518" type="curve"/>
      <point x="127" y="520"/>
      <point x="122" y="525"/>
      <point x="122" y="531" type="curve"/>
      <point x="124" y="540"/>
      <point x="190" y="627"/>
      <point x="226" y="657" type="curve" smooth="yes"/>
      <point x="230" y="661"/>
      <point x="240" y="664"/>
      <point x="251" y="664" type="curve" smooth="yes"/>
      <point x="275" y="664"/>
      <point x="297" y="648"/>
      <point x="297" y="630" type="curve" smooth="yes"/>
      <point x="297" y="593"/>
      <point x="141" y="518"/>
    </contour>
  </outline>
</glyph>
<glyph name="uni0326" format="1">
  <advance width="139"/>
  <unicode hex="0326"/>
  <outline>
    <contour>
      <point x="8" y="-84" type="curve" smooth="yes"/>
      <point x="8" y="-50"/>
      <point x="66" y="-35"/>
      <point x="108" y="-35" type="curve"/>
      <point x="120" y="-45"/>
      <point x="120" y="-63"/>
      <point x="120" y="-78" type="curve" smooth="yes"/>
      <point x="120" y="-130"/>
      <point x="46" y="-190"/>
      <point x="8" y="-204" type="curve"/>
      <point x="7" y="-204"/>
      <point x="4" y="-206"/>
      <point x="2" y="-206" type="curve" smooth="yes"/>
      <point x="-8" y="-206"/>
      <point x="-17" y="-200"/>
      <point x="-17" y="-195" type="curve" smooth="yes"/>
      <point x="-17" y="-191"/>
      <point x="33" y="-171"/>
      <point x="37" y="-138" type="curve" smooth="yes"/>
      <point x="40" y="-112"/>
      <point x="8" y="-110"/>
    </contour>
  </outline>
</glyph>
<glyph name="endash" format="1">
  <advance width="545"/>
  <unicode hex="2013"/>
  <outline>
    <contour>
      <point x="473" y="265" type="line" smooth="yes"/>
      <point x="479" y="265"/>
      <point x="480" y="256"/>
      <point x="480" y="250" type="curve" smooth="yes"/>
      <point x="480" y="232"/>
      <point x="466" y="203"/>
      <point x="458" y="197" type="curve"/>
      <point x="56" y="197" type="line" smooth="yes"/>
      <point x="50" y="197"/>
      <point x="50" y="206"/>
      <point x="50" y="212" type="curve" smooth="yes"/>
      <point x="50" y="230"/>
      <point x="64" y="259"/>
      <point x="72" y="265" type="curve"/>
    </contour>
  </outline>
</glyph>
<glyph name="afii00208" format="1">
  <advance width="1069"/>
  <unicode hex="2015"/>
  <outline>
    <contour>
      <point x="996" y="265" type="line" smooth="yes"/>
      <point x="1002" y="265"/>
      <point x="1003" y="256"/>
      <point x="1003" y="250" type="curve" smooth="yes"/>
      <point x="1003" y="232"/>
      <point x="989" y="203"/>
      <point x="981" y="197" type="curve"/>
      <point x="58" y="197" type="line" smooth="yes"/>
      <point x="52" y="197"/>
      <point x="52" y="206"/>
      <point x="52" y="212" type="curve" smooth="yes"/>
      <point x="52" y="230"/>
      <point x="66" y="259"/>
      <point x="74" y="265" type="curve"/>
    </contour>
  </outline>
</glyph>
<glyph name="quoteleft" format="1">
  <advance width="187"/>
  <unicode hex="2018"/>
  <outline>
    <contour>
      <point x="101" y="555" type="curve" smooth="yes"/>
      <point x="119" y="649"/>
      <point x="225" y="706"/>
      <point x="233" y="706" type="curve" smooth="yes"/>
      <point x="240" y="706"/>
      <point x="246" y="699"/>
      <point x="248" y="688" type="curve"/>
      <point x="185" y="652"/>
      <point x="174" y="615"/>
      <point x="172" y="606" type="curve" smooth="yes"/>
      <point x="168" y="586"/>
      <point x="176" y="570"/>
      <point x="183" y="558" type="curve" smooth="yes"/>
      <point x="190" y="546"/>
      <point x="198" y="537"/>
      <point x="195" y="524" type="curve" smooth="yes"/>
      <point x="190" y="500"/>
      <point x="156" y="478"/>
      <point x="126" y="478" type="curve" smooth="yes"/>
      <point x="119" y="478"/>
      <point x="109" y="481"/>
      <point x="102" y="485" type="curve"/>
      <point x="96" y="498"/>
      <point x="96" y="527"/>
    </contour>
  </outline>
</glyph>
<glyph name="quotesinglbase" format="1">
  <advance width="198"/>
  <unicode hex="201A"/>
  <outline>
    <contour>
      <point x="105" y="48" type="curve" smooth="yes"/>
      <point x="87" y="-46"/>
      <point x="-18" y="-102"/>
      <point x="-26" y="-102" type="curve" smooth="yes"/>
      <point x="-33" y="-102"/>
      <point x="-40" y="-95"/>
      <point x="-42" y="-84" type="curve"/>
      <point x="21" y="-48"/>
      <point x="34" y="-11"/>
      <point x="36" y="-2" type="curve" smooth="yes"/>
      <point x="40" y="18"/>
      <point x="31" y="32"/>
      <point x="24" y="44" type="curve" smooth="yes"/>
      <point x="17" y="56"/>
      <point x="9" y="66"/>
      <point x="12" y="79" type="curve" smooth="yes"/>
      <point x="17" y="103"/>
      <point x="51" y="126"/>
      <point x="81" y="126" type="curve" smooth="yes"/>
      <point x="88" y="126"/>
      <point x="98" y="122"/>
      <point x="105" y="118" type="curve"/>
      <point x="111" y="105"/>
      <point x="110" y="76"/>
    </contour>
  </outline>
</glyph>
<glyph name="quotereversed" format="1">
  <advance width="195"/>
  <unicode hex="201B"/>
  <outline>
    <contour>
      <point x="106" y="630" type="curve" smooth="yes"/>
      <point x="114" y="658"/>
      <point x="126" y="687"/>
      <point x="138" y="700" type="curve"/>
      <point x="147" y="704"/>
      <point x="159" y="707"/>
      <point x="166" y="707" type="curve" smooth="yes"/>
      <point x="196" y="707"/>
      <point x="217" y="684"/>
      <point x="211" y="660" type="curve" smooth="yes"/>
      <point x="208" y="647"/>
      <point x="197" y="638"/>
      <point x="184" y="626" type="curve" smooth="yes"/>
      <point x="171" y="614"/>
      <point x="157" y="600"/>
      <point x="152" y="580" type="curve" smooth="yes"/>
      <point x="150" y="571"/>
      <point x="143" y="533"/>
      <point x="189" y="497" type="curve"/>
      <point x="182" y="486"/>
      <point x="172" y="479"/>
      <point x="165" y="479" type="curve" smooth="yes"/>
      <point x="157" y="479"/>
      <point x="80" y="536"/>
    </contour>
  </outline>
</glyph>
<glyph name="quotedblright" format="1">
  <advance width="332"/>
  <unicode hex="201D"/>
  <outline>
    <contour>
      <point x="230" y="629" type="curve" smooth="yes"/>
      <point x="212" y="535"/>
      <point x="108" y="478"/>
      <point x="100" y="478" type="curve" smooth="yes"/>
      <point x="93" y="478"/>
      <point x="86" y="485"/>
      <point x="84" y="496" type="curve"/>
      <point x="147" y="532"/>
      <point x="159" y="569"/>
      <point x="161" y="578" type="curve" smooth="yes"/>
      <point x="165" y="597"/>
      <point x="159" y="611"/>
      <point x="152" y="622" type="curve" smooth="yes"/>
      <point x="144" y="634"/>
      <point x="135" y="646"/>
      <point x="138" y="660" type="curve" smooth="yes"/>
      <point x="143" y="684"/>
      <point x="175" y="706"/>
      <point x="205" y="706" type="curve" smooth="yes"/>
      <point x="212" y="706"/>
      <point x="223" y="703"/>
      <point x="230" y="699" type="curve"/>
      <point x="236" y="686"/>
      <point x="235" y="657"/>
    </contour>
    <contour>
      <point x="366" y="629" type="curve" smooth="yes"/>
      <point x="348" y="535"/>
      <point x="243" y="478"/>
      <point x="235" y="478" type="curve" smooth="yes"/>
      <point x="228" y="478"/>
      <point x="221" y="485"/>
      <point x="219" y="496" type="curve"/>
      <point x="282" y="532"/>
      <point x="294" y="569"/>
      <point x="296" y="578" type="curve" smooth="yes"/>
      <point x="300" y="598"/>
      <point x="292" y="612"/>
      <point x="285" y="624" type="curve" smooth="yes"/>
      <point x="278" y="636"/>
      <point x="270" y="646"/>
      <point x="273" y="660" type="curve" smooth="yes"/>
      <point x="278" y="684"/>
      <point x="311" y="706"/>
      <point x="341" y="706" type="curve" smooth="yes"/>
      <point x="348" y="706"/>
      <point x="359" y="703"/>
      <point x="366" y="699" type="curve"/>
      <point x="372" y="686"/>
      <point x="371" y="657"/>
    </contour>
  </outline>
</glyph>
<glyph name="dagger" format="1">
  <advance width="369"/>
  <unicode hex="2020"/>
  <outline>
    <contour>
      <point x="184" y="487" type="curve" smooth="yes"/>
      <point x="198" y="487"/>
      <point x="204" y="492"/>
      <point x="216" y="505" type="curve"/>
      <point x="222" y="538"/>
      <point x="226" y="606"/>
      <point x="212" y="625" type="curve"/>
      <point x="216" y="646"/>
      <point x="237" y="662"/>
      <point x="258" y="662" type="curve" smooth="yes"/>
      <point x="278" y="662"/>
      <point x="297" y="646"/>
      <point x="293" y="625" type="curve"/>
      <point x="272" y="606"/>
      <point x="250" y="538"/>
      <point x="244" y="505" type="curve"/>
      <point x="251" y="492"/>
      <point x="257" y="487"/>
      <point x="269" y="487" type="curve" smooth="yes"/>
      <point x="300" y="487"/>
      <point x="329" y="501"/>
      <point x="350" y="520" type="curve"/>
      <point x="370" y="520"/>
      <point x="379" y="498"/>
      <point x="377" y="478" type="curve" smooth="yes"/>
      <point x="375" y="457"/>
      <point x="354" y="434"/>
      <point x="334" y="434" type="curve"/>
      <point x="320" y="453"/>
      <point x="294" y="464"/>
      <point x="264" y="464" type="curve" smooth="yes"/>
      <point x="248" y="464"/>
      <point x="234" y="448"/>
      <point x="232" y="436" type="curve"/>
      <point x="235" y="419"/>
      <point x="241" y="394"/>
      <point x="247" y="365" type="curve"/>
      <point x="200" y="227"/>
      <point x="189" y="178"/>
      <point x="138" y="-3" type="curve"/>
      <point x="134" y="-9"/>
      <point x="133" y="-15"/>
      <point x="129" y="-16" type="curve"/>
      <point x="126" y="-15"/>
      <point x="126" y="-7"/>
      <point x="124" y="-3" type="curve"/>
      <point x="143" y="178"/>
      <point x="151" y="227"/>
      <point x="157" y="365" type="curve"/>
      <point x="172" y="390"/>
      <point x="190" y="419"/>
      <point x="200" y="436" type="curve"/>
      <point x="202" y="448"/>
      <point x="194" y="464"/>
      <point x="180" y="464" type="curve" smooth="yes"/>
      <point x="148" y="464"/>
      <point x="119" y="453"/>
      <point x="98" y="434" type="curve"/>
      <point x="78" y="434"/>
      <point x="69" y="453"/>
      <point x="71" y="474" type="curve" smooth="yes"/>
      <point x="73" y="495"/>
      <point x="95" y="520"/>
      <point x="115" y="520" type="curve"/>
      <point x="129" y="501"/>
      <point x="153" y="487"/>
    </contour>
  </outline>
</glyph>
<glyph name="daggerdbl" format="1">
  <advance width="385"/>
  <unicode hex="2021"/>
  <outline>
    <contour>
      <point x="239" y="281" type="curve"/>
      <point x="222" y="252"/>
      <point x="206" y="227"/>
      <point x="196" y="210" type="curve"/>
      <point x="194" y="198"/>
      <point x="203" y="182"/>
      <point x="217" y="182" type="curve" smooth="yes"/>
      <point x="249" y="182"/>
      <point x="277" y="193"/>
      <point x="298" y="212" type="curve"/>
      <point x="318" y="212"/>
      <point x="330" y="191"/>
      <point x="326" y="170" type="curve" smooth="yes"/>
      <point x="322" y="149"/>
      <point x="301" y="126"/>
      <point x="281" y="126" type="curve"/>
      <point x="267" y="145"/>
      <point x="244" y="159"/>
      <point x="213" y="159" type="curve" smooth="yes"/>
      <point x="201" y="159"/>
      <point x="193" y="154"/>
      <point x="181" y="141" type="curve"/>
      <point x="175" y="108"/>
      <point x="169" y="40"/>
      <point x="183" y="21" type="curve"/>
      <point x="179" y="0"/>
      <point x="157" y="-16"/>
      <point x="137" y="-16" type="curve" smooth="yes"/>
      <point x="116" y="-16"/>
      <point x="99" y="0"/>
      <point x="103" y="21" type="curve"/>
      <point x="124" y="40"/>
      <point x="147" y="108"/>
      <point x="153" y="141" type="curve"/>
      <point x="146" y="154"/>
      <point x="141" y="159"/>
      <point x="128" y="159" type="curve" smooth="yes"/>
      <point x="97" y="159"/>
      <point x="67" y="145"/>
      <point x="46" y="126" type="curve"/>
      <point x="26" y="126"/>
      <point x="16" y="149"/>
      <point x="20" y="170" type="curve" smooth="yes"/>
      <point x="24" y="191"/>
      <point x="43" y="212"/>
      <point x="63" y="212" type="curve"/>
      <point x="77" y="193"/>
      <point x="101" y="182"/>
      <point x="132" y="182" type="curve" smooth="yes"/>
      <point x="146" y="182"/>
      <point x="162" y="198"/>
      <point x="164" y="210" type="curve"/>
      <point x="161" y="227"/>
      <point x="153" y="256"/>
      <point x="148" y="281" type="curve"/>
      <point x="163" y="295"/>
      <point x="176" y="312"/>
      <point x="184" y="324" type="curve"/>
      <point x="180" y="336"/>
      <point x="173" y="349"/>
      <point x="165" y="365" type="curve"/>
      <point x="180" y="390"/>
      <point x="198" y="419"/>
      <point x="208" y="436" type="curve"/>
      <point x="210" y="448"/>
      <point x="201" y="464"/>
      <point x="187" y="464" type="curve" smooth="yes"/>
      <point x="155" y="464"/>
      <point x="127" y="453"/>
      <point x="106" y="434" type="curve"/>
      <point x="86" y="434"/>
      <point x="75" y="455"/>
      <point x="79" y="476" type="curve" smooth="yes"/>
      <point x="83" y="497"/>
      <point x="103" y="520"/>
      <point x="123" y="520" type="curve"/>
      <point x="137" y="501"/>
      <point x="161" y="487"/>
      <point x="192" y="487" type="curve" smooth="yes"/>
      <point x="204" y="487"/>
      <point x="211" y="492"/>
      <point x="223" y="505" type="curve"/>
      <point x="229" y="538"/>
      <point x="234" y="606"/>
      <point x="220" y="625" type="curve"/>
      <point x="224" y="646"/>
      <point x="247" y="662"/>
      <point x="268" y="662" type="curve" smooth="yes"/>
      <point x="288" y="662"/>
      <point x="305" y="646"/>
      <point x="301" y="625" type="curve"/>
      <point x="280" y="606"/>
      <point x="257" y="538"/>
      <point x="251" y="505" type="curve"/>
      <point x="258" y="492"/>
      <point x="264" y="487"/>
      <point x="276" y="487" type="curve" smooth="yes"/>
      <point x="307" y="487"/>
      <point x="337" y="501"/>
      <point x="358" y="520" type="curve"/>
      <point x="378" y="520"/>
      <point x="389" y="497"/>
      <point x="385" y="476" type="curve" smooth="yes"/>
      <point x="381" y="455"/>
      <point x="362" y="434"/>
      <point x="342" y="434" type="curve"/>
      <point x="328" y="453"/>
      <point x="303" y="464"/>
      <point x="272" y="464" type="curve" smooth="yes"/>
      <point x="258" y="464"/>
      <point x="241" y="448"/>
      <point x="239" y="436" type="curve"/>
      <point x="242" y="419"/>
      <point x="249" y="394"/>
      <point x="255" y="365" type="curve"/>
      <point x="241" y="351"/>
      <point x="228" y="336"/>
      <point x="220" y="324" type="curve"/>
      <point x="222" y="314"/>
      <point x="228" y="297"/>
    </contour>
  </outline>
</glyph>
<glyph name="perthousand" format="1">
  <advance width="982"/>
  <unicode hex="2030"/>
  <outline>
    <contour>
      <point x="815" y="286" type="curve"/>
      <point x="756" y="286"/>
      <point x="719" y="185"/>
      <point x="722" y="109" type="curve"/>
      <point x="723" y="75"/>
      <point x="735" y="25"/>
      <point x="770" y="25" type="curve"/>
      <point x="829" y="25"/>
      <point x="861" y="128"/>
      <point x="859" y="202" type="curve"/>
      <point x="858" y="236"/>
      <point x="848" y="286"/>
    </contour>
    <contour>
      <point x="823" y="314" type="curve"/>
      <point x="891" y="314"/>
      <point x="934" y="272"/>
      <point x="937" y="198" type="curve"/>
      <point x="940" y="102"/>
      <point x="851" y="-4"/>
      <point x="759" y="-4" type="curve"/>
      <point x="691" y="-4"/>
      <point x="647" y="44"/>
      <point x="645" y="110" type="curve"/>
      <point x="642" y="206"/>
      <point x="729" y="314"/>
    </contour>
    <contour>
      <point x="495" y="286" type="curve"/>
      <point x="436" y="286"/>
      <point x="399" y="185"/>
      <point x="402" y="109" type="curve"/>
      <point x="403" y="75"/>
      <point x="415" y="25"/>
      <point x="450" y="25" type="curve"/>
      <point x="509" y="25"/>
      <point x="541" y="128"/>
      <point x="539" y="202" type="curve"/>
      <point x="538" y="236"/>
      <point x="528" y="286"/>
    </contour>
    <contour>
      <point x="503" y="314" type="curve"/>
      <point x="571" y="314"/>
      <point x="614" y="272"/>
      <point x="617" y="198" type="curve"/>
      <point x="620" y="102"/>
      <point x="531" y="-4"/>
      <point x="439" y="-4" type="curve"/>
      <point x="371" y="-4"/>
      <point x="327" y="44"/>
      <point x="325" y="110" type="curve"/>
      <point x="322" y="206"/>
      <point x="409" y="314"/>
    </contour>
    <contour>
      <point x="244" y="630" type="curve"/>
      <point x="185" y="630"/>
      <point x="148" y="529"/>
      <point x="151" y="453" type="curve"/>
      <point x="152" y="419"/>
      <point x="164" y="369"/>
      <point x="199" y="369" type="curve"/>
      <point x="258" y="369"/>
      <point x="290" y="472"/>
      <point x="288" y="546" type="curve"/>
      <point x="287" y="580"/>
      <point x="277" y="630"/>
    </contour>
    <contour>
      <point x="252" y="658" type="curve"/>
      <point x="320" y="658"/>
      <point x="363" y="616"/>
      <point x="366" y="542" type="curve"/>
      <point x="369" y="446"/>
      <point x="280" y="340"/>
      <point x="188" y="340" type="curve"/>
      <point x="120" y="340"/>
      <point x="76" y="388"/>
      <point x="74" y="454" type="curve"/>
      <point x="71" y="550"/>
      <point x="158" y="658"/>
    </contour>
    <contour>
      <point x="620" y="634" type="curve"/>
      <point x="99" y="-7" type="line"/>
      <point x="97" y="-9"/>
      <point x="73" y="-10"/>
      <point x="66" y="-4" type="curve"/>
      <point x="62" y="-3"/>
      <point x="59" y="0"/>
      <point x="59" y="5" type="curve"/>
      <point x="580" y="648" type="line"/>
      <point x="582" y="650"/>
      <point x="603" y="649"/>
      <point x="608" y="643" type="curve"/>
      <point x="614" y="642"/>
      <point x="618" y="640"/>
    </contour>
  </outline>
</glyph>
<glyph name="minute" format="1">
  <advance width="169"/>
  <unicode hex="2032"/>
  <outline>
    <contour>
      <point x="190" y="699" type="curve" smooth="yes"/>
      <point x="204" y="699"/>
      <point x="220" y="691"/>
      <point x="218" y="674" type="curve" smooth="yes"/>
      <point x="214" y="630"/>
      <point x="146" y="534"/>
      <point x="117" y="498" type="curve" smooth="yes"/>
      <point x="113" y="492"/>
      <point x="108" y="489"/>
      <point x="104" y="489" type="curve" smooth="yes"/>
      <point x="98" y="489"/>
      <point x="94" y="494"/>
      <point x="95" y="501" type="curve" smooth="yes"/>
      <point x="96" y="504"/>
      <point x="122" y="612"/>
      <point x="140" y="666" type="curve" smooth="yes"/>
      <point x="144" y="678"/>
      <point x="172" y="699"/>
    </contour>
  </outline>
</glyph>
<glyph name="second" format="1">
  <advance width="292"/>
  <unicode hex="2033"/>
  <outline>
    <contour>
      <point x="313" y="699" type="curve" smooth="yes"/>
      <point x="327" y="699"/>
      <point x="341" y="691"/>
      <point x="339" y="674" type="curve" smooth="yes"/>
      <point x="335" y="630"/>
      <point x="271" y="536"/>
      <point x="241" y="498" type="curve" smooth="yes"/>
      <point x="237" y="492"/>
      <point x="231" y="489"/>
      <point x="227" y="489" type="curve" smooth="yes"/>
      <point x="221" y="489"/>
      <point x="217" y="494"/>
      <point x="218" y="501" type="curve" smooth="yes"/>
      <point x="219" y="504"/>
      <point x="245" y="612"/>
      <point x="263" y="666" type="curve" smooth="yes"/>
      <point x="267" y="678"/>
      <point x="295" y="699"/>
    </contour>
    <contour>
      <point x="190" y="699" type="curve" smooth="yes"/>
      <point x="204" y="699"/>
      <point x="220" y="691"/>
      <point x="218" y="674" type="curve" smooth="yes"/>
      <point x="214" y="630"/>
      <point x="146" y="534"/>
      <point x="117" y="498" type="curve" smooth="yes"/>
      <point x="113" y="492"/>
      <point x="108" y="489"/>
      <point x="104" y="489" type="curve" smooth="yes"/>
      <point x="98" y="489"/>
      <point x="94" y="494"/>
      <point x="95" y="501" type="curve" smooth="yes"/>
      <point x="96" y="504"/>
      <point x="122" y="612"/>
      <point x="140" y="666" type="curve" smooth="yes"/>
      <point x="144" y="678"/>
      <point x="172" y="699"/>
    </contour>
  </outline>
</glyph>
<glyph name="uni2038" format="1">
  <advance width="363"/>
  <unicode hex="2038"/>
  <outline>
    <contour>
      <point x="280" y="-48" type="curve" smooth="yes"/>
      <point x="268" y="-48"/>
      <point x="221" y="-2"/>
      <point x="194" y="38" type="curve"/>
      <point x="154" y="-3"/>
      <point x="86" y="-48"/>
      <point x="74" y="-48" type="curve" smooth="yes"/>
      <point x="68" y="-48"/>
      <point x="69" y="-32"/>
      <point x="69" y="-30" type="curve"/>
      <point x="73" y="-17"/>
      <point x="139" y="17"/>
      <point x="195" y="102" type="curve"/>
      <point x="199" y="110"/>
      <point x="199" y="112"/>
      <point x="205" y="112" type="curve" smooth="yes"/>
      <point x="224" y="112"/>
      <point x="212" y="95"/>
      <point x="246" y="37" type="curve" smooth="yes"/>
      <point x="258" y="15"/>
      <point x="294" y="-23"/>
      <point x="295" y="-27" type="curve"/>
      <point x="294" y="-31"/>
      <point x="286" y="-48"/>
    </contour>
  </outline>
</glyph>
<glyph name="guilsinglleft" format="1">
  <advance width="304"/>
  <unicode hex="2039"/>
  <outline>
    <contour>
      <point x="221" y="92" type="curve"/>
      <point x="215" y="82"/>
      <point x="202" y="75"/>
      <point x="196" y="73" type="curve"/>
      <point x="179" y="95"/>
      <point x="116" y="168"/>
      <point x="33" y="230" type="curve"/>
      <point x="29" y="234"/>
      <point x="26" y="239"/>
      <point x="26" y="245" type="curve" smooth="yes"/>
      <point x="26" y="253"/>
      <point x="32" y="260"/>
      <point x="38" y="264" type="curve"/>
      <point x="162" y="335"/>
      <point x="226" y="393"/>
      <point x="264" y="423" type="curve"/>
      <point x="268" y="422"/>
      <point x="281" y="416"/>
      <point x="283" y="406" type="curve"/>
      <point x="278" y="397"/>
      <point x="142" y="266"/>
      <point x="122" y="248" type="curve"/>
      <point x="135" y="230"/>
      <point x="219" y="99"/>
    </contour>
  </outline>
</glyph>
<glyph name="guilsinglright" format="1">
  <advance width="305"/>
  <unicode hex="203A"/>
  <outline>
    <contour>
      <point x="76" y="404" type="curve"/>
      <point x="82" y="414"/>
      <point x="95" y="421"/>
      <point x="101" y="423" type="curve"/>
      <point x="118" y="401"/>
      <point x="181" y="328"/>
      <point x="264" y="266" type="curve"/>
      <point x="268" y="262"/>
      <point x="271" y="257"/>
      <point x="271" y="251" type="curve" smooth="yes"/>
      <point x="271" y="243"/>
      <point x="265" y="236"/>
      <point x="259" y="232" type="curve"/>
      <point x="135" y="161"/>
      <point x="72" y="103"/>
      <point x="34" y="73" type="curve"/>
      <point x="30" y="74"/>
      <point x="16" y="80"/>
      <point x="14" y="90" type="curve"/>
      <point x="19" y="99"/>
      <point x="156" y="230"/>
      <point x="176" y="248" type="curve"/>
      <point x="162" y="266"/>
      <point x="78" y="397"/>
    </contour>
  </outline>
</glyph>
<glyph name="uni203E" format="1">
  <advance width="789"/>
  <unicode hex="203E"/>
  <outline>
    <contour>
      <point x="758" y="804" type="line" smooth="yes"/>
      <point x="764" y="804"/>
      <point x="764" y="796"/>
      <point x="764" y="790" type="curve" smooth="yes"/>
      <point x="764" y="772"/>
      <point x="750" y="742"/>
      <point x="742" y="736" type="curve"/>
      <point x="226" y="736" type="line" smooth="yes"/>
      <point x="220" y="736"/>
      <point x="220" y="744"/>
      <point x="220" y="750" type="curve" smooth="yes"/>
      <point x="220" y="768"/>
      <point x="234" y="798"/>
      <point x="242" y="804" type="curve"/>
    </contour>
  </outline>
</glyph>
<glyph name="radical" format="1">
  <advance width="472"/>
  <unicode hex="221A"/>
  <outline>
    <contour>
      <point x="-18" y="159" type="line"/>
      <point x="-29" y="165"/>
      <point x="-36" y="177"/>
      <point x="-35" y="185" type="curve" smooth="yes"/>
      <point x="-33" y="195"/>
      <point x="-18" y="204"/>
      <point x="-9" y="209" type="curve" smooth="yes"/>
      <point x="27" y="231"/>
      <point x="124" y="296"/>
      <point x="139" y="308" type="curve" smooth="yes"/>
      <point x="148" y="315"/>
      <point x="163" y="315"/>
      <point x="164" y="307" type="curve"/>
      <point x="166" y="275"/>
      <point x="170" y="254"/>
      <point x="173" y="238" type="curve" smooth="yes"/>
      <point x="224" y="8" type="line"/>
      <point x="232" y="30"/>
      <point x="512" y="791"/>
      <point x="512" y="791" type="curve"/>
      <point x="555" y="788" type="line"/>
      <point x="555" y="788"/>
      <point x="233" y="-89"/>
      <point x="209" y="-153" type="curve"/>
      <point x="192" y="-171"/>
      <point x="172" y="-176"/>
      <point x="166" y="-176" type="curve" smooth="yes"/>
      <point x="162" y="-176"/>
      <point x="158" y="-176"/>
      <point x="158" y="-172" type="curve" smooth="yes"/>
      <point x="72" y="208" type="line"/>
    </contour>
  </outline>
</glyph>
<glyph name="lessequal" format="1">
  <advance width="483"/>
  <unicode hex="2264"/>
  <outline>
    <contour>
      <point x="10" y="67" type="curve"/>
      <point x="366" y="67" type="line" smooth="yes"/>
      <point x="370" y="67"/>
      <point x="372" y="59"/>
      <point x="372" y="53" type="curve" smooth="yes"/>
      <point x="372" y="39"/>
      <point x="362" y="20"/>
      <point x="352" y="5" type="curve"/>
      <point x="-6" y="5" type="line" smooth="yes"/>
      <point x="-11" y="5"/>
      <point x="-12" y="12"/>
      <point x="-12" y="18" type="curve" smooth="yes"/>
      <point x="-12" y="32"/>
      <point x="0" y="54"/>
    </contour>
    <contour>
      <point x="446" y="529" type="curve"/>
      <point x="450" y="524"/>
      <point x="459" y="501"/>
      <point x="459" y="482" type="curve" smooth="yes"/>
      <point x="459" y="477"/>
      <point x="458" y="472"/>
      <point x="454" y="470" type="curve" smooth="yes"/>
      <point x="120" y="309" type="line"/>
      <point x="396" y="146" type="line"/>
      <point x="396" y="128"/>
      <point x="379" y="86"/>
      <point x="373" y="86" type="curve" smooth="yes"/>
      <point x="371" y="86"/>
      <point x="368" y="86"/>
      <point x="366" y="88" type="curve" smooth="yes"/>
      <point x="51" y="274" type="line" smooth="yes"/>
      <point x="43" y="279"/>
      <point x="37" y="292"/>
      <point x="37" y="302" type="curve" smooth="yes"/>
      <point x="37" y="328"/>
      <point x="56" y="342"/>
      <point x="68" y="348" type="curve"/>
      <point x="138" y="381"/>
      <point x="372" y="495"/>
    </contour>
  </outline>
</glyph>
<glyph name="greaterequal" format="1">
  <advance width="485"/>
  <unicode hex="2265"/>
  <outline>
    <contour>
      <point x="45" y="67" type="curve"/>
      <point x="402" y="67" type="line" smooth="yes"/>
      <point x="406" y="67"/>
      <point x="408" y="59"/>
      <point x="408" y="53" type="curve" smooth="yes"/>
      <point x="408" y="39"/>
      <point x="400" y="20"/>
      <point x="388" y="5" type="curve"/>
      <point x="30" y="5" type="line" smooth="yes"/>
      <point x="25" y="5"/>
      <point x="24" y="12"/>
      <point x="24" y="18" type="curve" smooth="yes"/>
      <point x="24" y="32"/>
      <point x="35" y="54"/>
    </contour>
    <contour>
      <point x="52" y="87" type="curve"/>
      <point x="47" y="93"/>
      <point x="39" y="121"/>
      <point x="39" y="136" type="curve"/>
      <point x="39" y="140"/>
      <point x="40" y="144"/>
      <point x="44" y="146" type="curve" smooth="yes"/>
      <point x="380" y="308" type="line"/>
      <point x="108" y="470" type="line"/>
      <point x="108" y="492"/>
      <point x="124" y="530"/>
      <point x="130" y="530" type="curve" smooth="yes"/>
      <point x="132" y="530"/>
      <point x="135" y="530"/>
      <point x="137" y="528" type="curve" smooth="yes"/>
      <point x="450" y="344" type="line" smooth="yes"/>
      <point x="458" y="340"/>
      <point x="465" y="328"/>
      <point x="465" y="318" type="curve" smooth="yes"/>
      <point x="465" y="304"/>
      <point x="451" y="278"/>
      <point x="433" y="270" type="curve"/>
      <point x="363" y="237"/>
      <point x="126" y="121"/>
    </contour>
  </outline>
</glyph>
<glyph name="acutecomb.cap" format="1">
  <advance width="225"/>
  <outline>
    <contour>
      <point x="162" y="712" type="curve"/>
      <point x="160" y="714"/>
      <point x="154" y="720"/>
      <point x="154" y="724" type="curve"/>
      <point x="156" y="732"/>
      <point x="226" y="799"/>
      <point x="260" y="819" type="curve" smooth="yes"/>
      <point x="266" y="823"/>
      <point x="286" y="825"/>
      <point x="296" y="825" type="curve" smooth="yes"/>
      <point x="322" y="825"/>
      <point x="348" y="816"/>
      <point x="348" y="798" type="curve" smooth="yes"/>
      <point x="348" y="766"/>
      <point x="177" y="713"/>
    </contour>
  </outline>
</glyph>
